<svg xmlns="http://www.w3.org/2000/svg" width="253.8" height="253.8" viewBox="0 0 253.8 253.8">
  <g id="Grupo_28552" data-name="Grupo 28552" transform="translate(-931.2 -5989.5)">
    <g id="Grupo_26154" data-name="Grupo 26154" transform="translate(-819.713 3794.475)">
      <g id="Grupo_26105" data-name="Grupo 26105" transform="translate(1754.398 2253.865)">
        <path id="Trazado_66861" data-name="Trazado 66861" d="M1817.256,2652.937a1.194,1.194,0,0,1-.73-.249,124.424,124.424,0,0,1-10.73-9.28,1.2,1.2,0,0,1,1.669-1.72,122.008,122.008,0,0,0,10.522,9.1,1.2,1.2,0,0,1-.732,2.148Zm-20.133-19.533a1.2,1.2,0,0,1-.927-.438,125.02,125.02,0,0,1-8.351-11.468,1.2,1.2,0,0,1,2.015-1.3,122.443,122.443,0,0,0,8.19,11.246,1.2,1.2,0,0,1-.926,1.958Zm-15.193-23.582a1.2,1.2,0,0,1-1.076-.669,123.845,123.845,0,0,1-5.531-13.064,1.2,1.2,0,0,1,2.257-.806,121.426,121.426,0,0,0,5.423,12.81,1.2,1.2,0,0,1-1.074,1.729ZM1772.5,2583.4a1.2,1.2,0,0,1-1.167-.929,122.825,122.825,0,0,1-2.388-13.984,1.2,1.2,0,0,1,2.382-.266,120.3,120.3,0,0,0,2.341,13.71,1.2,1.2,0,0,1-1.169,1.468Zm-3.111-27.876a1.2,1.2,0,0,1-1.2-1.2c.018-4.062.241-8.183.661-12.246q.1-.959.213-1.916a1.2,1.2,0,1,1,2.38.284q-.111.938-.209,1.879c-.413,3.985-.631,8.025-.648,12.01A1.2,1.2,0,0,1,1769.389,2555.527Zm3.324-27.858a1.2,1.2,0,0,1-1.167-1.476,123.71,123.71,0,0,1,4.066-13.593,1.2,1.2,0,1,1,2.252.818,121.383,121.383,0,0,0-3.987,13.329A1.2,1.2,0,0,1,1772.713,2527.668Zm9.573-26.368a1.2,1.2,0,0,1-1.071-1.734,123.413,123.413,0,0,1,7.067-12.3,1.2,1.2,0,0,1,2.006,1.312,121.02,121.02,0,0,0-6.93,12.062A1.2,1.2,0,0,1,1782.287,2501.3Z" transform="translate(-1768.191 -2486.721)" fill="#37474f"/>
      </g>
      <g id="Grupo_26106" data-name="Grupo 26106" transform="translate(1950.934 2361.723)">
        <path id="Trazado_66862" data-name="Trazado 66862" d="M2743.712,3079.845a1.2,1.2,0,0,1-.73-2.149c2.466-1.891,4.892-3.9,7.21-5.981,1.125-1.008,2.245-2.052,3.331-3.1a1.2,1.2,0,0,1,1.665,1.724c-1.107,1.069-2.25,2.133-3.4,3.161-2.363,2.119-4.836,4.171-7.351,6.1A1.191,1.191,0,0,1,2743.712,3079.845Zm20.169-19.5a1.2,1.2,0,0,1-.925-1.959,121.159,121.159,0,0,0,8.2-11.239,1.2,1.2,0,1,1,2.015,1.3,123.7,123.7,0,0,1-8.36,11.462A1.2,1.2,0,0,1,2763.881,3060.35Zm15.194-23.58a1.2,1.2,0,0,1-1.074-1.728,121.053,121.053,0,0,0,5.407-12.817,1.2,1.2,0,0,1,2.258.8,123.53,123.53,0,0,1-5.515,13.072A1.2,1.2,0,0,1,2779.075,3036.77Z" transform="translate(-2742.513 -3021.428)" fill="#37474f"/>
      </g>
      <g id="Grupo_26107" data-name="Grupo 26107" transform="translate(1854.237 2198.642)">
        <path id="Trazado_66863" data-name="Trazado 66863" d="M2378.587,2256.928a1.194,1.194,0,0,1-.9-.409,122.451,122.451,0,0,0-9.748-9.927,1.2,1.2,0,1,1,1.611-1.774,125.017,125.017,0,0,1,9.939,10.122,1.2,1.2,0,0,1-.9,1.988Zm-20.769-18.861a1.193,1.193,0,0,1-.7-.225,121.156,121.156,0,0,0-11.749-7.45,1.2,1.2,0,1,1,1.164-2.094,123.61,123.61,0,0,1,11.983,7.6,1.2,1.2,0,0,1-.7,2.171Zm-24.521-13.629a1.192,1.192,0,0,1-.457-.091,120.494,120.494,0,0,0-13.146-4.553,1.2,1.2,0,0,1,.652-2.306,122.936,122.936,0,0,1,13.409,4.645,1.2,1.2,0,0,1-.458,2.306Zm-68.96-7.171a1.2,1.2,0,0,1-.217-2.377,123.4,123.4,0,0,1,14.076-1.782,1.2,1.2,0,0,1,.164,2.391,120.958,120.958,0,0,0-13.8,1.747A1.193,1.193,0,0,1,2264.338,2217.267Zm41.965-.464a1.175,1.175,0,0,1-.192-.016c-2.289-.37-4.622-.679-6.936-.918-2.28-.236-4.6-.41-6.9-.518a1.2,1.2,0,1,1,.112-2.394c2.345.109,4.713.287,7.038.528,2.359.244,4.738.559,7.072.937a1.2,1.2,0,0,1-.19,2.382Z" transform="translate(-2263.141 -2212.956)" fill="#37474f"/>
      </g>
      <circle id="Elipse_2803" data-name="Elipse 2803" cx="89.732" cy="89.732" r="89.732" transform="translate(1750.913 2321.925) rotate(-45)" fill="#fff"/>
      <g id="Grupo_26121" data-name="Grupo 26121" transform="translate(1891.25 2247.33)">
        <g id="Grupo_26111" data-name="Grupo 26111" transform="translate(0)">
          <g id="Grupo_26108" data-name="Grupo 26108" transform="translate(0.132)">
            <path id="Trazado_66864" data-name="Trazado 66864" d="M2477.554,2512.172h-20.121a4.21,4.21,0,0,1-4.21-4.21v-43.487a4.211,4.211,0,0,1,4.21-4.211h43.487a4.211,4.211,0,0,1,4.211,4.211v3.9Z" transform="translate(-2452.024 -2459.066)" fill="#faf0d3"/>
            <path id="Trazado_66865" data-name="Trazado 66865" d="M2472.811,2508.629H2452.69a5.416,5.416,0,0,1-5.409-5.41v-43.486a5.415,5.415,0,0,1,5.409-5.409h43.487a5.415,5.415,0,0,1,5.409,5.409v3.9a1.2,1.2,0,1,1-2.4,0v-3.9a3.016,3.016,0,0,0-3.012-3.012H2452.69a3.016,3.016,0,0,0-3.012,3.012v43.486a3.016,3.016,0,0,0,3.012,3.013h20.121a1.2,1.2,0,1,1,0,2.4Z" transform="translate(-2447.281 -2454.324)" fill="#37474f"/>
          </g>
          <g id="Grupo_26109" data-name="Grupo 26109" transform="translate(11.487 9.733)">
            <circle id="Elipse_2804" data-name="Elipse 2804" cx="5.677" cy="5.677" r="5.677" transform="matrix(0.16, -0.987, 0.987, 0.16, 0.362, 11.57)" fill="#fff"/>
            <path id="Trazado_66866" data-name="Trazado 66866" d="M2510.449,2516.325a6.876,6.876,0,1,1,6.875-6.876A6.883,6.883,0,0,1,2510.449,2516.325Zm0-11.355a4.479,4.479,0,1,0,4.479,4.479A4.484,4.484,0,0,0,2510.449,2504.97Z" transform="translate(-2503.573 -2502.573)" fill="#37474f"/>
          </g>
          <g id="Grupo_26110" data-name="Grupo 26110" transform="translate(0 32.547)">
            <path id="Trazado_66867" data-name="Trazado 66867" d="M2452.57,2627.343l3.617-3.617a7.266,7.266,0,0,1,10.274,0,7.265,7.265,0,0,0,10.275,0Z" transform="translate(-2451.372 -2620.404)" fill="#faf0d3"/>
            <path id="Trazado_66868" data-name="Trazado 66868" d="M2447.828,2623.814a1.2,1.2,0,0,1-.848-2.045l3.617-3.617a8.473,8.473,0,0,1,11.969,0,6.067,6.067,0,0,0,8.58,0,1.2,1.2,0,1,1,1.695,1.694,8.463,8.463,0,0,1-11.969,0,6.074,6.074,0,0,0-8.58,0l-3.616,3.617A1.193,1.193,0,0,1,2447.828,2623.814Z" transform="translate(-2446.629 -2615.677)" fill="#37474f"/>
          </g>
        </g>
        <g id="Grupo_26112" data-name="Grupo 26112" transform="translate(39.062 8.111)">
          <path id="Trazado_66869" data-name="Trazado 66869" d="M2646.22,2568.6v12.011a4.211,4.211,0,0,0,4.21,4.21h61.33a4.211,4.211,0,0,0,4.21-4.21v-67.4l-12.011-12.736h-51.908a4.211,4.211,0,0,0-4.21,4.211v12.011Z" transform="translate(-2645.022 -2499.274)" fill="#fff"/>
          <path id="Trazado_66870" data-name="Trazado 66870" d="M2707.019,2581.279h-61.33a5.415,5.415,0,0,1-5.409-5.409v-12.011a1.2,1.2,0,0,1,2.4,0v12.011a3.016,3.016,0,0,0,3.012,3.012h61.33a3.016,3.016,0,0,0,3.012-3.012v-66.928l-11.329-12.013h-51.391a3.015,3.015,0,0,0-3.012,3.012v12.011a1.2,1.2,0,1,1-2.4,0v-12.011a5.415,5.415,0,0,1,5.409-5.409h51.908a1.2,1.2,0,0,1,.872.376l12.01,12.735a1.2,1.2,0,0,1,.327.822v67.4A5.415,5.415,0,0,1,2707.019,2581.279Z" transform="translate(-2640.28 -2494.532)" fill="#37474f"/>
        </g>
        <g id="Grupo_26113" data-name="Grupo 26113" transform="translate(96.803 8.111)">
          <path id="Trazado_66871" data-name="Trazado 66871" d="M2932.468,2500.472v9.353a3.624,3.624,0,0,0,3.624,3.624h8.387Z" transform="translate(-2931.27 -2499.274)" fill="#fff"/>
          <path id="Trazado_66872" data-name="Trazado 66872" d="M2939.737,2509.906h-8.387a4.828,4.828,0,0,1-4.822-4.823v-9.353a1.2,1.2,0,0,1,2.4,0v9.353a2.429,2.429,0,0,0,2.426,2.426h8.387a1.2,1.2,0,0,1,0,2.4Z" transform="translate(-2926.528 -2494.532)" fill="#37474f"/>
        </g>
        <g id="Grupo_26114" data-name="Grupo 26114" transform="translate(84.482 35.687)">
          <path id="Trazado_66873" data-name="Trazado 66873" d="M2871.386,2637.18h0Z" transform="translate(-2870.188 -2635.982)" fill="#fff"/>
          <path id="Trazado_66874" data-name="Trazado 66874" d="M2878,2633.636h-11.355a1.2,1.2,0,1,1,0-2.4H2878a1.2,1.2,0,0,1,0,2.4Z" transform="translate(-2865.445 -2631.239)" fill="#37474f"/>
        </g>
        <g id="Grupo_26115" data-name="Grupo 26115" transform="translate(84.482 45.419)">
          <path id="Trazado_66875" data-name="Trazado 66875" d="M2871.386,2685.429h0Z" transform="translate(-2870.188 -2684.231)" fill="#fff"/>
          <path id="Trazado_66876" data-name="Trazado 66876" d="M2878,2681.885h-11.355a1.2,1.2,0,1,1,0-2.4H2878a1.2,1.2,0,1,1,0,2.4Z" transform="translate(-2865.445 -2679.489)" fill="#37474f"/>
        </g>
        <g id="Grupo_26116" data-name="Grupo 26116" transform="translate(84.482 55.152)">
          <path id="Trazado_66877" data-name="Trazado 66877" d="M2871.386,2733.679h0Z" transform="translate(-2870.188 -2732.481)" fill="#fff"/>
          <path id="Trazado_66878" data-name="Trazado 66878" d="M2878,2730.136h-11.355a1.2,1.2,0,1,1,0-2.4H2878a1.2,1.2,0,0,1,0,2.4Z" transform="translate(-2865.445 -2727.739)" fill="#37474f"/>
        </g>
        <g id="Grupo_26117" data-name="Grupo 26117" transform="translate(84.482 64.885)">
          <path id="Trazado_66879" data-name="Trazado 66879" d="M2871.386,2781.929h0Z" transform="translate(-2870.188 -2780.731)" fill="#fff"/>
          <path id="Trazado_66880" data-name="Trazado 66880" d="M2878,2778.386h-11.355a1.2,1.2,0,1,1,0-2.4H2878a1.2,1.2,0,1,1,0,2.4Z" transform="translate(-2865.445 -2775.989)" fill="#37474f"/>
        </g>
        <g id="Grupo_26119" data-name="Grupo 26119" transform="translate(24.463 24.332)">
          <g id="Grupo_26118" data-name="Grupo 26118">
            <path id="Trazado_66881" data-name="Trazado 66881" d="M2609.533,2580.889h12.011a4.211,4.211,0,0,1,4.21,4.21v43.487a4.21,4.21,0,0,1-4.21,4.21h-43.487a4.21,4.21,0,0,1-4.21-4.21V2585.1a4.211,4.211,0,0,1,4.21-4.21h31.476Z" transform="translate(-2572.648 -2579.691)" fill="#48b1e2"/>
            <path id="Trazado_66882" data-name="Trazado 66882" d="M2616.8,2629.252h-43.487a5.415,5.415,0,0,1-5.408-5.409v-43.487a5.415,5.415,0,0,1,5.408-5.409H2598.3a1.2,1.2,0,0,1,0,2.4h-24.988a3.016,3.016,0,0,0-3.012,3.012v43.487a3.015,3.015,0,0,0,3.012,3.012H2616.8a3.016,3.016,0,0,0,3.012-3.012v-43.487a3.016,3.016,0,0,0-3.012-3.012h-12.011a1.2,1.2,0,0,1,0-2.4H2616.8a5.415,5.415,0,0,1,5.409,5.409v43.487A5.415,5.415,0,0,1,2616.8,2629.252Z" transform="translate(-2567.906 -2574.948)" fill="#37474f"/>
          </g>
        </g>
        <g id="Grupo_26120" data-name="Grupo 26120" transform="translate(43.929 41.703)">
          <path id="Trazado_66883" data-name="Trazado 66883" d="M2670.345,2669.443v12.113a2.415,2.415,0,0,0,3.7,2.044l9.619-6.057a2.414,2.414,0,0,0,0-4.087l-9.619-6.057A2.415,2.415,0,0,0,2670.345,2669.443Z" transform="translate(-2669.147 -2665.823)" fill="#fff"/>
          <path id="Trazado_66884" data-name="Trazado 66884" d="M2668.021,2680.421a3.608,3.608,0,0,1-1.75-.458,3.569,3.569,0,0,1-1.867-3.163v-12.114a3.613,3.613,0,0,1,5.538-3.057l9.62,6.057a3.613,3.613,0,0,1,0,6.115l-9.62,6.057A3.6,3.6,0,0,1,2668.021,2680.421Zm.005-16.956a1.265,1.265,0,0,0-.6.156,1.193,1.193,0,0,0-.628,1.065V2676.8a1.216,1.216,0,0,0,1.865,1.029l9.62-6.057a1.216,1.216,0,0,0,0-2.059l-9.62-6.057A1.182,1.182,0,0,0,2668.027,2663.466Z" transform="translate(-2664.405 -2661.067)" fill="#37474f"/>
        </g>
      </g>
      <g id="Grupo_26129" data-name="Grupo 26129" transform="translate(1785.153 2200.347)">
        <g id="Grupo_26123" data-name="Grupo 26123" transform="translate(0 0)">
          <g id="Grupo_26122" data-name="Grupo 26122">
            <path id="Trazado_66885" data-name="Trazado 66885" d="M1979.51,2342.261l.5-16.729s15.13,4.15,21.916,2.25a6.993,6.993,0,0,0,4.981-8.989,2.749,2.749,0,0,1,.805-3.171l1.776-1.437a.96.96,0,0,0,.364-.828c-.113-1.168-1.648-2.4-2.421-3.164,0,0,2.621-1.16,3.263-2.834a1.373,1.373,0,0,0-.227-1.357l-1.505-1.839a25.694,25.694,0,0,1-.637-3.129.915.915,0,0,1,.77-1.067c1.839-.257,4.291-.856,5.911-1.147a4.248,4.248,0,0,0,2.569-5.706l-8.911-11.191a3.451,3.451,0,0,1-.689-2,5.991,5.991,0,0,1,.735-2.963c2.987-5.57,1.919-9.313,1.433-11.8-10.874-55.688-93.162-49.5-82.668,15.739,1.412,8.779,8.863,13.44,8.753,25.448-.138,15.1-2.665,35.915-2.665,35.915Z" transform="translate(-1925.362 -2226.118)" fill="#fff"/>
            <path id="Trazado_66886" data-name="Trazado 66886" d="M1928.856,2338.752a1.228,1.228,0,0,1-.146-.009,1.2,1.2,0,0,1-1.045-1.334c.025-.208,2.52-20.922,2.656-35.782.061-6.684-2.345-11.008-4.672-15.189-1.693-3.042-3.444-6.188-4.066-10.057-5.241-32.588,12.528-50.755,32.463-54.3,21.136-3.762,46.742,8.328,52.564,38.145l.1.519a16,16,0,0,1-1.657,12.077,4.8,4.8,0,0,0-.593,2.353,2.248,2.248,0,0,0,.45,1.322l8.89,11.165a1.19,1.19,0,0,1,.137.216,5.062,5.062,0,0,1-.052,4.529,5.164,5.164,0,0,1-3.341,2.88c-.653.118-1.388.273-2.163.437-1.147.242-2.435.514-3.545.683.1.632.338,1.976.463,2.44l1.384,1.692a2.575,2.575,0,0,1,.419,2.545,6.15,6.15,0,0,1-2.387,2.657,4.968,4.968,0,0,1,1.619,2.8,2.149,2.149,0,0,1-.8,1.875l-1.776,1.438a1.548,1.548,0,0,0-.447,1.793,8.181,8.181,0,0,1-5.771,10.59c-5.821,1.63-17.049-.866-21.086-1.868l-.455,15.229a1.2,1.2,0,1,1-2.4-.072l.5-16.728a1.2,1.2,0,0,1,1.515-1.12c.148.041,14.888,4.04,21.276,2.251a5.794,5.794,0,0,0,4.192-7.389,3.933,3.933,0,0,1,1.163-4.549l1.67-1.353a7.04,7.04,0,0,0-1.6-1.88c-.158-.148-.305-.286-.433-.411a1.2,1.2,0,0,1,.354-1.951,5.627,5.627,0,0,0,2.629-2.168.175.175,0,0,0-.036-.169l-1.505-1.84a12.5,12.5,0,0,1-.834-3.471,1.23,1.23,0,0,1-.057-.211,2.133,2.133,0,0,1,.375-1.614,2.089,2.089,0,0,1,1.41-.846c1.089-.152,2.4-.429,3.669-.7.8-.169,1.561-.329,2.2-.443a2.916,2.916,0,0,0,1.646-1.571,2.778,2.778,0,0,0,.11-2.319l-8.823-11.082a4.645,4.645,0,0,1-.949-2.719,7.217,7.217,0,0,1,.876-3.555,13.712,13.712,0,0,0,1.422-10.465l-.108-.539c-5.529-28.315-29.781-39.807-49.792-36.245-17.405,3.1-35.841,18.462-30.517,51.564.555,3.452,2.128,6.279,3.794,9.272,2.363,4.246,5.041,9.059,4.974,16.377-.137,15-2.648,35.84-2.674,36.049A1.2,1.2,0,0,1,1928.856,2338.752Z" transform="translate(-1920.654 -2221.411)" fill="#37474f"/>
          </g>
        </g>
        <g id="Grupo_26128" data-name="Grupo 26128" transform="translate(12.997 10.532)">
          <g id="Grupo_26125" data-name="Grupo 26125" transform="translate(23.146)">
            <g id="Grupo_26124" data-name="Grupo 26124">
              <path id="Trazado_66887" data-name="Trazado 66887" d="M2106.645,2291.109l-.811,3.248a1.983,1.983,0,0,0,1.444,2.4l1.791.447a.669.669,0,0,1,.5.614,13.522,13.522,0,0,0,.341,2.283.669.669,0,0,1-.3.733l-1.583.95a1.984,1.984,0,0,0-.68,2.721l1.723,2.869a1.984,1.984,0,0,0,2.721.68l1.583-.951a.668.668,0,0,1,.789.079,13.532,13.532,0,0,0,1.855,1.374.668.668,0,0,1,.306.731l-.447,1.791a1.984,1.984,0,0,0,1.444,2.405l3.248.811a1.984,1.984,0,0,0,2.4-1.444l.447-1.791a.668.668,0,0,1,.614-.5,13.547,13.547,0,0,0,2.283-.341.668.668,0,0,1,.733.3l.95,1.583a1.983,1.983,0,0,0,2.721.68l2.87-1.723a1.984,1.984,0,0,0,.679-2.721l-.95-1.583a.668.668,0,0,1,.079-.789,13.5,13.5,0,0,0,1.375-1.854.668.668,0,0,1,.731-.306l1.791.447a1.984,1.984,0,0,0,2.4-1.444l.811-3.248a1.983,1.983,0,0,0-1.444-2.4l-1.791-.447a.669.669,0,0,1-.5-.614,13.539,13.539,0,0,0-.341-2.283.668.668,0,0,1,.3-.733l1.583-.95a1.983,1.983,0,0,0,.679-2.721l-1.723-2.87a1.983,1.983,0,0,0-2.721-.68l-1.583.95a.668.668,0,0,1-.788-.079,13.512,13.512,0,0,0-1.854-1.374.668.668,0,0,1-.306-.731l.448-1.791a1.983,1.983,0,0,0-1.444-2.4l-3.247-.811a1.983,1.983,0,0,0-2.4,1.444l-.448,1.791a.669.669,0,0,1-.614.5,13.507,13.507,0,0,0-2.283.341.668.668,0,0,1-.733-.3l-.95-1.583a1.983,1.983,0,0,0-2.721-.679l-2.869,1.723a1.983,1.983,0,0,0-.68,2.721l.95,1.583a.668.668,0,0,1-.079.788,13.539,13.539,0,0,0-1.374,1.855.669.669,0,0,1-.731.306l-1.791-.447A1.983,1.983,0,0,0,2106.645,2291.109Zm17.036-.947a6.819,6.819,0,1,1-6.749,4.052A6.824,6.824,0,0,1,2123.681,2290.161Z" transform="translate(-2104.575 -2278.365)" fill="#48b1e2"/>
              <path id="Trazado_66888" data-name="Trazado 66888" d="M2116.3,2310.816a3.172,3.172,0,0,1-.771-.1l-3.247-.811a3.182,3.182,0,0,1-2.316-3.858l.354-1.416a14.765,14.765,0,0,1-1.407-1.043l-1.251.751a3.185,3.185,0,0,1-4.365-1.09l-1.723-2.87a3.181,3.181,0,0,1,1.09-4.365l1.251-.751a14.873,14.873,0,0,1-.259-1.733l-1.416-.353a3.181,3.181,0,0,1-2.316-3.858l.811-3.247a3.185,3.185,0,0,1,3.858-2.316l1.416.353a14.907,14.907,0,0,1,1.043-1.408l-.751-1.251a3.182,3.182,0,0,1,1.09-4.365l2.87-1.722a3.181,3.181,0,0,1,4.365,1.09l.751,1.251a14.861,14.861,0,0,1,1.733-.259l.353-1.416a3.185,3.185,0,0,1,3.858-2.316l3.248.811a3.182,3.182,0,0,1,2.316,3.857l-.354,1.416a14.856,14.856,0,0,1,1.408,1.043l1.251-.751a3.185,3.185,0,0,1,4.365,1.09l1.723,2.87a3.185,3.185,0,0,1-1.09,4.365l-1.251.751a14.761,14.761,0,0,1,.259,1.733l1.416.354a3.185,3.185,0,0,1,2.316,3.857l-.811,3.248a3.185,3.185,0,0,1-3.857,2.316l-1.416-.354a14.715,14.715,0,0,1-1.043,1.408l.751,1.252a3.181,3.181,0,0,1-1.09,4.365l-2.87,1.723a3.186,3.186,0,0,1-4.365-1.09l-.751-1.251a14.873,14.873,0,0,1-1.733.259l-.354,1.416A3.187,3.187,0,0,1,2116.3,2310.816Zm-7.335-9.741a1.876,1.876,0,0,1,1.243.473,12.4,12.4,0,0,0,1.691,1.253,1.863,1.863,0,0,1,.84,2.042l-.448,1.791a.786.786,0,0,0,.571.952l3.248.811a.786.786,0,0,0,.952-.572l.448-1.791a1.863,1.863,0,0,1,1.7-1.407,12.368,12.368,0,0,0,2.081-.311,1.862,1.862,0,0,1,2.038.85l.95,1.583a.786.786,0,0,0,1.077.269l2.87-1.723a.786.786,0,0,0,.269-1.077l-.95-1.583a1.861,1.861,0,0,1,.208-2.2,12.39,12.39,0,0,0,1.253-1.691,1.864,1.864,0,0,1,2.042-.84l1.791.448a.786.786,0,0,0,.952-.572l.811-3.248a.786.786,0,0,0-.572-.952l-1.791-.447a1.863,1.863,0,0,1-1.407-1.7,12.348,12.348,0,0,0-.311-2.081,1.862,1.862,0,0,1,.85-2.038l1.583-.95a.786.786,0,0,0,.269-1.078l-1.723-2.869a.786.786,0,0,0-1.077-.269l-1.583.95a1.862,1.862,0,0,1-2.2-.208,12.369,12.369,0,0,0-1.691-1.253,1.863,1.863,0,0,1-.84-2.042l.447-1.791a.785.785,0,0,0-.571-.952l-3.247-.811a.787.787,0,0,0-.952.572l-.447,1.791a1.862,1.862,0,0,1-1.7,1.407,12.371,12.371,0,0,0-2.081.311,1.863,1.863,0,0,1-2.038-.85l-.95-1.583a.786.786,0,0,0-1.078-.269l-2.869,1.723a.784.784,0,0,0-.269,1.077l.95,1.583a1.862,1.862,0,0,1-.208,2.2,12.412,12.412,0,0,0-1.252,1.69,1.863,1.863,0,0,1-2.042.84l-1.791-.447a.786.786,0,0,0-.952.572l-.811,3.247a.785.785,0,0,0,.571.952l1.791.447a1.863,1.863,0,0,1,1.407,1.7,12.379,12.379,0,0,0,.311,2.081,1.862,1.862,0,0,1-.85,2.038l-1.583.95a.786.786,0,0,0-.269,1.077l1.723,2.87a.786.786,0,0,0,1.077.269l1.583-.95A1.853,1.853,0,0,1,2108.967,2301.074Zm9.48-.835c-.208,0-.417-.009-.627-.026a7.961,7.961,0,1,1,.627.026Zm-.048-13.643a5.681,5.681,0,1,0,.438.018C2118.691,2286.6,2118.544,2286.6,2118.4,2286.6Z" transform="translate(-2099.83 -2273.624)" fill="#37474f"/>
            </g>
          </g>
          <g id="Grupo_26127" data-name="Grupo 26127" transform="translate(0 28.139)">
            <g id="Grupo_26126" data-name="Grupo 26126">
              <path id="Trazado_66889" data-name="Trazado 66889" d="M1991.947,2432.966a1.5,1.5,0,0,0,.652,2.014l2.752,1.406a.8.8,0,0,1,.419.852,16.278,16.278,0,0,0-.22,2.757.8.8,0,0,1-.549.774l-2.94.952a1.5,1.5,0,0,0-.963,1.885l1.776,5.487a1.5,1.5,0,0,0,1.885.963l2.94-.951a.8.8,0,0,1,.9.305,16.188,16.188,0,0,0,1.794,2.1.8.8,0,0,1,.159.936l-1.406,2.752a1.5,1.5,0,0,0,.652,2.014l5.135,2.624a1.5,1.5,0,0,0,2.014-.652l1.406-2.752a.8.8,0,0,1,.852-.419,16.2,16.2,0,0,0,2.756.221.8.8,0,0,1,.774.549l.952,2.94a1.5,1.5,0,0,0,1.885.963l5.487-1.776a1.5,1.5,0,0,0,.963-1.885l-.952-2.94a.8.8,0,0,1,.306-.9,16.223,16.223,0,0,0,2.1-1.794.8.8,0,0,1,.936-.159l2.752,1.406a1.5,1.5,0,0,0,2.014-.652l2.624-5.135a1.5,1.5,0,0,0-.652-2.013l-2.752-1.406a.8.8,0,0,1-.419-.851,16.232,16.232,0,0,0,.221-2.757.8.8,0,0,1,.549-.774l2.939-.952a1.5,1.5,0,0,0,.963-1.885l-1.776-5.486a1.5,1.5,0,0,0-1.885-.963l-2.94.952a.8.8,0,0,1-.9-.306,16.261,16.261,0,0,0-1.794-2.1.8.8,0,0,1-.159-.936l1.406-2.752a1.5,1.5,0,0,0-.652-2.014l-5.135-2.624a1.5,1.5,0,0,0-2.014.652l-1.406,2.752a.8.8,0,0,1-.851.419,16.212,16.212,0,0,0-2.757-.22.8.8,0,0,1-.774-.549l-.952-2.94a1.5,1.5,0,0,0-1.885-.963l-5.486,1.776a1.5,1.5,0,0,0-.963,1.885l.952,2.939a.8.8,0,0,1-.306.9,16.261,16.261,0,0,0-2.1,1.794.8.8,0,0,1-.936.159l-2.752-1.406a1.5,1.5,0,0,0-2.014.652Zm16.915-1.847a9.783,9.783,0,1,1-6.295,12.32A9.783,9.783,0,0,1,2008.862,2431.118Z" transform="translate(-1989.827 -2417.861)" fill="#faf0d3"/>
              <path id="Trazado_66890" data-name="Trazado 66890" d="M2010.365,2457.217a2.7,2.7,0,0,1-2.561-1.866l-.861-2.66a17.417,17.417,0,0,1-2.4-.192l-1.272,2.491a2.7,2.7,0,0,1-3.626,1.174l-5.135-2.624a2.695,2.695,0,0,1-1.174-3.626l1.272-2.49a17.527,17.527,0,0,1-1.562-1.832l-2.66.861a2.7,2.7,0,0,1-3.394-1.734l-1.776-5.487a2.7,2.7,0,0,1,1.734-3.394l2.66-.861a17.463,17.463,0,0,1,.192-2.4l-2.49-1.272a2.7,2.7,0,0,1-1.174-3.626l2.624-5.135a2.695,2.695,0,0,1,3.626-1.173l2.49,1.272a17.472,17.472,0,0,1,1.831-1.561l-.861-2.66a2.7,2.7,0,0,1,1.734-3.394l5.487-1.776a2.7,2.7,0,0,1,3.394,1.734l.861,2.66a17.336,17.336,0,0,1,2.4.192l1.273-2.49a2.7,2.7,0,0,1,3.626-1.174l5.135,2.624a2.7,2.7,0,0,1,1.173,3.626l-1.272,2.49a17.5,17.5,0,0,1,1.561,1.832l2.66-.861a2.695,2.695,0,0,1,3.394,1.734l1.776,5.486a2.7,2.7,0,0,1-1.734,3.394l-2.66.861a17.457,17.457,0,0,1-.192,2.4l2.49,1.273a2.7,2.7,0,0,1,1.174,3.626l-2.624,5.135a2.7,2.7,0,0,1-3.626,1.174l-2.49-1.272a17.512,17.512,0,0,1-1.831,1.561l.861,2.66a2.695,2.695,0,0,1-1.734,3.394l-5.486,1.776A2.7,2.7,0,0,1,2010.365,2457.217Zm-3.14-6.922a1.993,1.993,0,0,1,1.908,1.378l.952,2.94a.3.3,0,0,0,.376.192l5.486-1.776a.3.3,0,0,0,.192-.376l-.952-2.94a1.994,1.994,0,0,1,.749-2.242,15.085,15.085,0,0,0,1.948-1.662,2,2,0,0,1,2.333-.384l2.752,1.406a.3.3,0,0,0,.4-.13l2.624-5.135a.3.3,0,0,0-.13-.4l-2.752-1.406a1.994,1.994,0,0,1-1.056-2.116,15.1,15.1,0,0,0,.2-2.553,2,2,0,0,1,1.378-1.921l2.94-.951a.3.3,0,0,0,.192-.376l-1.776-5.486a.3.3,0,0,0-.376-.192l-2.939.952a1.994,1.994,0,0,1-2.242-.749,15.109,15.109,0,0,0-1.661-1.948,1.994,1.994,0,0,1-.384-2.333l1.406-2.752a.3.3,0,0,0-.13-.4l-5.135-2.624a.3.3,0,0,0-.4.13l-1.406,2.752a1.994,1.994,0,0,1-2.115,1.056,14.959,14.959,0,0,0-2.553-.2,2,2,0,0,1-1.92-1.378l-.952-2.94a.3.3,0,0,0-.376-.192l-5.487,1.776a.3.3,0,0,0-.192.375l.951,2.94a2,2,0,0,1-.748,2.242,15.066,15.066,0,0,0-1.949,1.662,1.994,1.994,0,0,1-2.333.384l-2.752-1.406a.3.3,0,0,0-.4.13l-2.624,5.135a.3.3,0,0,0,.13.4l2.752,1.406a1.994,1.994,0,0,1,1.056,2.116,15.1,15.1,0,0,0-.2,2.552,1.993,1.993,0,0,1-1.378,1.92l-2.94.952a.3.3,0,0,0-.192.376l1.776,5.487a.3.3,0,0,0,.376.192l2.94-.952a1.994,1.994,0,0,1,2.242.749,15.053,15.053,0,0,0,1.661,1.949,1.994,1.994,0,0,1,.385,2.333L1995.47,2451a.3.3,0,0,0,.13.4l5.135,2.624a.3.3,0,0,0,.4-.13l1.406-2.752a2,2,0,0,1,2.116-1.056,15.047,15.047,0,0,0,2.553.2Zm-.083-3.627a10.985,10.985,0,1,1,3.375-.535A11,11,0,0,1,2007.141,2446.667Zm-2.651-19.15a8.585,8.585,0,1,0,10.812,5.524,8.595,8.595,0,0,0-10.812-5.524Z" transform="translate(-1985.086 -2413.12)" fill="#37474f"/>
            </g>
          </g>
        </g>
      </g>
      <g id="Grupo_26153" data-name="Grupo 26153" transform="translate(1813.088 2322.529)">
        <path id="Trazado_66891" data-name="Trazado 66891" d="M2450.409,3150.619l2.665-14.063s2.092-7.285,10.3-5.735,6.656,9.448,6.656,9.448l-3.218,20.671a7.793,7.793,0,0,1-7.659,5.933H2441.7s-1.489-.355-1.884,2.116L2437,3186.6s-.75,4.464-6.029,4.252-4.223-6.148-4.223-6.148l3.63-22.6s.325-6.562,9.756-5.337c0,0-1.238-5.982,3.5-6.022S2450.409,3150.619,2450.409,3150.619Z" transform="translate(-2352.528 -3069.387)" fill="#fff"/>
        <path id="Trazado_66892" data-name="Trazado 66892" d="M2113.558,3150.619l-2.664-14.063s-2.092-7.285-10.3-5.735-6.656,9.448-6.656,9.448l3.218,20.671a7.792,7.792,0,0,0,7.659,5.933h17.454s1.489-.355,1.884,2.116l2.817,17.616s.75,4.464,6.029,4.252,4.222-6.148,4.222-6.148l-3.629-22.6s-.325-6.562-9.756-5.337c0,0,1.238-5.982-3.5-6.022S2113.558,3150.619,2113.558,3150.619Z" transform="translate(-2086.824 -3069.387)" fill="#fff"/>
        <g id="Grupo_26130" data-name="Grupo 26130" transform="translate(56.208 79.526)">
          <rect id="Rectángulo_25657" data-name="Rectángulo 25657" width="9.095" height="43.453" transform="translate(1.198 1.198)" fill="#faf0d3"/>
          <path id="Trazado_66893" data-name="Trazado 66893" d="M2348.086,3267.219a1.2,1.2,0,0,1-1.2-1.2v-42.255h-6.7v42.255a1.2,1.2,0,1,1-2.4,0v-43.453a1.2,1.2,0,0,1,1.2-1.2h9.095a1.2,1.2,0,0,1,1.2,1.2v43.453A1.2,1.2,0,0,1,2348.086,3267.219Z" transform="translate(-2337.793 -3221.369)" fill="#37474f"/>
        </g>
        <g id="Grupo_26131" data-name="Grupo 26131" transform="translate(38.457 72.452)">
          <path id="Trazado_66894" data-name="Trazado 66894" d="M2297.015,3192.241h-37.741a3.537,3.537,0,0,0,0,7.074h37.741a3.537,3.537,0,0,0,0-7.074Z" transform="translate(-2254.539 -3191.043)" fill="#faf0d3"/>
          <path id="Trazado_66895" data-name="Trazado 66895" d="M2292.272,3195.771h-37.741a4.735,4.735,0,0,1,0-9.47h37.741a4.735,4.735,0,0,1,0,9.47Zm-37.741-7.074a2.339,2.339,0,0,0,0,4.677h37.741a2.339,2.339,0,1,0,0-4.677Z" transform="translate(-2249.796 -3186.3)" fill="#37474f"/>
        </g>
        <g id="Grupo_26138" data-name="Grupo 26138" transform="translate(0 35.007)">
          <g id="Grupo_26132" data-name="Grupo 26132" transform="translate(0 30.964)">
            <path id="Trazado_66896" data-name="Trazado 66896" d="M2065.108,3163.432l3.933,30.487a2.946,2.946,0,0,0,2.922,2.569h20.569a2.963,2.963,0,0,0,2.964-2.963v-.136a2.963,2.963,0,0,0-2.964-2.963h-10.473a7.912,7.912,0,0,1-7.82-6.709l-3.249-21.122a2.932,2.932,0,0,0-2.9-2.485h-.062A2.946,2.946,0,0,0,2065.108,3163.432Z" transform="translate(-2063.886 -3158.911)" fill="#48b1e2"/>
            <path id="Trazado_66897" data-name="Trazado 66897" d="M2087.792,3192.945h-20.568a4.154,4.154,0,0,1-4.11-3.614l-3.934-30.487a4.17,4.17,0,0,1,8.255-1.173l3.249,21.122a6.678,6.678,0,0,0,6.636,5.693h10.473a4.166,4.166,0,0,1,4.162,4.162v.136A4.166,4.166,0,0,1,2087.792,3192.945Zm-26.236-34.408,3.934,30.487a1.753,1.753,0,0,0,1.734,1.524h20.568a1.767,1.767,0,0,0,1.766-1.765v-.136a1.767,1.767,0,0,0-1.766-1.765h-10.473a9.061,9.061,0,0,1-9-7.725l-3.249-21.122a1.723,1.723,0,0,0-1.713-1.469,1.763,1.763,0,0,0-1.375.594,1.726,1.726,0,0,0-.421,1.378Z" transform="translate(-2059.145 -3154.169)" fill="#37474f"/>
          </g>
          <g id="Grupo_26133" data-name="Grupo 26133" transform="translate(15.786 68.354)">
            <path id="Trazado_66898" data-name="Trazado 66898" d="M2138.6,3361.257a1.2,1.2,0,0,1-1.2-1.2v-19.332a1.2,1.2,0,1,1,2.4,0v19.332A1.2,1.2,0,0,1,2138.6,3361.257Z" transform="translate(-2137.405 -3339.528)" fill="#37474f"/>
          </g>
          <g id="Grupo_26134" data-name="Grupo 26134" transform="translate(5.966 24.97)">
            <path id="Trazado_66899" data-name="Trazado 66899" d="M2109.674,3146.908a1.2,1.2,0,0,1-1.177-.98l-2.436-13.144a7.255,7.255,0,0,0-7.133-5.932,8.216,8.216,0,0,0-6.266,2.822,6.5,6.5,0,0,0-1.43,5.475,1.2,1.2,0,1,1-2.359.422,8.945,8.945,0,0,1,1.951-7.435,10.641,10.641,0,0,1,8.1-3.68,9.652,9.652,0,0,1,9.489,7.892l2.436,13.144a1.2,1.2,0,0,1-.96,1.4A1.251,1.251,0,0,1,2109.674,3146.908Z" transform="translate(-2088.723 -3124.454)" fill="#37474f"/>
          </g>
          <g id="Grupo_26135" data-name="Grupo 26135" transform="translate(27.913 51.175)">
            <path id="Trazado_66900" data-name="Trazado 66900" d="M2215.031,3290.939a6.328,6.328,0,0,1-6.276-5.352l-2.912-18.206a.611.611,0,0,0-.606-.517h-6.517a1.2,1.2,0,1,1,0-2.4h6.517a3,3,0,0,1,2.973,2.535l2.912,18.206a3.959,3.959,0,0,0,7.822-1.235l-3.567-22.892a5.084,5.084,0,0,0-5.049-4.323h-4.059a1.2,1.2,0,0,1,0-2.4h4.059a7.468,7.468,0,0,1,7.417,6.35l3.567,22.892a6.356,6.356,0,0,1-6.28,7.334Z" transform="translate(-2197.521 -3254.363)" fill="#37474f"/>
          </g>
          <g id="Grupo_26136" data-name="Grupo 26136" transform="translate(11.436 32.238)">
            <path id="Trazado_66901" data-name="Trazado 66901" d="M2137.557,3183.838h-13.54a5.667,5.667,0,0,1-5.537-4.527l-2.617-13.178a1.2,1.2,0,1,1,2.351-.467l2.616,13.173a3.262,3.262,0,0,0,3.188,2.6h13.54a2.844,2.844,0,1,0,0-5.688h-11.116a1.2,1.2,0,0,1-1.173-.954l-2.68-12.873a1.2,1.2,0,1,1,2.346-.488l2.481,11.919h10.141a5.24,5.24,0,1,1,0,10.481Z" transform="translate(-2115.84 -3160.484)" fill="#37474f"/>
          </g>
          <g id="Grupo_26137" data-name="Grupo 26137" transform="translate(3.012 0)">
            <circle id="Elipse_2805" data-name="Elipse 2805" cx="9.095" cy="9.095" r="9.095" transform="translate(0 17.703) rotate(-76.717)" fill="#fff"/>
            <path id="Trazado_66902" data-name="Trazado 66902" d="M2087.581,3024.463a10.293,10.293,0,1,1,10.293-10.293A10.305,10.305,0,0,1,2087.581,3024.463Zm0-18.189a7.9,7.9,0,1,0,7.9,7.9A7.905,7.905,0,0,0,2087.581,3006.274Z" transform="translate(-2076.64 -3003.229)" fill="#37474f"/>
          </g>
        </g>
        <g id="Grupo_26145" data-name="Grupo 26145" transform="translate(73.023 35.513)">
          <g id="Grupo_26139" data-name="Grupo 26139" transform="translate(18.97 30.457)">
            <path id="Trazado_66903" data-name="Trazado 66903" d="M2551.524,3163.432l-3.934,30.487a2.946,2.946,0,0,1-2.922,2.569H2524.1a2.963,2.963,0,0,1-2.964-2.963v-.136a2.964,2.964,0,0,1,2.964-2.963h10.473a7.912,7.912,0,0,0,7.82-6.709l3.249-21.122a2.932,2.932,0,0,1,2.9-2.485h.063A2.946,2.946,0,0,1,2551.524,3163.432Z" transform="translate(-2519.938 -3158.911)" fill="#48b1e2"/>
            <path id="Trazado_66904" data-name="Trazado 66904" d="M2539.926,3192.945h-20.568a4.167,4.167,0,0,1-4.162-4.162v-.136a4.167,4.167,0,0,1,4.162-4.162h10.473a6.677,6.677,0,0,0,6.635-5.693l3.25-21.122a4.107,4.107,0,0,1,4.081-3.5,4.144,4.144,0,0,1,4.173,4.675l-3.934,30.487A4.154,4.154,0,0,1,2539.926,3192.945Zm-20.568-6.063a1.767,1.767,0,0,0-1.766,1.765v.136a1.767,1.767,0,0,0,1.766,1.765h20.568a1.752,1.752,0,0,0,1.733-1.524l3.934-30.487a1.773,1.773,0,0,0-3.509-.5l-3.25,21.122a9.061,9.061,0,0,1-9,7.725Z" transform="translate(-2515.195 -3154.169)" fill="#37474f"/>
          </g>
          <g id="Grupo_26140" data-name="Grupo 26140" transform="translate(33.596 67.847)">
            <path id="Trazado_66905" data-name="Trazado 66905" d="M2588.9,3361.257a1.2,1.2,0,0,1-1.2-1.2v-19.332a1.2,1.2,0,1,1,2.4,0v19.332A1.2,1.2,0,0,1,2588.9,3361.257Z" transform="translate(-2587.703 -3339.528)" fill="#37474f"/>
          </g>
          <g id="Grupo_26141" data-name="Grupo 26141" transform="translate(23.661 24.463)">
            <path id="Trazado_66906" data-name="Trazado 66906" d="M2539.65,3146.908a1.255,1.255,0,0,1-.22-.02,1.2,1.2,0,0,1-.96-1.4l2.436-13.144a9.652,9.652,0,0,1,9.489-7.892,10.638,10.638,0,0,1,8.1,3.681,8.945,8.945,0,0,1,1.952,7.435,1.2,1.2,0,1,1-2.359-.422,6.5,6.5,0,0,0-1.43-5.475,8.218,8.218,0,0,0-6.267-2.822,7.255,7.255,0,0,0-7.133,5.932l-2.436,13.144A1.2,1.2,0,0,1,2539.65,3146.908Z" transform="translate(-2538.45 -3124.454)" fill="#37474f"/>
          </g>
          <g id="Grupo_26142" data-name="Grupo 26142" transform="translate(0 50.668)">
            <path id="Trazado_66907" data-name="Trazado 66907" d="M2427.509,3290.939a6.355,6.355,0,0,1-6.28-7.334l3.567-22.892a7.469,7.469,0,0,1,7.417-6.35h4.058a1.2,1.2,0,1,1,0,2.4h-4.058a5.084,5.084,0,0,0-5.049,4.323l-3.567,22.892a3.96,3.96,0,0,0,7.822,1.235l2.912-18.206a3,3,0,0,1,2.973-2.535h6.517a1.2,1.2,0,1,1,0,2.4H2437.3a.612.612,0,0,0-.606.517l-2.912,18.206A6.329,6.329,0,0,1,2427.509,3290.939Z" transform="translate(-2421.153 -3254.363)" fill="#37474f"/>
          </g>
          <g id="Grupo_26143" data-name="Grupo 26143" transform="translate(13.385 31.731)">
            <path id="Trazado_66908" data-name="Trazado 66908" d="M2506.289,3183.838h-13.54a5.24,5.24,0,1,1,0-10.481h10.141l2.481-11.919a1.2,1.2,0,0,1,2.346.489l-2.68,12.873a1.2,1.2,0,0,1-1.173.954H2492.75a2.844,2.844,0,1,0,0,5.688h13.54a3.263,3.263,0,0,0,3.188-2.607l2.615-13.168a1.2,1.2,0,0,1,2.351.467l-2.616,13.173A5.669,5.669,0,0,1,2506.289,3183.838Z" transform="translate(-2487.509 -3160.484)" fill="#37474f"/>
          </g>
          <g id="Grupo_26144" data-name="Grupo 26144" transform="translate(27.391 0)">
            <circle id="Elipse_2806" data-name="Elipse 2806" cx="9.095" cy="9.095" r="9.095" transform="translate(0 2.914) rotate(-9.217)" fill="#fff"/>
            <path id="Trazado_66909" data-name="Trazado 66909" d="M2567.938,3024.463a10.293,10.293,0,1,1,10.293-10.293A10.3,10.3,0,0,1,2567.938,3024.463Zm0-18.189a7.9,7.9,0,1,0,7.9,7.9A7.906,7.906,0,0,0,2567.938,3006.274Z" transform="translate(-2557.504 -3003.736)" fill="#37474f"/>
          </g>
        </g>
        <g id="Grupo_26148" data-name="Grupo 26148" transform="translate(27.54)">
          <g id="Grupo_26146" data-name="Grupo 26146" transform="translate(22.112 23.088)">
            <path id="Trazado_66910" data-name="Trazado 66910" d="M2311.235,2956.518v14.234a8.84,8.84,0,0,0,8.839,8.84h25.846c.253,0,.5-.017.75-.038l8.509,10.257-.424-18.972c0-.029,0-.057,0-.087V2956.36a8.84,8.84,0,0,0-8.84-8.84h-13.15Z" transform="translate(-2310.037 -2946.322)" fill="#fff"/>
            <path id="Trazado_66911" data-name="Trazado 66911" d="M2350.438,2986.267a1.2,1.2,0,0,1-.922-.433l-8.121-9.789q-.108,0-.216,0h-25.846a10.049,10.049,0,0,1-10.038-10.038v-14.234a1.2,1.2,0,0,1,2.4,0v14.234a7.65,7.65,0,0,0,7.641,7.641h25.846c.22,0,.435-.015.65-.033a1.2,1.2,0,0,1,1.022.429l6.312,7.608-.347-15.532c0-.038,0-.119.005-.157v-14.349a7.65,7.65,0,0,0-7.641-7.641h-13.15a1.2,1.2,0,0,1,0-2.4h13.15a10.049,10.049,0,0,1,10.038,10.038v14.392c0,.03,0,.1-.005.133l.425,18.9a1.2,1.2,0,0,1-1.2,1.225Z" transform="translate(-2305.295 -2941.58)" fill="#37474f"/>
          </g>
          <g id="Grupo_26147" data-name="Grupo 26147">
            <path id="Trazado_66912" data-name="Trazado 66912" d="M2201.614,2875.666l.109-19.286c0-.029,0-.057,0-.087V2841.9a8.84,8.84,0,0,1,8.84-8.839H2236.4a8.84,8.84,0,0,1,8.839,8.839v14.393a8.84,8.84,0,0,1-8.839,8.839h-25.846c-.254,0-.5-.017-.75-.038Z" transform="translate(-2200.416 -2831.863)" fill="#fff"/>
            <path id="Trazado_66913" data-name="Trazado 66913" d="M2196.872,2872.123a1.2,1.2,0,0,1-1.2-1.205l.109-19.287a.356.356,0,0,1,0-.08v-14.393a10.049,10.049,0,0,1,10.038-10.038h25.846a10.049,10.049,0,0,1,10.038,10.038v14.393a10.049,10.049,0,0,1-10.038,10.038h-25.846l-.19,0-7.807,10.072A1.2,1.2,0,0,1,2196.872,2872.123Zm8.944-42.605a7.65,7.65,0,0,0-7.641,7.641l0,14.469-.089,15.769,6.029-7.778a1.2,1.2,0,0,1,1.048-.46c.214.018.43.034.65.034h25.846a7.65,7.65,0,0,0,7.642-7.641v-14.393a7.65,7.65,0,0,0-7.642-7.641Z" transform="translate(-2195.673 -2827.121)" fill="#37474f"/>
          </g>
        </g>
        <g id="Grupo_26151" data-name="Grupo 26151" transform="translate(37.152 10.466)">
          <g id="Grupo_26149" data-name="Grupo 26149">
            <path id="Trazado_66914" data-name="Trazado 66914" d="M2269.5,2881.4h-24.973a1.2,1.2,0,0,1,0-2.4H2269.5a1.2,1.2,0,0,1,0,2.4Z" transform="translate(-2243.324 -2879.004)" fill="#37474f"/>
          </g>
          <g id="Grupo_26150" data-name="Grupo 26150" transform="translate(0 11.336)">
            <path id="Trazado_66915" data-name="Trazado 66915" d="M2269.5,2937.6h-24.973a1.2,1.2,0,0,1,0-2.4H2269.5a1.2,1.2,0,0,1,0,2.4Z" transform="translate(-2243.324 -2935.2)" fill="#37474f"/>
          </g>
        </g>
        <g id="Grupo_26152" data-name="Grupo 26152" transform="translate(63.035 31.845)">
          <path id="Trazado_66916" data-name="Trazado 66916" d="M2381.6,3003.377a1.2,1.2,0,0,1-.887-.392l-8.768-9.649a1.2,1.2,0,1,1,1.773-1.612l7.737,8.514,9.835-14.713a1.2,1.2,0,0,1,1.992,1.332l-10.687,15.988a1.2,1.2,0,0,1-.908.529C2381.664,3003.376,2381.634,3003.377,2381.6,3003.377Z" transform="translate(-2371.638 -2984.993)" fill="#37474f"/>
        </g>
      </g>
    </g>
  </g>
</svg>
