<svg xmlns="http://www.w3.org/2000/svg" xmlns:xlink="http://www.w3.org/1999/xlink" width="595" height="247" viewBox="0 0 595 247">
  <defs>
    <filter id="Trazado_69028" x="0" y="0" width="595" height="247" filterUnits="userSpaceOnUse">
      <feOffset dy="3" input="SourceAlpha"/>
      <feGaussianBlur stdDeviation="3" result="blur"/>
      <feFlood flood-opacity="0.161"/>
      <feComposite operator="in" in2="blur"/>
      <feComposite in="SourceGraphic"/>
    </filter>
  </defs>
  <g id="Grupo_28558" data-name="Grupo 28558" transform="translate(1600 -1872)">
    <g transform="matrix(1, 0, 0, 1, -1600, 1872)" filter="url(#Trazado_69028)">
      <path id="Trazado_69028-2" data-name="Trazado 69028" d="M24,0H553a24,24,0,0,1,24,24V205a24,24,0,0,1-24,24H24A24,24,0,0,1,0,205V24A24,24,0,0,1,24,0Z" transform="translate(9 6)" fill="#fffdfa"/>
    </g>
    <path id="Trazado_69029" data-name="Trazado 69029" d="M20.094,6.058H15.066v4.052H19.5v1.415h-4.43v4.043h5.027V17H13.458V4.625h6.636ZM22.713,17V3.5h1.538V17Zm12.041.167a4.1,4.1,0,0,1-2.329-.624,2.581,2.581,0,0,1-1.134-1.775l1.327-.378a1.851,1.851,0,0,0,.708,1.2,2.3,2.3,0,0,0,1.419.426,2.832,2.832,0,0,0,.831-.114,1.331,1.331,0,0,0,.637-.426,1.189,1.189,0,0,0,.185-1.143,1.526,1.526,0,0,0-.141-.286.87.87,0,0,0-.246-.237,3.245,3.245,0,0,0-.3-.185,3.067,3.067,0,0,0-.391-.163q-.259-.092-.417-.141t-.483-.141q-.325-.092-.5-.145a9.372,9.372,0,0,1-.9-.316,3.932,3.932,0,0,1-.729-.417,1.679,1.679,0,0,1-.567-.681,2.3,2.3,0,0,1-.189-.967,2.234,2.234,0,0,1,.422-1.38,2.374,2.374,0,0,1,1.094-.813,4.374,4.374,0,0,1,1.534-.25,3.754,3.754,0,0,1,2.1.563,2.4,2.4,0,0,1,1.05,1.688l-1.248.316a1.655,1.655,0,0,0-.659-1.094A2.1,2.1,0,0,0,34.6,9.318a2.139,2.139,0,0,0-1.16.3,1.019,1.019,0,0,0-.483.927.923.923,0,0,0,.127.479,1.521,1.521,0,0,0,.259.338,1.594,1.594,0,0,0,.475.259q.343.136.51.185t.633.163q.088.026.132.035.51.132.831.233a5.105,5.105,0,0,1,.747.316,2.484,2.484,0,0,1,.672.47,2.178,2.178,0,0,1,.422.668,2.358,2.358,0,0,1,.176.932,2.516,2.516,0,0,1-.259,1.165,2.028,2.028,0,0,1-.708.8,3.422,3.422,0,0,1-1.006.435A4.8,4.8,0,0,1,34.754,17.167ZM41.1,6.33A1.035,1.035,0,0,1,40.071,5.3a.975.975,0,0,1,.3-.721,1,1,0,0,1,.725-.3.987.987,0,0,1,.716.3.975.975,0,0,1,.3.721.989.989,0,0,1-.3.725A.979.979,0,0,1,41.1,6.33ZM40.326,17V8.36h1.529V17ZM51.207,8.36h1.477v8.2a4.706,4.706,0,0,1-1.116,3.366A4.058,4.058,0,0,1,48.474,21.1a4.084,4.084,0,0,1-4.192-2.646l1.257-.615a2.856,2.856,0,0,0,2.892,2A2.48,2.48,0,0,0,50.456,19a3.591,3.591,0,0,0,.7-2.355v-1.6a3.045,3.045,0,0,1-1.23,1.244,3.58,3.58,0,0,1-1.8.47,3.7,3.7,0,0,1-2.795-1.217,4.293,4.293,0,0,1-1.151-3.072A4.253,4.253,0,0,1,45.332,9.4,3.74,3.74,0,0,1,48.14,8.193a3.49,3.49,0,0,1,1.811.483,3.112,3.112,0,0,1,1.222,1.274Zm-2.742,7.1a2.614,2.614,0,0,0,1.991-.888,3.136,3.136,0,0,0,0-4.228,2.708,2.708,0,0,0-3.986-.026,3,3,0,0,0-.813,2.145,2.978,2.978,0,0,0,.822,2.131A2.634,2.634,0,0,0,48.465,15.462Zm12.691-7.1h1.521V17H61.218l-.035-1.143a2.7,2.7,0,0,1-1.072.971,3.3,3.3,0,0,1-1.512.338,3.005,3.005,0,0,1-2.175-.782,2.918,2.918,0,0,1-.813-2.206V8.36h1.521v5.476a2.05,2.05,0,0,0,.532,1.547,1.882,1.882,0,0,0,1.358.51,2.067,2.067,0,0,0,1.534-.6,2.434,2.434,0,0,0,.6-1.767Zm5.388-2.03A1.035,1.035,0,0,1,65.516,5.3a.975.975,0,0,1,.3-.721,1,1,0,0,1,.725-.3.987.987,0,0,1,.716.3.975.975,0,0,1,.3.721.989.989,0,0,1-.3.725A.979.979,0,0,1,66.544,6.33ZM65.771,17V8.36H67.3V17Zm12.182-4.491-.018.413h-6.75a3.053,3.053,0,0,0,.826,2.21,2.713,2.713,0,0,0,1.969.769,2.59,2.59,0,0,0,1.433-.413,2.68,2.68,0,0,0,.984-1.143l1.371.29a3.9,3.9,0,0,1-1.477,1.854A4.028,4.028,0,0,1,74,17.167a4.174,4.174,0,0,1-3.111-1.2A4.479,4.479,0,0,1,69.7,12.676,4.458,4.458,0,0,1,70.89,9.4a4.122,4.122,0,0,1,3.063-1.2,3.9,3.9,0,0,1,2.9,1.107A4.376,4.376,0,0,1,77.952,12.509Zm-4-3.146a2.694,2.694,0,0,0-1.8.611,2.8,2.8,0,0,0-.91,1.78h5.177a2.567,2.567,0,0,0-.756-1.78A2.441,2.441,0,0,0,73.953,9.362ZM84.412,8.193a3.005,3.005,0,0,1,2.175.782,2.918,2.918,0,0,1,.813,2.206V17H85.88V11.524a2.043,2.043,0,0,0-.527-1.547A1.885,1.885,0,0,0,84,9.477a2.09,2.09,0,0,0-1.538.593,2.407,2.407,0,0,0-.606,1.762V17H80.334V8.36h1.521V9.468A2.885,2.885,0,0,1,84.412,8.193ZM93.1,17a2.271,2.271,0,0,1-1.687-.62,2.344,2.344,0,0,1-.615-1.727V9.573H89.026V8.36h.65a1.249,1.249,0,0,0,.954-.3,1.492,1.492,0,0,0,.277-1.015V5.478h1.415V8.36h1.986V9.573H92.322V14.5a1.31,1.31,0,0,0,.33.954,1.154,1.154,0,0,0,.866.338h.791V17Zm10.863-4.491-.018.413h-6.75a3.053,3.053,0,0,0,.826,2.21,2.713,2.713,0,0,0,1.969.769,2.59,2.59,0,0,0,1.433-.413,2.68,2.68,0,0,0,.984-1.143l1.371.29A3.9,3.9,0,0,1,102.3,16.49a4.028,4.028,0,0,1-2.294.677,4.174,4.174,0,0,1-3.111-1.2,4.479,4.479,0,0,1-1.187-3.287A4.458,4.458,0,0,1,96.9,9.4a4.122,4.122,0,0,1,3.063-1.2,3.9,3.9,0,0,1,2.9,1.107A4.376,4.376,0,0,1,103.959,12.509Zm-4-3.146a2.694,2.694,0,0,0-1.8.611,2.8,2.8,0,0,0-.91,1.78h5.177a2.567,2.567,0,0,0-.756-1.78A2.441,2.441,0,0,0,99.96,9.362ZM117.4,3.5h1.521V17H117.45l-.035-1.679a3.179,3.179,0,0,1-1.23,1.362,3.429,3.429,0,0,1-1.828.5,3.926,3.926,0,0,1-2.852-1.217,4.16,4.16,0,0,1-.87-1.428,5.225,5.225,0,0,1-.321-1.854,4.543,4.543,0,0,1,1.173-3.243,3.788,3.788,0,0,1,2.87-1.248,3.443,3.443,0,0,1,1.806.488A3.2,3.2,0,0,1,117.4,10Zm-2.725,12.366a2.587,2.587,0,0,0,2.008-.91,3.283,3.283,0,0,0,.813-2.272,3.277,3.277,0,0,0-.817-2.268,2.586,2.586,0,0,0-2-.914,2.644,2.644,0,0,0-2.021.883,3.25,3.25,0,0,0-.817,2.3,3.25,3.25,0,0,0,.817,2.3A2.644,2.644,0,0,0,114.673,15.866Zm8.112-9.536A1.035,1.035,0,0,1,121.757,5.3a.975.975,0,0,1,.3-.721,1,1,0,0,1,.725-.3.987.987,0,0,1,.716.3.975.975,0,0,1,.3.721.989.989,0,0,1-.3.725A.979.979,0,0,1,122.785,6.33ZM122.012,17V8.36h1.529V17Zm6.618.167a2.94,2.94,0,0,1-1.894-.593,2.13,2.13,0,0,1-.743-1.771,2.517,2.517,0,0,1,.237-1.129,1.991,1.991,0,0,1,.7-.787,4.218,4.218,0,0,1,1.015-.488,9.384,9.384,0,0,1,1.314-.312l1.4-.229q.765-.141.765-.8a1.51,1.51,0,0,0-.541-1.288,2.2,2.2,0,0,0-1.367-.409,2.243,2.243,0,0,0-1.354.4,1.655,1.655,0,0,0-.642,1.213l-1.371-.29a2.639,2.639,0,0,1,1.081-1.85,4.039,4.039,0,0,1,2.355-.62,4.777,4.777,0,0,1,1.252.154,3.4,3.4,0,0,1,1.046.483,2.168,2.168,0,0,1,.747.932A3.466,3.466,0,0,1,132.9,11.2v3.568a1.46,1.46,0,0,0,.2.9.854.854,0,0,0,.681.233h.141V17h-.756a1.442,1.442,0,0,1-1.635-1.169h-.07A3.3,3.3,0,0,1,128.63,17.167Zm.352-1.23a2.305,2.305,0,0,0,1.854-.835,3.438,3.438,0,0,0,.7-2.285l-2.285.439a3.076,3.076,0,0,0-1.34.479,1.114,1.114,0,0,0-.435.945,1.1,1.1,0,0,0,.417.949A1.785,1.785,0,0,0,128.981,15.937ZM142.147,8.36h1.477v8.2a4.706,4.706,0,0,1-1.116,3.366,4.648,4.648,0,0,1-7.286-1.468l1.257-.615a2.856,2.856,0,0,0,2.892,2A2.48,2.48,0,0,0,141.4,19a3.591,3.591,0,0,0,.7-2.355v-1.6a3.045,3.045,0,0,1-1.23,1.244,3.58,3.58,0,0,1-1.8.47,3.7,3.7,0,0,1-2.795-1.217,4.293,4.293,0,0,1-1.151-3.072A4.253,4.253,0,0,1,136.272,9.4a3.74,3.74,0,0,1,2.808-1.208,3.49,3.49,0,0,1,1.811.483,3.112,3.112,0,0,1,1.222,1.274Zm-2.742,7.1a2.614,2.614,0,0,0,1.991-.888,3.136,3.136,0,0,0,0-4.228,2.708,2.708,0,0,0-3.986-.026,3,3,0,0,0-.813,2.145,2.978,2.978,0,0,0,.822,2.131A2.634,2.634,0,0,0,139.405,15.462Zm8.8-5.581a2.612,2.612,0,0,1,1.072-1.16,3.229,3.229,0,0,1,1.661-.457V9.7a2.846,2.846,0,0,0-2.008.642,2.68,2.68,0,0,0-.69,2.048V17h-1.521V8.36H148.2Zm6.407,7.286a2.94,2.94,0,0,1-1.894-.593,2.13,2.13,0,0,1-.743-1.771,2.517,2.517,0,0,1,.237-1.129,1.991,1.991,0,0,1,.7-.787,4.218,4.218,0,0,1,1.015-.488,9.384,9.384,0,0,1,1.314-.312l1.4-.229q.765-.141.765-.8a1.51,1.51,0,0,0-.541-1.288,2.2,2.2,0,0,0-1.367-.409,2.243,2.243,0,0,0-1.354.4,1.655,1.655,0,0,0-.642,1.213l-1.371-.29a2.639,2.639,0,0,1,1.081-1.85,4.039,4.039,0,0,1,2.355-.62,4.777,4.777,0,0,1,1.252.154,3.4,3.4,0,0,1,1.046.483,2.168,2.168,0,0,1,.747.932,3.466,3.466,0,0,1,.268,1.419v3.568a1.46,1.46,0,0,0,.2.9.854.854,0,0,0,.681.233h.141V17h-.756a1.442,1.442,0,0,1-1.635-1.169h-.07A3.3,3.3,0,0,1,154.61,17.167Zm.352-1.23a2.305,2.305,0,0,0,1.854-.835,3.438,3.438,0,0,0,.7-2.285l-2.285.439a3.076,3.076,0,0,0-1.34.479,1.114,1.114,0,0,0-.435.945,1.1,1.1,0,0,0,.417.949A1.785,1.785,0,0,0,154.962,15.937Zm15.917-7.743a2.785,2.785,0,0,1,2.013.734,2.722,2.722,0,0,1,.765,2.061V17h-1.521V11.384a1.952,1.952,0,0,0-.475-1.424,1.616,1.616,0,0,0-1.2-.483,1.706,1.706,0,0,0-1.318.545,2.343,2.343,0,0,0-.5,1.635V17h-1.547V11.445a2.042,2.042,0,0,0-.479-1.472,1.629,1.629,0,0,0-1.226-.5,1.69,1.69,0,0,0-1.314.558,2.424,2.424,0,0,0-.505,1.674V17h-1.521V8.36h1.521V9.477a2.625,2.625,0,0,1,.989-.949,2.82,2.82,0,0,1,1.375-.334,2.935,2.935,0,0,1,1.477.365,2.271,2.271,0,0,1,.958,1.05,2.689,2.689,0,0,1,1.037-1.05A2.966,2.966,0,0,1,170.879,8.193Zm7.717,8.974a2.94,2.94,0,0,1-1.894-.593,2.13,2.13,0,0,1-.743-1.771,2.517,2.517,0,0,1,.237-1.129,1.991,1.991,0,0,1,.7-.787,4.218,4.218,0,0,1,1.015-.488,9.384,9.384,0,0,1,1.314-.312l1.4-.229q.765-.141.765-.8a1.51,1.51,0,0,0-.541-1.288,2.2,2.2,0,0,0-1.367-.409,2.243,2.243,0,0,0-1.354.4,1.655,1.655,0,0,0-.642,1.213l-1.371-.29a2.639,2.639,0,0,1,1.081-1.85,4.039,4.039,0,0,1,2.355-.62,4.777,4.777,0,0,1,1.252.154,3.4,3.4,0,0,1,1.046.483,2.168,2.168,0,0,1,.747.932,3.466,3.466,0,0,1,.268,1.419v3.568a1.46,1.46,0,0,0,.2.9.854.854,0,0,0,.681.233h.141V17h-.756a1.442,1.442,0,0,1-1.635-1.169h-.07A3.3,3.3,0,0,1,178.6,17.167Zm.352-1.23A2.305,2.305,0,0,0,180.8,15.1a3.438,3.438,0,0,0,.7-2.285l-2.285.439a3.076,3.076,0,0,0-1.34.479,1.114,1.114,0,0,0-.435.945,1.1,1.1,0,0,0,.417.949A1.785,1.785,0,0,0,178.947,15.937ZM18.085,25.5h1.521V39H18.138L18.1,37.321a3.179,3.179,0,0,1-1.23,1.362,3.429,3.429,0,0,1-1.828.5,3.926,3.926,0,0,1-2.852-1.217,4.16,4.16,0,0,1-.87-1.428A5.225,5.225,0,0,1,11,34.685a4.543,4.543,0,0,1,1.173-3.243,3.788,3.788,0,0,1,2.87-1.248,3.443,3.443,0,0,1,1.806.488A3.2,3.2,0,0,1,18.085,32ZM15.361,37.866a2.587,2.587,0,0,0,2.008-.91,3.568,3.568,0,0,0,0-4.54,2.586,2.586,0,0,0-2-.914,2.644,2.644,0,0,0-2.021.883,3.64,3.64,0,0,0,0,4.6A2.644,2.644,0,0,0,15.361,37.866Zm14.9-3.357-.018.413h-6.75a3.053,3.053,0,0,0,.826,2.21,2.713,2.713,0,0,0,1.969.769,2.59,2.59,0,0,0,1.433-.413,2.68,2.68,0,0,0,.984-1.143l1.371.29A3.9,3.9,0,0,1,28.6,38.49a4.028,4.028,0,0,1-2.294.677,4.174,4.174,0,0,1-3.111-1.2,4.479,4.479,0,0,1-1.187-3.287A4.458,4.458,0,0,1,23.2,31.4a4.122,4.122,0,0,1,3.063-1.2,3.9,3.9,0,0,1,2.9,1.107A4.376,4.376,0,0,1,30.258,34.509Zm-4-3.146a2.694,2.694,0,0,0-1.8.611,2.8,2.8,0,0,0-.91,1.78h5.177a2.567,2.567,0,0,0-.756-1.78A2.441,2.441,0,0,0,26.259,31.362Zm9.114,7.8a4.1,4.1,0,0,1-2.329-.624,2.581,2.581,0,0,1-1.134-1.775l1.327-.378a1.851,1.851,0,0,0,.708,1.2,2.3,2.3,0,0,0,1.419.426A2.832,2.832,0,0,0,36.2,37.9a1.331,1.331,0,0,0,.637-.426,1.189,1.189,0,0,0,.185-1.143,1.526,1.526,0,0,0-.141-.286.87.87,0,0,0-.246-.237,3.245,3.245,0,0,0-.3-.185,3.067,3.067,0,0,0-.391-.163q-.259-.092-.417-.141t-.483-.141q-.325-.092-.5-.145a9.372,9.372,0,0,1-.9-.316,3.932,3.932,0,0,1-.729-.417,1.679,1.679,0,0,1-.567-.681,2.3,2.3,0,0,1-.189-.967,2.234,2.234,0,0,1,.422-1.38,2.374,2.374,0,0,1,1.094-.813,4.374,4.374,0,0,1,1.534-.25,3.754,3.754,0,0,1,2.1.563,2.4,2.4,0,0,1,1.05,1.688l-1.248.316a1.655,1.655,0,0,0-.659-1.094,2.1,2.1,0,0,0-1.239-.365,2.139,2.139,0,0,0-1.16.3,1.019,1.019,0,0,0-.483.927.923.923,0,0,0,.127.479,1.521,1.521,0,0,0,.259.338,1.594,1.594,0,0,0,.475.259q.343.136.51.185t.633.163q.088.026.132.035.51.132.831.233a5.105,5.105,0,0,1,.747.316,2.484,2.484,0,0,1,.672.47,2.178,2.178,0,0,1,.422.668,2.358,2.358,0,0,1,.176.932,2.516,2.516,0,0,1-.259,1.165,2.028,2.028,0,0,1-.708.8,3.422,3.422,0,0,1-1.006.435A4.8,4.8,0,0,1,35.374,39.167Zm9.158-.009a4.161,4.161,0,0,1-3.094-1.239,4.421,4.421,0,0,1-1.222-3.243,4.43,4.43,0,0,1,1.217-3.243,4.5,4.5,0,0,1,5.6-.483,3.815,3.815,0,0,1,1.455,2.1l-1.424.229a2.63,2.63,0,0,0-.976-1.345,2.656,2.656,0,0,0-1.564-.475,2.554,2.554,0,0,0-2,.888,3.835,3.835,0,0,0,0,4.654,2.56,2.56,0,0,0,2,.883,2.656,2.656,0,0,0,1.564-.475,2.63,2.63,0,0,0,.976-1.345l1.424.237a3.819,3.819,0,0,1-1.463,2.1A4.185,4.185,0,0,1,44.532,39.158Zm7.682-7.277a2.612,2.612,0,0,1,1.072-1.16,3.229,3.229,0,0,1,1.661-.457V31.7a2.846,2.846,0,0,0-2.008.642,2.68,2.68,0,0,0-.69,2.048V39H50.728V30.36h1.485ZM57.5,28.33A1.035,1.035,0,0,1,56.476,27.3a.975.975,0,0,1,.3-.721,1,1,0,0,1,.725-.3.987.987,0,0,1,.716.3.975.975,0,0,1,.3.721.989.989,0,0,1-.3.725A.979.979,0,0,1,57.5,28.33ZM56.731,39V30.36H58.26V39Zm9.2-8.807a3.764,3.764,0,0,1,2.856,1.248,4.553,4.553,0,0,1,1.169,3.243,4.586,4.586,0,0,1-1.16,3.252,3.756,3.756,0,0,1-2.865,1.248,3.467,3.467,0,0,1-1.841-.5,3.171,3.171,0,0,1-1.235-1.362L62.822,39H61.354V25.5h1.512l.009,6.513a3.184,3.184,0,0,1,1.235-1.332A3.476,3.476,0,0,1,65.933,30.193ZM65.6,37.866a2.644,2.644,0,0,0,2.021-.883,3.64,3.64,0,0,0,0-4.6A2.644,2.644,0,0,0,65.6,31.5a2.586,2.586,0,0,0-2,.914,3.568,3.568,0,0,0,0,4.54A2.587,2.587,0,0,0,65.6,37.866Zm14.309-3.357-.018.413H73.14a3.053,3.053,0,0,0,.826,2.21,2.713,2.713,0,0,0,1.969.769,2.59,2.59,0,0,0,1.433-.413,2.68,2.68,0,0,0,.984-1.143l1.371.29a3.9,3.9,0,0,1-1.477,1.854,4.028,4.028,0,0,1-2.294.677,4.174,4.174,0,0,1-3.111-1.2,4.479,4.479,0,0,1-1.187-3.287A4.458,4.458,0,0,1,72.846,31.4a4.122,4.122,0,0,1,3.063-1.2,3.9,3.9,0,0,1,2.9,1.107A4.376,4.376,0,0,1,79.908,34.509Zm-4-3.146a2.694,2.694,0,0,0-1.8.611,2.8,2.8,0,0,0-.91,1.78h5.177a2.567,2.567,0,0,0-.756-1.78A2.441,2.441,0,0,0,75.909,31.362ZM86.965,39V25.5H88.5V39Zm6.627.167a2.94,2.94,0,0,1-1.894-.593,2.13,2.13,0,0,1-.743-1.771,2.517,2.517,0,0,1,.237-1.129,1.991,1.991,0,0,1,.7-.787,4.218,4.218,0,0,1,1.015-.488,9.384,9.384,0,0,1,1.314-.312l1.4-.229q.765-.141.765-.8a1.51,1.51,0,0,0-.541-1.288,2.2,2.2,0,0,0-1.367-.409,2.243,2.243,0,0,0-1.354.4,1.655,1.655,0,0,0-.642,1.213l-1.371-.29a2.639,2.639,0,0,1,1.081-1.85,4.039,4.039,0,0,1,2.355-.62,4.777,4.777,0,0,1,1.252.154,3.4,3.4,0,0,1,1.046.483,2.168,2.168,0,0,1,.747.932,3.466,3.466,0,0,1,.268,1.419v3.568a1.46,1.46,0,0,0,.2.9.854.854,0,0,0,.681.233h.141V39h-.756a1.442,1.442,0,0,1-1.635-1.169h-.07A3.3,3.3,0,0,1,93.592,39.167Zm.352-1.23A2.305,2.305,0,0,0,95.8,37.1a3.438,3.438,0,0,0,.7-2.285l-2.285.439a3.076,3.076,0,0,0-1.34.479,1.114,1.114,0,0,0-.435.945,1.1,1.1,0,0,0,.417.949A1.785,1.785,0,0,0,93.944,37.937Zm19.318-3.428-.018.413h-6.75a3.053,3.053,0,0,0,.826,2.21,2.713,2.713,0,0,0,1.969.769,2.59,2.59,0,0,0,1.433-.413,2.68,2.68,0,0,0,.984-1.143l1.371.29A3.9,3.9,0,0,1,111.6,38.49a4.028,4.028,0,0,1-2.294.677,4.174,4.174,0,0,1-3.111-1.2,4.479,4.479,0,0,1-1.187-3.287A4.458,4.458,0,0,1,106.2,31.4a4.122,4.122,0,0,1,3.063-1.2,3.9,3.9,0,0,1,2.9,1.107A4.376,4.376,0,0,1,113.262,34.509Zm-4-3.146a2.694,2.694,0,0,0-1.8.611,2.8,2.8,0,0,0-.91,1.78h5.177a2.567,2.567,0,0,0-.756-1.78A2.441,2.441,0,0,0,109.263,31.362Zm9.114,7.8a4.1,4.1,0,0,1-2.329-.624,2.581,2.581,0,0,1-1.134-1.775l1.327-.378a1.851,1.851,0,0,0,.708,1.2,2.3,2.3,0,0,0,1.419.426,2.832,2.832,0,0,0,.831-.114,1.331,1.331,0,0,0,.637-.426,1.189,1.189,0,0,0,.185-1.143,1.526,1.526,0,0,0-.141-.286.87.87,0,0,0-.246-.237,3.245,3.245,0,0,0-.3-.185,3.067,3.067,0,0,0-.391-.163q-.259-.092-.417-.141t-.483-.141q-.325-.092-.5-.145a9.372,9.372,0,0,1-.9-.316,3.932,3.932,0,0,1-.729-.417,1.679,1.679,0,0,1-.567-.681,2.3,2.3,0,0,1-.189-.967,2.234,2.234,0,0,1,.422-1.38,2.374,2.374,0,0,1,1.094-.813,4.374,4.374,0,0,1,1.534-.25,3.754,3.754,0,0,1,2.1.563,2.4,2.4,0,0,1,1.05,1.688l-1.248.316a1.655,1.655,0,0,0-.659-1.094,2.1,2.1,0,0,0-1.239-.365,2.139,2.139,0,0,0-1.16.3,1.019,1.019,0,0,0-.483.927.923.923,0,0,0,.127.479,1.521,1.521,0,0,0,.259.338,1.594,1.594,0,0,0,.475.259q.343.136.51.185t.633.163q.088.026.132.035.51.132.831.233a5.105,5.105,0,0,1,.747.316,2.484,2.484,0,0,1,.672.47,2.178,2.178,0,0,1,.422.668,2.358,2.358,0,0,1,.176.932,2.516,2.516,0,0,1-.259,1.165,2.028,2.028,0,0,1-.708.8,3.422,3.422,0,0,1-1.006.435A4.8,4.8,0,0,1,118.377,39.167ZM126.709,39a2.271,2.271,0,0,1-1.687-.62,2.344,2.344,0,0,1-.615-1.727v-5.08H122.64V30.36h.65a1.249,1.249,0,0,0,.954-.3,1.492,1.492,0,0,0,.277-1.015V27.478h1.415V30.36h1.986v1.213h-1.986V36.5a1.31,1.31,0,0,0,.33.954,1.154,1.154,0,0,0,.866.338h.791V39Zm4.9-7.119a2.612,2.612,0,0,1,1.072-1.16,3.229,3.229,0,0,1,1.661-.457V31.7a2.846,2.846,0,0,0-2.008.642,2.68,2.68,0,0,0-.69,2.048V39H130.12V30.36H131.6Zm9.9-1.521h1.521V39h-1.459l-.035-1.143a2.7,2.7,0,0,1-1.072.971,3.3,3.3,0,0,1-1.512.338,3.005,3.005,0,0,1-2.175-.782,2.918,2.918,0,0,1-.813-2.206V30.36h1.521v5.476a2.05,2.05,0,0,0,.532,1.547,1.882,1.882,0,0,0,1.358.51,2.067,2.067,0,0,0,1.534-.6,2.434,2.434,0,0,0,.6-1.767Zm8.2,8.8a4.161,4.161,0,0,1-3.094-1.239,4.421,4.421,0,0,1-1.222-3.243,4.43,4.43,0,0,1,1.217-3.243,4.5,4.5,0,0,1,5.6-.483,3.815,3.815,0,0,1,1.455,2.1l-1.424.229a2.63,2.63,0,0,0-.976-1.345,2.656,2.656,0,0,0-1.564-.475,2.554,2.554,0,0,0-2,.888,3.835,3.835,0,0,0,0,4.654,2.56,2.56,0,0,0,2,.883,2.656,2.656,0,0,0,1.564-.475,2.63,2.63,0,0,0,.976-1.345l1.424.237a3.819,3.819,0,0,1-1.463,2.1A4.185,4.185,0,0,1,149.7,39.158ZM158.658,39a2.271,2.271,0,0,1-1.687-.62,2.344,2.344,0,0,1-.615-1.727v-5.08h-1.767V30.36h.65a1.249,1.249,0,0,0,.954-.3,1.492,1.492,0,0,0,.277-1.015V27.478h1.415V30.36h1.986v1.213h-1.986V36.5a1.31,1.31,0,0,0,.33.954,1.154,1.154,0,0,0,.866.338h.791V39Zm8.789-8.64h1.521V39h-1.459l-.035-1.143a2.7,2.7,0,0,1-1.072.971,3.3,3.3,0,0,1-1.512.338,3.005,3.005,0,0,1-2.175-.782,2.918,2.918,0,0,1-.813-2.206V30.36h1.521v5.476a2.05,2.05,0,0,0,.532,1.547,1.882,1.882,0,0,0,1.358.51,2.067,2.067,0,0,0,1.534-.6,2.434,2.434,0,0,0,.6-1.767Zm6.1,1.521a2.612,2.612,0,0,1,1.072-1.16,3.229,3.229,0,0,1,1.661-.457V31.7a2.846,2.846,0,0,0-2.008.642,2.68,2.68,0,0,0-.69,2.048V39h-1.521V30.36h1.485Zm6.407,7.286a2.94,2.94,0,0,1-1.894-.593,2.13,2.13,0,0,1-.743-1.771,2.517,2.517,0,0,1,.237-1.129,1.991,1.991,0,0,1,.7-.787,4.218,4.218,0,0,1,1.015-.488,9.384,9.384,0,0,1,1.314-.312l1.4-.229q.765-.141.765-.8a1.51,1.51,0,0,0-.541-1.288,2.2,2.2,0,0,0-1.367-.409,2.243,2.243,0,0,0-1.354.4,1.655,1.655,0,0,0-.642,1.213l-1.371-.29a2.639,2.639,0,0,1,1.081-1.85,4.039,4.039,0,0,1,2.355-.62,4.777,4.777,0,0,1,1.252.154,3.4,3.4,0,0,1,1.046.483,2.168,2.168,0,0,1,.747.932,3.466,3.466,0,0,1,.268,1.419v3.568a1.46,1.46,0,0,0,.2.9.854.854,0,0,0,.681.233h.141V39h-.756a1.442,1.442,0,0,1-1.635-1.169h-.07A3.3,3.3,0,0,1,179.954,39.167Zm.352-1.23a2.305,2.305,0,0,0,1.854-.835,3.438,3.438,0,0,0,.7-2.285l-2.285.439a3.076,3.076,0,0,0-1.34.479,1.114,1.114,0,0,0-.435.945,1.1,1.1,0,0,0,.417.949A1.785,1.785,0,0,0,180.305,37.937ZM44.461,47.5h1.521V61H44.514l-.035-1.679a3.179,3.179,0,0,1-1.23,1.362,3.429,3.429,0,0,1-1.828.5,3.926,3.926,0,0,1-2.852-1.217,4.16,4.16,0,0,1-.87-1.428,5.225,5.225,0,0,1-.321-1.854,4.543,4.543,0,0,1,1.173-3.243,3.788,3.788,0,0,1,2.87-1.248,3.443,3.443,0,0,1,1.806.488A3.2,3.2,0,0,1,44.461,54ZM41.737,59.866a2.587,2.587,0,0,0,2.008-.91,3.568,3.568,0,0,0,0-4.54,2.586,2.586,0,0,0-2-.914,2.644,2.644,0,0,0-2.021.883,3.64,3.64,0,0,0,0,4.6A2.644,2.644,0,0,0,41.737,59.866Zm14.9-3.357-.018.413h-6.75a3.053,3.053,0,0,0,.826,2.21,2.713,2.713,0,0,0,1.969.769,2.59,2.59,0,0,0,1.433-.413,2.68,2.68,0,0,0,.984-1.143l1.371.29a3.9,3.9,0,0,1-1.477,1.854,4.028,4.028,0,0,1-2.294.677,4.174,4.174,0,0,1-3.111-1.2,5.127,5.127,0,0,1,0-6.565,4.122,4.122,0,0,1,3.063-1.2,3.9,3.9,0,0,1,2.9,1.107A4.376,4.376,0,0,1,56.634,56.509Zm-4-3.146a2.694,2.694,0,0,0-1.8.611,2.8,2.8,0,0,0-.91,1.78H55.1a2.567,2.567,0,0,0-.756-1.78A2.441,2.441,0,0,0,52.635,53.362ZM59.016,61V47.5h1.538V61Zm11.3.167a2.94,2.94,0,0,1-1.894-.593,2.13,2.13,0,0,1-.743-1.771,2.517,2.517,0,0,1,.237-1.129,1.991,1.991,0,0,1,.7-.787,4.218,4.218,0,0,1,1.015-.488,9.384,9.384,0,0,1,1.314-.312l1.4-.229q.765-.141.765-.8a1.51,1.51,0,0,0-.541-1.288,2.2,2.2,0,0,0-1.367-.409,2.243,2.243,0,0,0-1.354.4,1.655,1.655,0,0,0-.642,1.213l-1.371-.29a2.639,2.639,0,0,1,1.081-1.85,4.039,4.039,0,0,1,2.355-.62,4.777,4.777,0,0,1,1.252.154,3.4,3.4,0,0,1,1.046.483,2.168,2.168,0,0,1,.747.932A3.466,3.466,0,0,1,74.59,55.2v3.568a1.46,1.46,0,0,0,.2.9.854.854,0,0,0,.681.233h.141V61h-.756a1.442,1.442,0,0,1-1.635-1.169h-.07A3.3,3.3,0,0,1,70.319,61.167Zm.352-1.23a2.305,2.305,0,0,0,1.854-.835,3.438,3.438,0,0,0,.7-2.285l-2.285.439a3.076,3.076,0,0,0-1.34.479,1.114,1.114,0,0,0-.435.945,1.1,1.1,0,0,0,.417.949A1.785,1.785,0,0,0,70.67,59.937Zm8.569-6.056a2.612,2.612,0,0,1,1.072-1.16,3.229,3.229,0,0,1,1.661-.457V53.7a2.846,2.846,0,0,0-2.008.642,2.68,2.68,0,0,0-.69,2.048V61H77.754V52.36H79.24ZM89.91,52.36h1.477v8.2a4.706,4.706,0,0,1-1.116,3.366,4.648,4.648,0,0,1-7.286-1.468l1.257-.615a2.856,2.856,0,0,0,2.892,2A2.48,2.48,0,0,0,89.158,63a3.591,3.591,0,0,0,.7-2.355v-1.6a3.045,3.045,0,0,1-1.23,1.244,3.58,3.58,0,0,1-1.8.47,3.7,3.7,0,0,1-2.795-1.217,4.655,4.655,0,0,1,0-6.135,3.74,3.74,0,0,1,2.808-1.208,3.49,3.49,0,0,1,1.811.483,3.112,3.112,0,0,1,1.222,1.274Zm-2.742,7.1a2.614,2.614,0,0,0,1.991-.888,3.136,3.136,0,0,0,0-4.228,2.708,2.708,0,0,0-3.986-.026,3.2,3.2,0,0,0,.009,4.276A2.634,2.634,0,0,0,87.167,59.462Zm12.691-7.1h1.521V61H99.92l-.035-1.143a2.7,2.7,0,0,1-1.072.971,3.3,3.3,0,0,1-1.512.338,3.005,3.005,0,0,1-2.175-.782,2.918,2.918,0,0,1-.813-2.206V52.36h1.521v5.476a2.05,2.05,0,0,0,.532,1.547,1.882,1.882,0,0,0,1.358.51,2.067,2.067,0,0,0,1.534-.6,2.434,2.434,0,0,0,.6-1.767Zm13.447-.167a2.785,2.785,0,0,1,2.013.734,2.722,2.722,0,0,1,.765,2.061V61h-1.521V55.384a1.952,1.952,0,0,0-.475-1.424,1.616,1.616,0,0,0-1.2-.483,1.706,1.706,0,0,0-1.318.545,2.343,2.343,0,0,0-.5,1.635V61h-1.547V55.445a2.042,2.042,0,0,0-.479-1.472,1.629,1.629,0,0,0-1.226-.5,1.69,1.69,0,0,0-1.314.558,2.424,2.424,0,0,0-.505,1.674V61h-1.521V52.36h1.521v1.116a2.625,2.625,0,0,1,.989-.949,2.82,2.82,0,0,1,1.375-.334,2.935,2.935,0,0,1,1.477.365,2.271,2.271,0,0,1,.958,1.05,2.689,2.689,0,0,1,1.037-1.05A2.966,2.966,0,0,1,113.306,52.193Zm13.28,4.315-.018.413h-6.75a3.053,3.053,0,0,0,.826,2.21,2.713,2.713,0,0,0,1.969.769,2.59,2.59,0,0,0,1.433-.413,2.68,2.68,0,0,0,.984-1.143l1.371.29a3.9,3.9,0,0,1-1.477,1.854,4.028,4.028,0,0,1-2.294.677,4.174,4.174,0,0,1-3.111-1.2,5.127,5.127,0,0,1,0-6.565,4.122,4.122,0,0,1,3.063-1.2,3.9,3.9,0,0,1,2.9,1.107A4.376,4.376,0,0,1,126.586,56.509Zm-4-3.146a2.694,2.694,0,0,0-1.8.611,2.8,2.8,0,0,0-.91,1.78h5.177a2.567,2.567,0,0,0-.756-1.78A2.441,2.441,0,0,0,122.587,53.362Zm10.459-1.169a3.005,3.005,0,0,1,2.175.782,2.918,2.918,0,0,1,.813,2.206V61h-1.521V55.524a2.043,2.043,0,0,0-.527-1.547,1.885,1.885,0,0,0-1.354-.5,2.09,2.09,0,0,0-1.538.593,2.407,2.407,0,0,0-.606,1.762V61h-1.521V52.36h1.521v1.107A2.885,2.885,0,0,1,133.046,52.193ZM141.73,61a2.271,2.271,0,0,1-1.687-.62,2.344,2.344,0,0,1-.615-1.727v-5.08h-1.767V52.36h.65a1.249,1.249,0,0,0,.954-.3,1.492,1.492,0,0,0,.277-1.015V49.478h1.415V52.36h1.986v1.213h-1.986V58.5a1.31,1.31,0,0,0,.33.954,1.154,1.154,0,0,0,.866.338h.791V61Zm6.943.167a4.554,4.554,0,0,1-2.215-.536,3.9,3.9,0,0,1-1.56-1.569,4.819,4.819,0,0,1-.576-2.386,4.4,4.4,0,0,1,1.226-3.256,4.6,4.6,0,0,1,6.253,0,4.956,4.956,0,0,1,0,6.521A4.232,4.232,0,0,1,148.673,61.167Zm-.009-1.266a2.654,2.654,0,0,0,2.043-.888,3.755,3.755,0,0,0,0-4.667,2.654,2.654,0,0,0-2.043-.888,2.617,2.617,0,0,0-2.026.888,3.788,3.788,0,0,0,0,4.667A2.617,2.617,0,0,0,148.665,59.9Zm7.98-4.843a.987.987,0,0,1-.716-.3,1.022,1.022,0,0,1,.716-1.74.989.989,0,0,1,.725.3,1,1,0,0,1,0,1.437A1,1,0,0,1,156.645,55.059Zm0,6.117a.987.987,0,0,1-.716-.3,1.022,1.022,0,0,1,.716-1.74.989.989,0,0,1,.725.3,1,1,0,0,1,0,1.437A1,1,0,0,1,156.645,61.176Z" transform="translate(-1544 1962)" fill="#00223d"/>
    <path id="Trazado_69030" data-name="Trazado 69030" d="M8.28,23.814a3.143,3.143,0,0,1-2.227-.762,2.524,2.524,0,0,1-.82-1.934V17.164a8.065,8.065,0,0,0-.044-.937,3.471,3.471,0,0,0-.122-.61.824.824,0,0,0-.283-.41,2.326,2.326,0,0,0-.415-.264,6.165,6.165,0,0,0-.63-.249V13.131a6.165,6.165,0,0,0,.63-.249,2.189,2.189,0,0,0,.415-.269.851.851,0,0,0,.283-.415,3.471,3.471,0,0,0,.122-.61,8.065,8.065,0,0,0,.044-.937V6.7a2.524,2.524,0,0,1,.82-1.934A3.143,3.143,0,0,1,8.28,4H9.491V5.973H8.817a.923.923,0,0,0-.7.278,1.158,1.158,0,0,0-.264.825V10.65a8.3,8.3,0,0,1-.044.923,3.257,3.257,0,0,1-.19.776,1.934,1.934,0,0,1-.4.659,2.737,2.737,0,0,1-.684.5A4.528,4.528,0,0,1,5.5,13.9a4.378,4.378,0,0,1,1.035.4,2.752,2.752,0,0,1,.684.513,2,2,0,0,1,.4.659,3.184,3.184,0,0,1,.19.767,8.17,8.17,0,0,1,.044.918v3.613a1.221,1.221,0,0,0,.225.825.958.958,0,0,0,.742.249h.674v1.973ZM15.741,9.85q5.42,0,5.42,4.453a4.757,4.757,0,0,1-1.367,3.569,4.941,4.941,0,0,1-3.6,1.333,5.978,5.978,0,0,1-2.524-.522,4.356,4.356,0,0,1-1.831-1.553,4.158,4.158,0,0,1-.693-2.378,4.39,4.39,0,0,1,.059-.7l2.793-.127a4.128,4.128,0,0,0-.068.625A1.9,1.9,0,0,0,14.56,16.1a2.392,2.392,0,0,0,1.572.522,2.167,2.167,0,0,0,1.641-.6,2.237,2.237,0,0,0,.576-1.616,2.012,2.012,0,0,0-.7-1.65,3.765,3.765,0,0,0-2.363-.576h-3.7l.586-7.295H20.5V7.4H14.7L14.511,9.85ZM23.72,23.814H22.509V21.842h.674a.958.958,0,0,0,.742-.249,1.221,1.221,0,0,0,.225-.825V17.154a8.17,8.17,0,0,1,.044-.918,3.184,3.184,0,0,1,.19-.767,2,2,0,0,1,.4-.659,2.752,2.752,0,0,1,.684-.513,4.378,4.378,0,0,1,1.035-.4,4.528,4.528,0,0,1-1.035-.391,2.737,2.737,0,0,1-.684-.5,1.934,1.934,0,0,1-.4-.659,3.257,3.257,0,0,1-.19-.776,8.3,8.3,0,0,1-.044-.923V7.076a1.158,1.158,0,0,0-.264-.825.923.923,0,0,0-.7-.278h-.674V4H23.72a3.143,3.143,0,0,1,2.227.762,2.524,2.524,0,0,1,.82,1.934V10.65a8.065,8.065,0,0,0,.044.938,3.471,3.471,0,0,0,.122.61.851.851,0,0,0,.283.415,2.189,2.189,0,0,0,.415.269,6.166,6.166,0,0,0,.63.249v1.563a6.166,6.166,0,0,0-.63.249,2.326,2.326,0,0,0-.415.264.824.824,0,0,0-.283.41,3.471,3.471,0,0,0-.122.61,8.065,8.065,0,0,0-.044.938v3.955a2.524,2.524,0,0,1-.82,1.934A3.143,3.143,0,0,1,23.72,23.814Z" transform="translate(-1216 2055)" fill="#00223d"/>
    <path id="Trazado_69031" data-name="Trazado 69031" d="M8.28,23.814a3.143,3.143,0,0,1-2.227-.762,2.524,2.524,0,0,1-.82-1.934V17.164a8.065,8.065,0,0,0-.044-.937,3.471,3.471,0,0,0-.122-.61.824.824,0,0,0-.283-.41,2.326,2.326,0,0,0-.415-.264,6.165,6.165,0,0,0-.63-.249V13.131a6.165,6.165,0,0,0,.63-.249,2.189,2.189,0,0,0,.415-.269.851.851,0,0,0,.283-.415,3.471,3.471,0,0,0,.122-.61,8.065,8.065,0,0,0,.044-.937V6.7a2.524,2.524,0,0,1,.82-1.934A3.143,3.143,0,0,1,8.28,4H9.491V5.973H8.817a.923.923,0,0,0-.7.278,1.158,1.158,0,0,0-.264.825V10.65a8.3,8.3,0,0,1-.044.923,3.257,3.257,0,0,1-.19.776,1.934,1.934,0,0,1-.4.659,2.737,2.737,0,0,1-.684.5A4.528,4.528,0,0,1,5.5,13.9a4.378,4.378,0,0,1,1.035.4,2.752,2.752,0,0,1,.684.513,2,2,0,0,1,.4.659,3.184,3.184,0,0,1,.19.767,8.17,8.17,0,0,1,.044.918v3.613a1.221,1.221,0,0,0,.225.825.958.958,0,0,0,.742.249h.674v1.973Zm6.68-7.324h6.016V19H11.024V16.881l5.615-5.732A3.534,3.534,0,0,0,17.86,8.717a1.72,1.72,0,0,0-.5-1.309,1.98,1.98,0,0,0-1.421-.479q-2,0-2,2.275V10.25l-2.8-.283v-.7A4.4,4.4,0,0,1,12.421,5.87a4.937,4.937,0,0,1,3.5-1.2,5.172,5.172,0,0,1,3.4,1.084,3.653,3.653,0,0,1,1.313,2.979,4.224,4.224,0,0,1-.444,1.934,8.082,8.082,0,0,1-1.411,1.885Zm8.76,7.324H22.509V21.842h.674a.958.958,0,0,0,.742-.249,1.221,1.221,0,0,0,.225-.825V17.154a8.17,8.17,0,0,1,.044-.918,3.184,3.184,0,0,1,.19-.767,2,2,0,0,1,.4-.659,2.752,2.752,0,0,1,.684-.513,4.378,4.378,0,0,1,1.035-.4,4.528,4.528,0,0,1-1.035-.391,2.737,2.737,0,0,1-.684-.5,1.934,1.934,0,0,1-.4-.659,3.257,3.257,0,0,1-.19-.776,8.3,8.3,0,0,1-.044-.923V7.076a1.158,1.158,0,0,0-.264-.825.923.923,0,0,0-.7-.278h-.674V4H23.72a3.143,3.143,0,0,1,2.227.762,2.524,2.524,0,0,1,.82,1.934V10.65a8.065,8.065,0,0,0,.044.938,3.471,3.471,0,0,0,.122.61.851.851,0,0,0,.283.415,2.189,2.189,0,0,0,.415.269,6.166,6.166,0,0,0,.63.249v1.563a6.166,6.166,0,0,0-.63.249,2.326,2.326,0,0,0-.415.264.824.824,0,0,0-.283.41,3.471,3.471,0,0,0-.122.61,8.065,8.065,0,0,0-.044.938v3.955a2.524,2.524,0,0,1-.82,1.934A3.143,3.143,0,0,1,23.72,23.814Z" transform="translate(-1303 1914)" fill="#00223d"/>
    <path id="Trazado_69032" data-name="Trazado 69032" d="M8.28,23.814a3.143,3.143,0,0,1-2.227-.762,2.524,2.524,0,0,1-.82-1.934V17.164a8.065,8.065,0,0,0-.044-.937,3.471,3.471,0,0,0-.122-.61.824.824,0,0,0-.283-.41,2.326,2.326,0,0,0-.415-.264,6.165,6.165,0,0,0-.63-.249V13.131a6.165,6.165,0,0,0,.63-.249,2.189,2.189,0,0,0,.415-.269.851.851,0,0,0,.283-.415,3.471,3.471,0,0,0,.122-.61,8.065,8.065,0,0,0,.044-.937V6.7a2.524,2.524,0,0,1,.82-1.934A3.143,3.143,0,0,1,8.28,4H9.491V5.973H8.817a.923.923,0,0,0-.7.278,1.158,1.158,0,0,0-.264.825V10.65a8.3,8.3,0,0,1-.044.923,3.257,3.257,0,0,1-.19.776,1.934,1.934,0,0,1-.4.659,2.737,2.737,0,0,1-.684.5A4.528,4.528,0,0,1,5.5,13.9a4.378,4.378,0,0,1,1.035.4,2.752,2.752,0,0,1,.684.513,2,2,0,0,1,.4.659,3.184,3.184,0,0,1,.19.767,8.17,8.17,0,0,1,.044.918v3.613a1.221,1.221,0,0,0,.225.825.958.958,0,0,0,.742.249h.674v1.973ZM15.634,4.889H18.31V19h-2.8V7.779L12.265,10.8V7.906ZM23.72,23.814H22.509V21.842h.674a.958.958,0,0,0,.742-.249,1.221,1.221,0,0,0,.225-.825V17.154a8.17,8.17,0,0,1,.044-.918,3.184,3.184,0,0,1,.19-.767,2,2,0,0,1,.4-.659,2.752,2.752,0,0,1,.684-.513,4.378,4.378,0,0,1,1.035-.4,4.528,4.528,0,0,1-1.035-.391,2.737,2.737,0,0,1-.684-.5,1.934,1.934,0,0,1-.4-.659,3.257,3.257,0,0,1-.19-.776,8.3,8.3,0,0,1-.044-.923V7.076a1.158,1.158,0,0,0-.264-.825.923.923,0,0,0-.7-.278h-.674V4H23.72a3.143,3.143,0,0,1,2.227.762,2.524,2.524,0,0,1,.82,1.934V10.65a8.065,8.065,0,0,0,.044.938,3.471,3.471,0,0,0,.122.61.851.851,0,0,0,.283.415,2.189,2.189,0,0,0,.415.269,6.166,6.166,0,0,0,.63.249v1.563a6.166,6.166,0,0,0-.63.249,2.326,2.326,0,0,0-.415.264.824.824,0,0,0-.283.41,3.471,3.471,0,0,0-.122.61,8.065,8.065,0,0,0-.044.938v3.955a2.524,2.524,0,0,1-.82,1.934A3.143,3.143,0,0,1,23.72,23.814Z" transform="translate(-1303 1991)" fill="#00223d"/>
    <path id="Trazado_69033" data-name="Trazado 69033" d="M8.28,23.814a3.143,3.143,0,0,1-2.227-.762,2.524,2.524,0,0,1-.82-1.934V17.164a8.065,8.065,0,0,0-.044-.937,3.471,3.471,0,0,0-.122-.61.824.824,0,0,0-.283-.41,2.326,2.326,0,0,0-.415-.264,6.165,6.165,0,0,0-.63-.249V13.131a6.165,6.165,0,0,0,.63-.249,2.189,2.189,0,0,0,.415-.269.851.851,0,0,0,.283-.415,3.471,3.471,0,0,0,.122-.61,8.065,8.065,0,0,0,.044-.937V6.7a2.524,2.524,0,0,1,.82-1.934A3.143,3.143,0,0,1,8.28,4H9.491V5.973H8.817a.923.923,0,0,0-.7.278,1.158,1.158,0,0,0-.264.825V10.65a8.3,8.3,0,0,1-.044.923,3.257,3.257,0,0,1-.19.776,1.934,1.934,0,0,1-.4.659,2.737,2.737,0,0,1-.684.5A4.528,4.528,0,0,1,5.5,13.9a4.378,4.378,0,0,1,1.035.4,2.752,2.752,0,0,1,.684.513,2,2,0,0,1,.4.659,3.184,3.184,0,0,1,.19.767,8.17,8.17,0,0,1,.044.918v3.613a1.221,1.221,0,0,0,.225.825.958.958,0,0,0,.742.249h.674v1.973Zm13.2-10v2.51h-1.7V19H16.972V16.324H10.478V13.8l5-8.916h4.307v8.926Zm-8.4,0h3.887V6.578Zm10.635,10H22.509V21.842h.674a.958.958,0,0,0,.742-.249,1.221,1.221,0,0,0,.225-.825V17.154a8.17,8.17,0,0,1,.044-.918,3.184,3.184,0,0,1,.19-.767,2,2,0,0,1,.4-.659,2.752,2.752,0,0,1,.684-.513,4.378,4.378,0,0,1,1.035-.4,4.528,4.528,0,0,1-1.035-.391,2.737,2.737,0,0,1-.684-.5,1.934,1.934,0,0,1-.4-.659,3.257,3.257,0,0,1-.19-.776,8.3,8.3,0,0,1-.044-.923V7.076a1.158,1.158,0,0,0-.264-.825.923.923,0,0,0-.7-.278h-.674V4H23.72a3.143,3.143,0,0,1,2.227.762,2.524,2.524,0,0,1,.82,1.934V10.65a8.065,8.065,0,0,0,.044.938,3.471,3.471,0,0,0,.122.61.851.851,0,0,0,.283.415,2.189,2.189,0,0,0,.415.269,6.166,6.166,0,0,0,.63.249v1.563a6.166,6.166,0,0,0-.63.249,2.326,2.326,0,0,0-.415.264.824.824,0,0,0-.283.41,3.471,3.471,0,0,0-.122.61,8.065,8.065,0,0,0-.044.938v3.955a2.524,2.524,0,0,1-.82,1.934A3.143,3.143,0,0,1,23.72,23.814Z" transform="translate(-1128 1914)" fill="#00223d"/>
    <path id="Trazado_69034" data-name="Trazado 69034" d="M8.28,23.814a3.143,3.143,0,0,1-2.227-.762,2.524,2.524,0,0,1-.82-1.934V17.164a8.065,8.065,0,0,0-.044-.937,3.471,3.471,0,0,0-.122-.61.824.824,0,0,0-.283-.41,2.326,2.326,0,0,0-.415-.264,6.165,6.165,0,0,0-.63-.249V13.131a6.165,6.165,0,0,0,.63-.249,2.189,2.189,0,0,0,.415-.269.851.851,0,0,0,.283-.415,3.471,3.471,0,0,0,.122-.61,8.065,8.065,0,0,0,.044-.937V6.7a2.524,2.524,0,0,1,.82-1.934A3.143,3.143,0,0,1,8.28,4H9.491V5.973H8.817a.923.923,0,0,0-.7.278,1.158,1.158,0,0,0-.264.825V10.65a8.3,8.3,0,0,1-.044.923,3.257,3.257,0,0,1-.19.776,1.934,1.934,0,0,1-.4.659,2.737,2.737,0,0,1-.684.5A4.528,4.528,0,0,1,5.5,13.9a4.378,4.378,0,0,1,1.035.4,2.752,2.752,0,0,1,.684.513,2,2,0,0,1,.4.659,3.184,3.184,0,0,1,.19.767,8.17,8.17,0,0,1,.044.918v3.613a1.221,1.221,0,0,0,.225.825.958.958,0,0,0,.742.249h.674v1.973ZM16,19.2a5.063,5.063,0,0,1-3.848-1.289,5.59,5.59,0,0,1-1.211-3.945l2.881-.127a10.2,10.2,0,0,0,.044,1.035,3.578,3.578,0,0,0,.176.8,1.433,1.433,0,0,0,.371.6,1.686,1.686,0,0,0,.635.347,3.137,3.137,0,0,0,.952.127,2.288,2.288,0,0,0,1.665-.566,1.98,1.98,0,0,0,.581-1.484,2,2,0,0,0-.557-1.528,2.1,2.1,0,0,0-1.494-.522h-.547V10.455h.508a1.527,1.527,0,0,0,1.167-.5,1.776,1.776,0,0,0,.464-1.26,1.419,1.419,0,0,0-.508-1.172,2.064,2.064,0,0,0-1.338-.41,2.005,2.005,0,0,0-.762.132,1.421,1.421,0,0,0-.513.337,1.49,1.49,0,0,0-.3.518,2.72,2.72,0,0,0-.146.615,6.144,6.144,0,0,0-.034.684l-2.842-.137A4.517,4.517,0,0,1,12.548,5.87a4.617,4.617,0,0,1,3.359-1.177A4.8,4.8,0,0,1,19.13,5.772,3.379,3.379,0,0,1,20.4,8.453a3.051,3.051,0,0,1-.542,1.816,3.1,3.1,0,0,1-1.235,1.074,3.478,3.478,0,0,1,.9.4,3.683,3.683,0,0,1,.786.674,3.007,3.007,0,0,1,.581,1.025,4.126,4.126,0,0,1,.215,1.367A3.988,3.988,0,0,1,19.706,18,5.508,5.508,0,0,1,16,19.2Zm7.725,4.619H22.509V21.842h.674a.958.958,0,0,0,.742-.249,1.221,1.221,0,0,0,.225-.825V17.154a8.17,8.17,0,0,1,.044-.918,3.184,3.184,0,0,1,.19-.767,2,2,0,0,1,.4-.659,2.752,2.752,0,0,1,.684-.513,4.378,4.378,0,0,1,1.035-.4,4.528,4.528,0,0,1-1.035-.391,2.737,2.737,0,0,1-.684-.5,1.934,1.934,0,0,1-.4-.659,3.257,3.257,0,0,1-.19-.776,8.3,8.3,0,0,1-.044-.923V7.076a1.158,1.158,0,0,0-.264-.825.923.923,0,0,0-.7-.278h-.674V4H23.72a3.143,3.143,0,0,1,2.227.762,2.524,2.524,0,0,1,.82,1.934V10.65a8.065,8.065,0,0,0,.044.938,3.471,3.471,0,0,0,.122.61.851.851,0,0,0,.283.415,2.189,2.189,0,0,0,.415.269,6.166,6.166,0,0,0,.63.249v1.563a6.166,6.166,0,0,0-.63.249,2.326,2.326,0,0,0-.415.264.824.824,0,0,0-.283.41,3.471,3.471,0,0,0-.122.61,8.065,8.065,0,0,0-.044.938v3.955a2.524,2.524,0,0,1-.82,1.934A3.143,3.143,0,0,1,23.72,23.814Z" transform="translate(-1128 1991)" fill="#00223d"/>
    <g id="Grupo_26541" data-name="Grupo 26541" transform="translate(-3574.071 1798.9)">
      <path id="Trazado_67329" data-name="Trazado 67329" d="M2289.039,190.765l5.968-14.146-4.356,1.851V146.1h-3.223v32.37l-4.356-1.851Z" fill="#48b1e2"/>
      <path id="Trazado_67330" data-name="Trazado 67330" d="M2555.3,178.47V146.1h-3.223v32.37l-4.356-1.851,5.968,14.146,5.968-14.146Z" transform="translate(-91.582)" fill="#48b1e2"/>
      <path id="Trazado_67331" data-name="Trazado 67331" d="M2351.65,305.033l-58.93-38-1.746,2.709,58.93,38-3.916,2.658,15.123,2.651-8.655-12.682Z" transform="translate(-2.809 -41.3)" fill="#48b1e2"/>
      <path id="Trazado_67332" data-name="Trazado 67332" d="M2515.624,267.031l-58.93,38-.805-4.664-8.655,12.682,15.123-2.651-3.917-2.658,58.93-38Z" transform="translate(-55.871 -41.3)" fill="#48b1e2"/>
    </g>
  </g>
</svg>
