<svg xmlns="http://www.w3.org/2000/svg" width="268.7" height="268.7" viewBox="0 0 268.7 268.7">
  <g id="Grupo_26244" data-name="Grupo 26244" transform="translate(-4056.644 -1302.762)">
    <g id="Grupo_26170" data-name="Grupo 26170" transform="translate(4059.685 1305.803)">
      <path id="Trazado_66945" data-name="Trazado 66945" d="M4205.536,1582.8c-2.447,0-4.925-.069-7.369-.205a1.269,1.269,0,0,1,.142-2.535c2.4.134,4.827.2,7.223.2,2.469,0,4.965-.072,7.422-.214a1.269,1.269,0,0,1,.146,2.535C4210.594,1582.728,4208.05,1582.8,4205.536,1582.8Zm-21.99-1.851a1.28,1.28,0,0,1-.213-.018,132,132,0,0,1-14.555-3.322,1.269,1.269,0,1,1,.7-2.439,129.515,129.515,0,0,0,14.274,3.257,1.269,1.269,0,0,1-.21,2.521Zm44.167-.059a1.269,1.269,0,0,1-.216-2.52,128.309,128.309,0,0,0,14.257-3.33,1.269,1.269,0,1,1,.718,2.435,130.906,130.906,0,0,1-14.541,3.4A1.284,1.284,0,0,1,4227.713,1580.891Zm-72.529-8.139a1.271,1.271,0,0,1-.489-.1,130.913,130.913,0,0,1-13.431-6.54,1.269,1.269,0,0,1,1.241-2.215,128.3,128.3,0,0,0,13.169,6.413,1.269,1.269,0,0,1-.49,2.441Zm100.84-.206a1.27,1.27,0,0,1-.5-2.438,129.138,129.138,0,0,0,13.129-6.469,1.269,1.269,0,0,1,1.25,2.21,132.01,132.01,0,0,1-13.388,6.6A1.268,1.268,0,0,1,4256.024,1572.547Zm-126.613-14.223a1.265,1.265,0,0,1-.742-.24,132,132,0,0,1-11.6-9.408,1.269,1.269,0,0,1,1.708-1.878,129.411,129.411,0,0,0,11.374,9.226,1.27,1.27,0,0,1-.743,2.3Zm152.308-.3a1.269,1.269,0,0,1-.747-2.3,130,130,0,0,0,11.345-9.257,1.269,1.269,0,0,1,1.714,1.873,132.561,132.561,0,0,1-11.568,9.438A1.263,1.263,0,0,1,4281.719,1558.02Zm-174.148-19.57a1.267,1.267,0,0,1-.956-.433,132.662,132.662,0,0,1-9.185-11.769,1.269,1.269,0,0,1,2.085-1.446,130.248,130.248,0,0,0,9.01,11.543,1.27,1.27,0,0,1-.955,2.105Zm195.932-.36a1.269,1.269,0,0,1-.957-2.1,129.246,129.246,0,0,0,8.977-11.572,1.269,1.269,0,1,1,2.091,1.439,131.843,131.843,0,0,1-9.153,11.8A1.267,1.267,0,0,1,4303.5,1538.09Zm-212.75-23.9a1.269,1.269,0,0,1-1.119-.669,131.761,131.761,0,0,1-6.3-13.528,1.269,1.269,0,0,1,2.358-.94,129.18,129.18,0,0,0,6.182,13.266,1.27,1.27,0,0,1-1.118,1.87Zm229.491-.428a1.269,1.269,0,0,1-1.119-1.865,128.236,128.236,0,0,0,6.122-13.308,1.27,1.27,0,0,1,2.364.927,131.063,131.063,0,0,1-6.244,13.572A1.27,1.27,0,0,1,4320.245,1513.76Zm-240.411-26.985a1.271,1.271,0,0,1-1.225-.937,130.933,130.933,0,0,1-3.076-14.611,1.269,1.269,0,0,1,2.51-.38,128.2,128.2,0,0,0,3.016,14.326,1.271,1.271,0,0,1-1.226,1.6Zm251.2-.5a1.27,1.27,0,0,1-1.228-1.6,129.76,129.76,0,0,0,2.946-14.341,1.269,1.269,0,1,1,2.511.37,132.39,132.39,0,0,1-3,14.623A1.269,1.269,0,0,1,4331.032,1486.27Zm-255.616-28.677a1.269,1.269,0,0,1-1.268-1.224c-.056-1.566-.085-3.154-.084-4.719,0-3.385.133-6.82.395-10.209a1.269,1.269,0,0,1,2.531.2c-.257,3.325-.388,6.694-.388,10.014,0,1.536.028,3.093.083,4.628a1.269,1.269,0,0,1-1.223,1.314Zm259.922-.533h-.044a1.269,1.269,0,0,1-1.225-1.312c.05-1.465.075-2.95.075-4.414,0-3.4-.137-6.842-.406-10.225a1.269,1.269,0,1,1,2.53-.2c.275,3.449.414,6.957.414,10.426,0,1.493-.025,3.007-.077,4.5A1.269,1.269,0,0,1,4335.338,1457.061Zm-259.3-17.684a1.242,1.242,0,0,1-.132-.007,1.268,1.268,0,0,1-1.132-1.393,133.194,133.194,0,0,1,2.366-14.738,1.269,1.269,0,0,1,2.48.543,130.74,130.74,0,0,0-2.321,14.456A1.27,1.27,0,0,1,4076.036,1439.376Zm256.949-11.745a1.27,1.27,0,0,1-1.244-1.025,128.418,128.418,0,0,0-3.642-14.18,1.269,1.269,0,1,1,2.418-.771,130.868,130.868,0,0,1,3.715,14.462,1.27,1.27,0,0,1-1.247,1.514Zm-250.627-17.091a1.27,1.27,0,0,1-1.2-1.681,130.853,130.853,0,0,1,5.64-13.835,1.269,1.269,0,0,1,2.292,1.091,128.31,128.31,0,0,0-5.53,13.565A1.27,1.27,0,0,1,4082.359,1410.54Zm241.665-11.03a1.269,1.269,0,0,1-1.158-.749,129.468,129.468,0,0,0-6.755-12.985,1.269,1.269,0,0,1,2.182-1.3,131.818,131.818,0,0,1,6.888,13.241,1.269,1.269,0,0,1-1.156,1.79Zm-228.966-15.639a1.27,1.27,0,0,1-1.075-1.943,131.583,131.583,0,0,1,8.63-12.19,1.269,1.269,0,1,1,1.984,1.582,129.04,129.04,0,0,0-8.461,11.954A1.269,1.269,0,0,1,4095.057,1383.871Zm213.883-9.734a1.268,1.268,0,0,1-1.012-.5,130.1,130.1,0,0,0-9.5-11.142,1.269,1.269,0,0,1,1.836-1.754,132.671,132.671,0,0,1,9.688,11.36,1.27,1.27,0,0,1-1.01,2.037Zm-195.477-13.361a1.269,1.269,0,0,1-.9-2.168,132.739,132.739,0,0,1,11.147-9.932,1.27,1.27,0,1,1,1.58,1.988,130,130,0,0,0-10.934,9.741A1.265,1.265,0,0,1,4113.463,1360.776Zm175.076-7.987a1.266,1.266,0,0,1-.812-.294,129.078,129.078,0,0,0-11.765-8.722,1.269,1.269,0,0,1,1.393-2.122,131.8,131.8,0,0,1,12,8.894,1.269,1.269,0,0,1-.813,2.244Zm-151.957-10.376a1.269,1.269,0,0,1-.674-2.346,132.1,132.1,0,0,1,13.088-7.175,1.269,1.269,0,0,1,1.092,2.292,129.542,129.542,0,0,0-12.836,7.036A1.264,1.264,0,0,1,4136.583,1342.412Zm127.266-5.829a1.259,1.259,0,0,1-.569-.136,128.242,128.242,0,0,0-13.44-5.827,1.269,1.269,0,1,1,.875-2.383,130.8,130.8,0,0,1,13.707,5.943,1.27,1.27,0,0,1-.572,2.4Zm-100.624-6.864a1.27,1.27,0,0,1-.412-2.47,130.815,130.815,0,0,1,14.376-4.032,1.269,1.269,0,0,1,.544,2.479,128.336,128.336,0,0,0-14.1,3.954A1.271,1.271,0,0,1,4163.225,1329.72Zm72.9-3.314a1.271,1.271,0,0,1-.3-.036,130.236,130.236,0,0,0-14.4-2.634,1.269,1.269,0,0,1,.315-2.519,132.807,132.807,0,0,1,14.684,2.685,1.27,1.27,0,0,1-.3,2.5Zm-44.07-3.017a1.269,1.269,0,0,1-.127-2.532,131.492,131.492,0,0,1,14.916-.664,1.269,1.269,0,0,1,1.253,1.285,1.248,1.248,0,0,1-1.285,1.253,129.129,129.129,0,0,0-14.626.651A1.281,1.281,0,0,1,4192.059,1323.389Z" transform="translate(-4074.064 -1320.183)" fill="#37474f"/>
    </g>
    <circle id="Elipse_2807" data-name="Elipse 2807" cx="95" cy="95" r="95" transform="translate(4056.644 1437.112) rotate(-45)" fill="#fff"/>
    <g id="listening_skills" data-name="listening skills" transform="translate(4185.291 1449.817)">
      <g id="Grupo_26175" data-name="Grupo 26175" transform="translate(0)">
        <g id="Grupo_26171" data-name="Grupo 26171" transform="translate(0 66.412)">
          <path id="Trazado_66946" data-name="Trazado 66946" d="M4800.9,2566.157v-6.792c0-14.533,12.1-26.424,26.893-26.424h21.633c10.313,0,17.644,4.287,22.917,11.527l1.2,21.456Z" transform="translate(-4799.635 -2531.672)" fill="#48b1e2"/>
          <path id="Trazado_66947" data-name="Trazado 66947" d="M4794.9,2561.425a1.269,1.269,0,0,1-1.269-1.269v-6.792a27.962,27.962,0,0,1,28.162-27.693h21.633c10.064,0,18.121,4.054,23.943,12.049a1.269,1.269,0,0,1,.242.677l1.2,21.456a1.269,1.269,0,1,1-2.534.141l-1.175-21.079c-5.368-7.2-12.461-10.705-21.671-10.705h-21.633a25.421,25.421,0,0,0-25.624,25.155v6.792A1.269,1.269,0,0,1,4794.9,2561.425Z" transform="translate(-4793.633 -2525.67)" fill="#37474f"/>
        </g>
        <g id="Grupo_26172" data-name="Grupo 26172" transform="translate(26.893 62.316)">
          <path id="Trazado_66948" data-name="Trazado 66948" d="M4976.6,2509.474v4.846c0,4.1-4.868,7.449-10.817,7.449s-10.816-3.352-10.816-7.449v-4.846Z" transform="translate(-4953.697 -2508.205)" fill="#fff"/>
          <path id="Trazado_66949" data-name="Trazado 66949" d="M4959.78,2517.036c-6.664,0-12.085-3.911-12.085-8.719v-4.846a1.269,1.269,0,1,1,2.539,0v4.846c0,3.35,4.372,6.18,9.547,6.18s9.548-2.83,9.548-6.18v-4.846a1.269,1.269,0,1,1,2.539,0v4.846C4971.867,2513.125,4966.445,2517.036,4959.78,2517.036Z" transform="translate(-4947.695 -2502.202)" fill="#37474f"/>
        </g>
        <g id="Grupo_26173" data-name="Grupo 26173" transform="translate(3.283)">
          <path id="Trazado_66950" data-name="Trazado 66950" d="M4854.139,2152.48a26.222,26.222,0,0,0-26.045,23.7c-.039,0-.077-.006-.116-.006a8.246,8.246,0,1,0,0,16.493c.039,0,.077-.005.116-.006a26.222,26.222,0,0,0,26.045,23.7,25.943,25.943,0,0,0,22.663-13.116v-25.72Z" transform="translate(-4818.444 -2151.211)" fill="#fff"/>
          <path id="Trazado_66951" data-name="Trazado 66951" d="M4848.137,2211.638a27.629,27.629,0,0,1-27.184-23.753,9.515,9.515,0,0,1,0-18.923,27.63,27.63,0,0,1,27.184-23.753,1.269,1.269,0,1,1,0,2.539,25.054,25.054,0,0,0-24.781,22.552,1.251,1.251,0,0,1-1.281,1.152l-.13-.006a6.978,6.978,0,1,0,.032,13.955l.1-.006a1.268,1.268,0,0,1,1.283,1.153,25.054,25.054,0,0,0,24.781,22.552,24.52,24.52,0,0,0,21.394-12.188v-25.38a1.269,1.269,0,0,1,2.539,0v25.72a1.272,1.272,0,0,1-.167.629A27.389,27.389,0,0,1,4848.137,2211.638Z" transform="translate(-4812.442 -2145.209)" fill="#37474f"/>
        </g>
        <g id="Grupo_26174" data-name="Grupo 26174" transform="translate(11.71)">
          <path id="Trazado_66952" data-name="Trazado 66952" d="M4914.622,2186.95a5.258,5.258,0,0,1-5.036-5.274v-11.03a5.2,5.2,0,0,1-10.362.637.038.038,0,0,0-.076,0,5.191,5.191,0,0,1-10.323,0,.038.038,0,0,0-.077,0,5.2,5.2,0,0,1-10.361-.637v10.834a5.39,5.39,0,0,1-4.412,5.412,5.239,5.239,0,0,1-5.988-5.217v-5.49c.008-.088,2.213-21.974,26-23.706h19.776a6.272,6.272,0,0,1,6.225,6.317v8.927Z" transform="translate(-4866.717 -2151.211)" fill="#faf3d3"/>
          <path id="Trazado_66953" data-name="Trazado 66953" d="M4867.2,2182.219a6.43,6.43,0,0,1-4.194-1.557,6.573,6.573,0,0,1-2.289-4.988v-5.489a1.3,1.3,0,0,1,.006-.131c.023-.23,2.614-23.053,27.168-24.842.031,0,.065,0,.1,0h19.773a7.549,7.549,0,0,1,7.494,7.586v8.927a1.269,1.269,0,1,1-2.538,0V2152.8a5.008,5.008,0,0,0-4.956-5.048H4888.03c-22.029,1.631-24.613,21.031-24.777,22.5v5.425a4.037,4.037,0,0,0,1.406,3.063,3.841,3.841,0,0,0,3.124.9,4.119,4.119,0,0,0,3.332-4.157v-15.708a1.269,1.269,0,1,1,2.539,0v4.874a3.927,3.927,0,0,0,7.833.486,1.307,1.307,0,0,1,2.6,0,3.922,3.922,0,0,0,7.8,0,1.307,1.307,0,0,1,2.6,0,3.927,3.927,0,0,0,7.832-.488v-4.874a1.27,1.27,0,0,1,2.539,0v15.9a4,4,0,0,0,3.807,4.005,1.269,1.269,0,0,1-.081,2.537,6.561,6.561,0,0,1-6.265-6.543v-5.834a12.5,12.5,0,0,0-14.33,1.35,6.421,6.421,0,0,0-10.4,0,6.388,6.388,0,0,1-3.931-1.35v5.638a6.671,6.671,0,0,1-5.491,6.667A6.455,6.455,0,0,1,4867.2,2182.219Z" transform="translate(-4860.715 -2145.209)" fill="#37474f"/>
        </g>
      </g>
      <g id="Grupo_26183" data-name="Grupo 26183" transform="translate(58.346 0.481)">
        <g id="Grupo_26178" data-name="Grupo 26178" transform="translate(26.577)">
          <g id="Grupo_26176" data-name="Grupo 26176" transform="translate(0 7.129)">
            <path id="Trazado_66954" data-name="Trazado 66954" d="M5289.248,2201.731a1.27,1.27,0,0,1-1.2-1.683,6.612,6.612,0,0,0-1.077-6.412,6.307,6.307,0,0,0-5.46-2.274,1.269,1.269,0,0,1-.206-2.53,8.923,8.923,0,0,1,7.626,3.191,9.132,9.132,0,0,1,1.517,8.852A1.271,1.271,0,0,1,5289.248,2201.731Z" transform="translate(-5280.139 -2188.803)" fill="#37474f"/>
          </g>
          <g id="Grupo_26177" data-name="Grupo 26177" transform="translate(0.3)">
            <path id="Trazado_66955" data-name="Trazado 66955" d="M5298.526,2168.6a1.27,1.27,0,0,1-1.224-1.61,13.065,13.065,0,0,0-2.905-12.525,12.655,12.655,0,0,0-11.088-3.834,1.269,1.269,0,0,1-.363-2.512,15.2,15.2,0,0,1,13.31,4.617,15.586,15.586,0,0,1,3.493,14.935A1.271,1.271,0,0,1,5298.526,2168.6Z" transform="translate(-5281.858 -2147.963)" fill="#37474f"/>
          </g>
        </g>
        <g id="Grupo_26182" data-name="Grupo 26182" transform="translate(0 11.775)">
          <g id="Grupo_26179" data-name="Grupo 26179">
            <path id="Trazado_66956" data-name="Trazado 66956" d="M5149.043,2222.689a13.686,13.686,0,0,0-8.749,3.169,14.16,14.16,0,0,0-5.136,10.921v18.668a7.981,7.981,0,0,0,2.23,5.541,7.754,7.754,0,0,0,5.6,2.407,7.913,7.913,0,0,0,7.832-7.947v-.159a14.069,14.069,0,0,0,12.107-13.97v-4.539A14.03,14.03,0,0,0,5149.043,2222.689Z" transform="translate(-5133.889 -2221.42)" fill="#fff"/>
            <path id="Trazado_66957" data-name="Trazado 66957" d="M5136.988,2258.661a8.972,8.972,0,0,1-6.517-2.8,9.223,9.223,0,0,1-2.584-6.42v-18.668a15.4,15.4,0,0,1,5.6-11.9,15.035,15.035,0,0,1,9.558-3.46,15.275,15.275,0,0,1,15.155,15.359v4.539a15.35,15.35,0,0,1-12.152,15.051A9.159,9.159,0,0,1,5136.988,2258.661Zm6.053-40.7a12.492,12.492,0,0,0-7.939,2.878,12.864,12.864,0,0,0-4.676,9.943v18.668a6.694,6.694,0,0,0,1.876,4.661,6.454,6.454,0,0,0,4.687,2.017,6.628,6.628,0,0,0,6.562-6.677v-.16a1.269,1.269,0,0,1,1.1-1.258,12.782,12.782,0,0,0,11-12.711v-4.539A12.734,12.734,0,0,0,5143.041,2217.957Z" transform="translate(-5127.887 -2215.418)" fill="#37474f"/>
          </g>
          <g id="Grupo_26180" data-name="Grupo 26180" transform="translate(5.137 14.617)">
            <path id="Trazado_66958" data-name="Trazado 66958" d="M5170.521,2307.351a1.271,1.271,0,0,1-1.269-1.279,4.4,4.4,0,0,0-2.535-3.9,5.977,5.977,0,0,0-5.173.23,3.614,3.614,0,0,0-1.778,1.7,1.269,1.269,0,1,1-2.359-.937,6.117,6.117,0,0,1,2.975-3.022,8.556,8.556,0,0,1,7.421-.268,6.974,6.974,0,0,1,3.987,6.212A1.27,1.27,0,0,1,5170.521,2307.351Z" transform="translate(-5157.317 -2299.158)" fill="#37474f"/>
          </g>
          <g id="Grupo_26181" data-name="Grupo 26181" transform="translate(5.138 5.805)">
            <path id="Trazado_66959" data-name="Trazado 66959" d="M5158.588,2273.143a1.269,1.269,0,0,1-1.269-1.269v-12.5a10.645,10.645,0,0,1,10.564-10.7,10.454,10.454,0,0,1,7.089,2.783,1.269,1.269,0,0,1-1.718,1.869,7.923,7.923,0,0,0-5.371-2.113,8.1,8.1,0,0,0-8.025,8.163v12.5A1.269,1.269,0,0,1,5158.588,2273.143Z" transform="translate(-5157.319 -2248.676)" fill="#37474f"/>
          </g>
        </g>
      </g>
      <g id="Grupo_26190" data-name="Grupo 26190" transform="translate(57.432 74.652)">
        <g id="Grupo_26184" data-name="Grupo 26184">
          <path id="Trazado_66960" data-name="Trazado 66960" d="M5164.388,2583.177h-17.513a16.587,16.587,0,0,0-7.084,1.589l-4.088-2.677-2.454-1.607a1.945,1.945,0,0,0-2.839,2.394l1.108,2.743,1.8,4.46a17.234,17.234,0,0,0,13.556,27.509h17.513a17.208,17.208,0,0,0,0-34.412Z" transform="translate(-5128.651 -2578.887)" fill="#fff"/>
          <path id="Trazado_66961" data-name="Trazado 66961" d="M5158.387,2612.845h-17.513a18.5,18.5,0,0,1-14.993-28.948l-2.649-6.558a3.2,3.2,0,0,1,.945-3.728,3.134,3.134,0,0,1,3.767-.2l5.961,3.9a17.744,17.744,0,0,1,6.97-1.416h17.513a18.477,18.477,0,0,1,0,36.95Zm-32.192-37.43a.65.65,0,0,0-.407.158.677.677,0,0,0-.2.815l2.91,7.2a1.267,1.267,0,0,1-.157,1.231,15.965,15.965,0,0,0,12.536,25.484h17.513a15.938,15.938,0,0,0,0-31.873h-17.513a15.252,15.252,0,0,0-6.544,1.467,1.268,1.268,0,0,1-1.235-.087l-6.543-4.283A.645.645,0,0,0,5126.195,2575.415Z" transform="translate(-5122.649 -2572.875)" fill="#37474f"/>
        </g>
        <g id="Grupo_26189" data-name="Grupo 26189" transform="translate(10.177 14.594)">
          <g id="Grupo_26185" data-name="Grupo 26185" transform="translate(0.09)">
            <path id="Trazado_66962" data-name="Trazado 66962" d="M5184.239,2662.3a1.267,1.267,0,0,1-.883-.358l-1.5-1.454a1.269,1.269,0,1,1,1.765-1.824l.637.616,2.646-2.46a1.269,1.269,0,1,1,1.729,1.859l-3.528,3.281A1.265,1.265,0,0,1,5184.239,2662.3Z" transform="translate(-5181.467 -2656.482)" fill="#37474f"/>
          </g>
          <g id="Grupo_26186" data-name="Grupo 26186" transform="translate(0 7.841)">
            <path id="Trazado_66963" data-name="Trazado 66963" d="M5183.722,2707.22a1.267,1.267,0,0,1-.883-.358l-1.5-1.454a1.269,1.269,0,1,1,1.766-1.823l.637.616,2.646-2.46a1.269,1.269,0,0,1,1.729,1.859l-3.528,3.281A1.266,1.266,0,0,1,5183.722,2707.22Z" transform="translate(-5180.95 -2701.4)" fill="#37474f"/>
          </g>
          <g id="Grupo_26187" data-name="Grupo 26187" transform="translate(9.178 1.697)">
            <path id="Trazado_66964" data-name="Trazado 66964" d="M5256.692,2668.743H5234.8a1.269,1.269,0,0,1,0-2.538h21.892a1.269,1.269,0,0,1,0,2.538Z" transform="translate(-5233.531 -2666.205)" fill="#37474f"/>
          </g>
          <g id="Grupo_26188" data-name="Grupo 26188" transform="translate(9.314 8.996)">
            <path id="Trazado_66965" data-name="Trazado 66965" d="M5256.888,2710.559h-21.312a1.269,1.269,0,1,1,0-2.539h21.312a1.269,1.269,0,0,1,0,2.539Z" transform="translate(-5234.307 -2708.02)" fill="#37474f"/>
          </g>
        </g>
      </g>
    </g>
    <g id="organizational_skills" data-name="organizational skills" transform="translate(4063.464 1358.214)">
      <g id="Grupo_26210" data-name="Grupo 26210" transform="translate(0 0)">
        <g id="Grupo_26193" data-name="Grupo 26193" transform="translate(87.047 80.388)">
          <g id="Grupo_26192" data-name="Grupo 26192">
            <g id="Grupo_26191" data-name="Grupo 26191">
              <path id="Trazado_66966" data-name="Trazado 66966" d="M4601.662,2098.381a3.551,3.551,0,0,1,3.069-3.344l2.784-.384a3.556,3.556,0,0,0,2.692-1.932l1.263-2.521a3.549,3.549,0,0,1,6.377.05l1.224,2.54a3.558,3.558,0,0,0,2.662,1.974l2.777.427a3.574,3.574,0,0,1,1.923,6.1l-2.027,1.954a3.581,3.581,0,0,0-1.047,3.152l.454,2.784a3.569,3.569,0,0,1-2.749,4.07Z" transform="translate(-4600.393 -2086.966)" fill="#faf3d3"/>
              <path id="Trazado_66967" data-name="Trazado 66967" d="M4615.061,2108.524a1.269,1.269,0,0,1-.277-2.508,2.29,2.29,0,0,0,1.774-2.627l-.454-2.784a4.849,4.849,0,0,1,1.419-4.27l2.027-1.953a2.305,2.305,0,0,0-1.236-3.937l-2.777-.427a4.825,4.825,0,0,1-3.613-2.677l-1.224-2.54a2.28,2.28,0,0,0-4.1-.032l-1.263,2.52a4.825,4.825,0,0,1-3.653,2.621l-2.784.384a2.291,2.291,0,0,0-1.976,2.161,1.269,1.269,0,0,1-2.534-.15,4.8,4.8,0,0,1,4.164-4.526l2.784-.384a2.287,2.287,0,0,0,1.73-1.243l1.263-2.521a4.818,4.818,0,0,1,8.655.068l1.224,2.539a2.289,2.289,0,0,0,1.712,1.271l2.778.427a4.844,4.844,0,0,1,2.611,8.273l-2.027,1.954a2.31,2.31,0,0,0-.675,2.034l.453,2.784a4.856,4.856,0,0,1-3.723,5.512A1.269,1.269,0,0,1,4615.061,2108.524Z" transform="translate(-4594.389 -2080.964)" fill="#37474f"/>
            </g>
          </g>
        </g>
        <g id="Grupo_26197" data-name="Grupo 26197">
          <g id="Grupo_26196" data-name="Grupo 26196">
            <g id="Grupo_26194" data-name="Grupo 26194">
              <path id="Trazado_66968" data-name="Trazado 66968" d="M4155,1642.327v-7.611c0-3.854-3.487-7.008-7.75-7.008h-33.114l-11.151,9.665v46.122c0,3.854,3.487,7.008,7.75,7.008h25.375Z" transform="translate(-4101.718 -1626.439)" fill="#fff"/>
              <path id="Trazado_66969" data-name="Trazado 66969" d="M4130.11,1685.769h-25.375c-4.973,0-9.019-3.713-9.019-8.277V1631.37a1.27,1.27,0,0,1,.438-.959l11.152-9.665a1.265,1.265,0,0,1,.831-.31h33.114c4.973,0,9.019,3.713,9.019,8.277v7.611a1.269,1.269,0,1,1-2.538,0v-7.611c0-3.164-2.908-5.739-6.481-5.739H4108.61l-10.355,8.975v45.542c0,3.164,2.907,5.738,6.48,5.738h25.375a1.269,1.269,0,1,1,0,2.539Z" transform="translate(-4095.716 -1620.436)" fill="#37474f"/>
            </g>
            <g id="Grupo_26195" data-name="Grupo 26195">
              <path id="Trazado_66970" data-name="Trazado 66970" d="M4114.139,1627.708v7.443a2.553,2.553,0,0,1-2.692,2.368h-8.459Z" transform="translate(-4101.718 -1626.439)" fill="#fff"/>
              <path id="Trazado_66971" data-name="Trazado 66971" d="M4105.444,1632.786h-8.458a1.269,1.269,0,1,1,0-2.539h8.458a1.311,1.311,0,0,0,1.423-1.1v-7.443a1.269,1.269,0,1,1,2.538,0v7.443A3.814,3.814,0,0,1,4105.444,1632.786Z" transform="translate(-4095.716 -1620.436)" fill="#37474f"/>
            </g>
          </g>
        </g>
        <g id="Grupo_26198" data-name="Grupo 26198" transform="translate(9.108 25.605)">
          <path id="Trazado_66972" data-name="Trazado 66972" d="M4157.785,1769.66h-8.62a1.269,1.269,0,1,1,0-2.539h8.62a1.269,1.269,0,1,1,0,2.539Z" transform="translate(-4147.895 -1767.122)" fill="#37474f"/>
        </g>
        <g id="Grupo_26199" data-name="Grupo 26199" transform="translate(8.905 17.729)">
          <path id="Trazado_66973" data-name="Trazado 66973" d="M4165.646,1724.538H4148a1.269,1.269,0,0,1,0-2.538h17.649a1.269,1.269,0,1,1,0,2.538Z" transform="translate(-4146.728 -1722)" fill="#37474f"/>
        </g>
        <g id="Grupo_26205" data-name="Grupo 26205" transform="translate(17.729 15.071)">
          <g id="Grupo_26200" data-name="Grupo 26200" transform="translate(0 58.315)">
            <path id="Trazado_66974" data-name="Trazado 66974" d="M4204.552,2086.317v-14.993a23.48,23.48,0,0,1,23.614-23.2h19a23.606,23.606,0,0,1,23.131,18.542q.1.483.182.974l-.776,18.68Z" transform="translate(-4203.282 -2046.852)" fill="#fff"/>
            <path id="Trazado_66975" data-name="Trazado 66975" d="M4263.7,2081.584h-.054a1.269,1.269,0,0,1-1.215-1.321l.771-18.548q-.067-.4-.15-.792a22.343,22.343,0,0,0-21.89-17.534h-19a22.167,22.167,0,0,0-22.345,21.933v14.993a1.269,1.269,0,1,1-2.539,0v-14.993a24.708,24.708,0,0,1,24.883-24.472h19a24.892,24.892,0,0,1,24.374,19.55q.107.51.192,1.029a1.272,1.272,0,0,1,.015.259l-.775,18.68A1.27,1.27,0,0,1,4263.7,2081.584Z" transform="translate(-4197.28 -2040.85)" fill="#37474f"/>
          </g>
          <g id="Grupo_26201" data-name="Grupo 26201" transform="translate(23.614 54.718)">
            <path id="Trazado_66976" data-name="Trazado 66976" d="M4358.827,2027.515v4.255c0,3.6-4.274,6.541-9.5,6.541s-9.5-2.944-9.5-6.541v-4.255Z" transform="translate(-4338.562 -2026.246)" fill="#fff"/>
            <path id="Trazado_66977" data-name="Trazado 66977" d="M4343.326,2033.578c-5.937,0-10.768-3.5-10.768-7.81v-4.255a1.27,1.27,0,0,1,2.539,0v4.255c0,2.858,3.768,5.272,8.229,5.272s8.229-2.414,8.229-5.272v-4.255a1.269,1.269,0,1,1,2.538,0v4.255C4354.093,2030.074,4349.263,2033.578,4343.326,2033.578Z" transform="translate(-4332.559 -2020.243)" fill="#37474f"/>
          </g>
          <g id="Grupo_26202" data-name="Grupo 26202" transform="translate(2.883)">
            <path id="Trazado_66978" data-name="Trazado 66978" d="M4251.3,1714.047a23.026,23.026,0,0,0-22.87,20.815c-.034,0-.067-.005-.1-.005a7.241,7.241,0,1,0,0,14.482c.034,0,.067,0,.1-.005a22.971,22.971,0,0,0,45.739,0c.033,0,.067.005.1.005a7.241,7.241,0,1,0,0-14.482c-.034,0-.067,0-.1.005Z" transform="translate(-4219.799 -1712.778)" fill="#fff"/>
            <path id="Trazado_66979" data-name="Trazado 66979" d="M4245.295,1765.414a24.419,24.419,0,0,1-24.006-20.872,8.509,8.509,0,0,1,0-16.9,24.419,24.419,0,0,1,24.006-20.872,1.269,1.269,0,1,1,0,2.539,21.844,21.844,0,0,0-21.605,19.662,1.271,1.271,0,0,1-1.283,1.152l-.122-.006a5.972,5.972,0,0,0,.04,11.945l.083-.005a1.253,1.253,0,0,1,1.282,1.152,21.7,21.7,0,0,0,43.211,0,1.246,1.246,0,0,1,1.281-1.152l.123.006a5.972,5.972,0,0,0-.04-11.944l-.082,0a1.269,1.269,0,0,1-.039-2.538c.023,0,.072-.005.121-.005a8.51,8.51,0,0,1,1.036,16.958A24.42,24.42,0,0,1,4245.295,1765.414Z" transform="translate(-4213.797 -1706.775)" fill="#37474f"/>
          </g>
          <g id="Grupo_26203" data-name="Grupo 26203" transform="translate(29.164 70.393)">
            <path id="Trazado_66980" data-name="Trazado 66980" d="M4369.574,2136.054a5.222,5.222,0,0,1-5.219-5.215v-15.583a5.217,5.217,0,0,1,10.434,0v15.583A5.22,5.22,0,0,1,4369.574,2136.054Zm0-23.474a2.68,2.68,0,0,0-2.681,2.676v15.583a2.678,2.678,0,0,0,5.357,0v-15.583A2.679,2.679,0,0,0,4369.574,2112.581Z" transform="translate(-4364.355 -2110.042)" fill="#37474f"/>
          </g>
          <g id="Grupo_26204" data-name="Grupo 26204" transform="translate(10.282)">
            <path id="Trazado_66981" data-name="Trazado 66981" d="M4272.618,1730.025a4.552,4.552,0,0,0,9.078.558.033.033,0,0,1,.066,0,4.549,4.549,0,0,0,9.045,0,.033.033,0,0,1,.066,0,4.553,4.553,0,0,0,9.079-.558l.03-4.307v13.965a4.6,4.6,0,0,0,5.259,4.581,4.733,4.733,0,0,0,3.873-4.752v-19.918a5.507,5.507,0,0,0-5.466-5.547h-17.362c-20.888,1.521-22.824,20.739-22.831,20.814v4.822a4.6,4.6,0,0,0,5.258,4.581,4.733,4.733,0,0,0,3.873-4.752v-13.793Z" transform="translate(-4262.187 -1712.778)" fill="#faf3d3"/>
            <path id="Trazado_66982" data-name="Trazado 66982" d="M4298.559,1739.582a5.8,5.8,0,0,1-3.784-1.4,5.925,5.925,0,0,1-2.063-4.5v-4.816a11.018,11.018,0,0,0-12.429,1.05,5.781,5.781,0,0,0-9.112,0,5.748,5.748,0,0,1-3.316-1.051v4.645a6.013,6.013,0,0,1-4.952,6.008,5.8,5.8,0,0,1-4.654-1.339,5.922,5.922,0,0,1-2.063-4.5v-4.82c0-.043,0-.088.006-.131.021-.2,2.315-20.372,24-21.951.031,0,.065,0,.1,0h17.362a6.784,6.784,0,0,1,6.735,6.816v19.918a6.014,6.014,0,0,1-4.953,6.008A5.832,5.832,0,0,1,4298.559,1739.582Zm-4.578-21.135a1.27,1.27,0,0,1,1.269,1.269v13.965a3.391,3.391,0,0,0,1.18,2.572,3.223,3.223,0,0,0,2.62.754,3.461,3.461,0,0,0,2.794-3.5v-19.918a4.243,4.243,0,0,0-4.2-4.278h-17.317c-19.173,1.421-21.456,18.273-21.606,19.613v4.754a3.389,3.389,0,0,0,1.18,2.572,3.222,3.222,0,0,0,2.62.754,3.461,3.461,0,0,0,2.794-3.5v-13.793a1.269,1.269,0,0,1,2.538-.009l.031,4.306a3.283,3.283,0,0,0,6.548.416,1.3,1.3,0,0,1,2.587,0,3.279,3.279,0,0,0,6.524,0,1.3,1.3,0,0,1,2.587,0,3.283,3.283,0,0,0,6.549-.406l.031-4.315A1.269,1.269,0,0,1,4293.98,1718.447Z" transform="translate(-4256.184 -1706.775)" fill="#37474f"/>
          </g>
        </g>
        <g id="Grupo_26208" data-name="Grupo 26208" transform="translate(68.535 90.521)">
          <g id="Grupo_26207" data-name="Grupo 26207">
            <g id="Grupo_26206" data-name="Grupo 26206">
              <path id="Trazado_66983" data-name="Trazado 66983" d="M4521.076,2183.321l-3.718-2a5.318,5.318,0,0,0-4.968-.039l-3.749,1.942a5.342,5.342,0,0,1-7.7-5.71l.745-4.169a5.373,5.373,0,0,0-1.5-4.756l-3-2.979a5.365,5.365,0,0,1,3.028-9.118l4.18-.577a5.336,5.336,0,0,0,4.041-2.9l1.9-3.783a5.328,5.328,0,0,1,9.572.075l1.837,3.812a5.342,5.342,0,0,0,4,2.963l4.169.642a5.365,5.365,0,0,1,2.888,9.164l-3.043,2.932a5.372,5.372,0,0,0-1.571,4.732l.68,4.179A5.342,5.342,0,0,1,4521.076,2183.321Z" transform="translate(-4494.334 -2145.013)" fill="#48b1e2"/>
              <path id="Trazado_66984" data-name="Trazado 66984" d="M4517.6,2179.23a6.586,6.586,0,0,1-3.126-.793l-3.718-2a4.049,4.049,0,0,0-3.783-.029l-3.748,1.942a6.611,6.611,0,0,1-9.534-7.06l.745-4.169a4.1,4.1,0,0,0-1.144-3.632l-3-2.98a6.634,6.634,0,0,1,3.75-11.275l4.178-.576a4.069,4.069,0,0,0,3.08-2.212l1.9-3.783a6.6,6.6,0,0,1,11.85.092l1.837,3.812a4.071,4.071,0,0,0,3.046,2.26l4.169.642a6.634,6.634,0,0,1,3.575,11.332l-3.044,2.933a4.105,4.105,0,0,0-1.2,3.614l.681,4.18a6.63,6.63,0,0,1-6.515,7.7Zm-8.764-5.816a6.585,6.585,0,0,1,3.122.787l3.718,2a3.975,3.975,0,0,0,4.271-.27,4.021,4.021,0,0,0,1.663-4l-.681-4.18a6.64,6.64,0,0,1,1.944-5.85l3.043-2.933a4.1,4.1,0,0,0-2.2-7l-4.169-.642a6.609,6.609,0,0,1-4.947-3.667l-1.837-3.812a4.058,4.058,0,0,0-7.293-.057l-1.9,3.783a6.607,6.607,0,0,1-5,3.589l-4.179.576a4.1,4.1,0,0,0-2.308,6.96l3,2.979a6.644,6.644,0,0,1,1.854,5.879l-.746,4.169a4.022,4.022,0,0,0,1.6,4.023,3.975,3.975,0,0,0,4.267.336l3.749-1.942A6.586,6.586,0,0,1,4508.839,2173.414Z" transform="translate(-4488.336 -2139.01)" fill="#37474f"/>
            </g>
          </g>
        </g>
        <g id="Grupo_26209" data-name="Grupo 26209" transform="translate(80.882 103.745)">
          <ellipse id="Elipse_2808" data-name="Elipse 2808" cx="7.073" cy="7.177" rx="7.073" ry="7.177" transform="translate(1.269 1.269)" fill="#fff"/>
          <path id="Trazado_66985" data-name="Trazado 66985" d="M4567.414,2231.66a8.447,8.447,0,1,1,8.343-8.447A8.4,8.4,0,0,1,4567.414,2231.66Zm0-14.355a5.909,5.909,0,1,0,5.8,5.908A5.863,5.863,0,0,0,4567.414,2217.306Z" transform="translate(-4559.072 -2214.767)" fill="#37474f"/>
        </g>
      </g>
      <g id="Grupo_26220" data-name="Grupo 26220" transform="translate(88.268 20.964)">
        <g id="Grupo_26213" data-name="Grupo 26213" transform="translate(1.141 38.47)">
          <g id="Grupo_26211" data-name="Grupo 26211" transform="translate(21.819)">
            <path id="Trazado_66986" data-name="Trazado 66986" d="M4734.184,1975.86a1.27,1.27,0,0,1-1.021-2.022l3.913-5.312-3.93-5.6a1.269,1.269,0,1,1,2.078-1.458l4.454,6.349a1.269,1.269,0,0,1-.017,1.482l-4.454,6.046A1.268,1.268,0,0,1,4734.184,1975.86Z" transform="translate(-4732.916 -1960.925)" fill="#37474f"/>
          </g>
          <g id="Grupo_26212" data-name="Grupo 26212" transform="translate(0 6.198)">
            <path id="Trazado_66987" data-name="Trazado 66987" d="M4634.2,1998.972h-25.009a1.269,1.269,0,0,1,0-2.539H4634.2a1.269,1.269,0,1,1,0,2.539Z" transform="translate(-4607.92 -1996.434)" fill="#37474f"/>
          </g>
        </g>
        <g id="Grupo_26216" data-name="Grupo 26216" transform="translate(0.509 19.248)">
          <g id="Grupo_26214" data-name="Grupo 26214" transform="translate(21.819)">
            <path id="Trazado_66988" data-name="Trazado 66988" d="M4730.563,1865.74a1.27,1.27,0,0,1-1.021-2.022l3.913-5.312-3.93-5.6a1.269,1.269,0,1,1,2.079-1.458l4.454,6.35a1.269,1.269,0,0,1-.018,1.481l-4.454,6.047A1.267,1.267,0,0,1,4730.563,1865.74Z" transform="translate(-4729.294 -1850.805)" fill="#37474f"/>
          </g>
          <g id="Grupo_26215" data-name="Grupo 26215" transform="translate(0 6.198)">
            <path id="Trazado_66989" data-name="Trazado 66989" d="M4630.578,1888.851h-25.009a1.269,1.269,0,0,1,0-2.538h25.009a1.269,1.269,0,0,1,0,2.538Z" transform="translate(-4604.3 -1886.313)" fill="#37474f"/>
          </g>
        </g>
        <g id="Grupo_26219" data-name="Grupo 26219">
          <g id="Grupo_26217" data-name="Grupo 26217" transform="translate(21.819)">
            <path id="Trazado_66990" data-name="Trazado 66990" d="M4727.648,1755.472a1.269,1.269,0,0,1-1.021-2.022l3.912-5.312-3.93-5.6a1.269,1.269,0,1,1,2.079-1.458l4.454,6.35a1.269,1.269,0,0,1-.017,1.482l-4.454,6.047A1.267,1.267,0,0,1,4727.648,1755.472Z" transform="translate(-4726.379 -1740.537)" fill="#37474f"/>
          </g>
          <g id="Grupo_26218" data-name="Grupo 26218" transform="translate(0 6.198)">
            <path id="Trazado_66991" data-name="Trazado 66991" d="M4627.662,1778.584h-25.008a1.269,1.269,0,1,1,0-2.539h25.008a1.269,1.269,0,0,1,0,2.539Z" transform="translate(-4601.384 -1776.045)" fill="#37474f"/>
          </g>
        </g>
      </g>
    </g>
    <g id="negotiation_skills" data-name="negotiation skills" transform="translate(4184.921 1311.63)">
      <g id="Grupo_26226" data-name="Grupo 26226" transform="translate(0 0)">
        <g id="Grupo_26221" data-name="Grupo 26221" transform="translate(62.612 16.016)">
          <path id="Trazado_66992" data-name="Trazado 66992" d="M5174.919,1456.331h15.069a20.509,20.509,0,0,1,8.758,1.964l5.053-3.308,3.034-1.986a2.4,2.4,0,0,1,3.509,2.96l-1.369,3.39-2.228,5.514a21.3,21.3,0,0,1-16.757,34.006h-32.514Z" transform="translate(-5156.205 -1451.33)" fill="#faf3d3"/>
          <path id="Trazado_66993" data-name="Trazado 66993" d="M5183.986,1494.13h-32.514a1.269,1.269,0,1,1,0-2.539h32.514a20.035,20.035,0,0,0,15.737-31.982,1.269,1.269,0,0,1-.156-1.231l3.6-8.9a1.138,1.138,0,0,0-.338-1.352,1.064,1.064,0,0,0-1.3-.071l-8.087,5.295a1.268,1.268,0,0,1-1.236.087,19.151,19.151,0,0,0-8.217-1.843h-15.069a1.269,1.269,0,0,1,0-2.539h15.069a21.639,21.639,0,0,1,8.644,1.79l7.505-4.914a3.578,3.578,0,0,1,4.3.233,3.654,3.654,0,0,1,1.081,4.264l-3.335,8.257a22.573,22.573,0,0,1-18.2,35.448Z" transform="translate(-5150.202 -1445.319)" fill="#37474f"/>
        </g>
        <g id="Grupo_26222" data-name="Grupo 26222">
          <path id="Trazado_66994" data-name="Trazado 66994" d="M4868.767,1417.251a27.873,27.873,0,0,0-14.266-51.532h-28.308a26.814,26.814,0,0,0-11.451,2.568l-6.608-4.326-3.967-2.6a3.143,3.143,0,0,0-4.588,3.87l1.791,4.433,2.912,7.21a27.919,27.919,0,0,0,16.81,43.98Z" transform="translate(-4797.517 -1359.571)" fill="#fff"/>
          <path id="Trazado_66995" data-name="Trazado 66995" d="M4815.089,1416.12a1.273,1.273,0,0,1-.242-.023,29.187,29.187,0,0,1-18.008-45.4L4792.4,1359.7a4.394,4.394,0,0,1,1.3-5.128,4.294,4.294,0,0,1,5.162-.279l9.989,6.541a27.923,27.923,0,0,1,11.342-2.392H4848.5a29.142,29.142,0,0,1,14.937,53.878,1.269,1.269,0,0,1-1.342-2.155,26.6,26.6,0,0,0-13.595-49.185h-28.308a25.432,25.432,0,0,0-10.912,2.447,1.269,1.269,0,0,1-1.236-.086l-10.575-6.924a1.769,1.769,0,0,0-2.16.118,1.877,1.877,0,0,0-.557,2.215l4.7,11.643a1.268,1.268,0,0,1-.157,1.231,26.649,26.649,0,0,0,16.03,41.978,1.269,1.269,0,0,1-.239,2.516Z" transform="translate(-4791.514 -1353.565)" fill="#37474f"/>
        </g>
        <g id="Grupo_26225" data-name="Grupo 26225" transform="translate(16.432 19.965)">
          <g id="Grupo_26223" data-name="Grupo 26223">
            <path id="Trazado_66996" data-name="Trazado 66996" d="M4919.808,1482.612H4918v-7.4h-19.97a5.164,5.164,0,0,0-5.111,5.187v15.079a5.164,5.164,0,0,0,5.111,5.187H4918v-8.791h1.807a4.631,4.631,0,0,0,0-9.26Z" transform="translate(-4891.651 -1473.943)" fill="#faf3d3"/>
            <path id="Trazado_66997" data-name="Trazado 66997" d="M4912,1495.93h-19.97a6.426,6.426,0,0,1-6.381-6.456V1474.4a6.426,6.426,0,0,1,6.381-6.456H4912a1.269,1.269,0,0,1,1.269,1.269v6.131h.538a5.9,5.9,0,0,1,0,11.8h-.538v7.522A1.269,1.269,0,0,1,4912,1495.93Zm-19.97-25.452a3.884,3.884,0,0,0-3.842,3.917v15.079a3.884,3.884,0,0,0,3.842,3.917h18.7v-7.522a1.27,1.27,0,0,1,1.27-1.269h1.807a3.361,3.361,0,0,0,0-6.721H4912a1.27,1.27,0,0,1-1.27-1.27v-6.131Z" transform="translate(-4885.648 -1467.94)" fill="#37474f"/>
          </g>
          <g id="Grupo_26224" data-name="Grupo 26224" transform="translate(25.177)">
            <path id="Trazado_66998" data-name="Trazado 66998" d="M5038.963,1491.873a4.62,4.62,0,0,0,4.506-5.363,4.675,4.675,0,0,0-4.645-3.9h-1.668v-7.4h19.97a5.164,5.164,0,0,1,5.111,5.187v15.079a5.164,5.164,0,0,1-5.111,5.187h-19.97v-8.791Z" transform="translate(-5035.888 -1473.943)" fill="#48b1e2"/>
            <path id="Trazado_66999" data-name="Trazado 66999" d="M5051.125,1495.93h-19.97a1.269,1.269,0,0,1-1.27-1.269v-8.791a1.269,1.269,0,0,1,1.27-1.269h1.806a3.269,3.269,0,0,0,2.477-1.154,3.371,3.371,0,0,0,.775-2.747,3.41,3.41,0,0,0-3.39-2.821h-1.668a1.269,1.269,0,0,1-1.27-1.269v-7.4a1.269,1.269,0,0,1,1.27-1.269h19.97a6.426,6.426,0,0,1,6.381,6.456v15.079A6.426,6.426,0,0,1,5051.125,1495.93Zm-18.7-2.539h18.7a3.885,3.885,0,0,0,3.842-3.917V1474.4a3.885,3.885,0,0,0-3.842-3.917h-18.7v4.862h.4a5.9,5.9,0,0,1,4.542,9.759,5.8,5.8,0,0,1-4.4,2.039h-.537Z" transform="translate(-5029.885 -1467.94)" fill="#37474f"/>
          </g>
        </g>
      </g>
      <g id="Grupo_26243" data-name="Grupo 26243" transform="translate(13.401 52.754)">
        <g id="Grupo_26228" data-name="Grupo 26228" transform="translate(38.543 1.269)">
          <g id="Grupo_26227" data-name="Grupo 26227">
            <path id="Trazado_67000" data-name="Trazado 67000" d="M5131.419,1699.472a12.525,12.525,0,0,0,.952-5.87l.948-.67,7.878-6.092-17.058-23.785-8.287,6.409-1.744,1.323-25.018,5.734Z" transform="translate(-5089.091 -1663.055)" fill="#fff"/>
          </g>
        </g>
        <g id="Grupo_26232" data-name="Grupo 26232" transform="translate(37.274 0)">
          <g id="Grupo_26231" data-name="Grupo 26231">
            <g id="Grupo_26229" data-name="Grupo 26229">
              <path id="Trazado_67001" data-name="Trazado 67001" d="M5083.085,1671.788a1.269,1.269,0,0,1-.283-2.507l24.751-5.673,1.526-1.157,8.278-6.4a1.269,1.269,0,1,1,1.553,2.008l-10.041,7.739a1.266,1.266,0,0,1-.483.226l-25.018,5.734A1.267,1.267,0,0,1,5083.085,1671.788Z" transform="translate(-5081.816 -1655.784)" fill="#37474f"/>
            </g>
            <g id="Grupo_26230" data-name="Grupo 26230" transform="translate(42.329 23.785)">
              <path id="Trazado_67002" data-name="Trazado 67002" d="M5325.578,1807.214a1.269,1.269,0,0,1-1.181-1.732,11.543,11.543,0,0,0,.878-5.227,1.28,1.28,0,0,1,.523-1.217l.948-.67,7.833-6.06a1.269,1.269,0,0,1,1.553,2.008l-8.289,6.383a14.9,14.9,0,0,1-1.083,5.708A1.269,1.269,0,0,1,5325.578,1807.214Z" transform="translate(-5324.309 -1792.043)" fill="#37474f"/>
            </g>
          </g>
        </g>
        <path id="Trazado_67003" data-name="Trazado 67003" d="M4885.912,1700.775a13.179,13.179,0,0,1-1.53-7.173l-.948-.67-7.878-6.092,17.058-23.785,8.287,6.409,1.744,1.323.707.515,20.983,5.97,6.708,4.475,4.231,2.963,11.828,8.622,7.136,5.2c2.157,1.572,2.427,5,.6,7.616s-5.087,3.47-7.244,1.9l-14.243-10.382Z" transform="translate(-4874.286 -1661.786)" fill="#fff"/>
        <g id="Grupo_26233" data-name="Grupo 26233" transform="translate(17.057)">
          <path id="Trazado_67004" data-name="Trazado 67004" d="M5024.736,1704.1a5.449,5.449,0,0,1-3.232-1.032l-14.243-10.382a1.269,1.269,0,0,1,1.5-2.051L5023,1701.018a3.039,3.039,0,0,0,2.327.495,4.9,4.9,0,0,0,3.129-2.094c1.415-2.026,1.274-4.71-.307-5.863l-18.963-13.824-4.212-2.949-6.52-4.348-20.791-5.915a1.273,1.273,0,0,1-.4-.194l-.708-.515-1.764-1.337-8.3-6.416a1.27,1.27,0,0,1,1.554-2.008l10.526,8.091,20.766,5.908a1.272,1.272,0,0,1,.357.165l6.709,4.475,4.254,2.98,18.983,13.838c2.717,1.981,3.117,6.183.893,9.368a7.452,7.452,0,0,1-4.792,3.144A6.127,6.127,0,0,1,5024.736,1704.1Z" transform="translate(-4966.002 -1655.784)" fill="#37474f"/>
        </g>
        <g id="Grupo_26234" data-name="Grupo 26234" transform="translate(0 23.785)">
          <path id="Trazado_67005" data-name="Trazado 67005" d="M4879.91,1808.516a1.269,1.269,0,0,1-1.138-.7,15.4,15.4,0,0,1-1.707-7.112l-.367-.259-7.922-6.125a1.269,1.269,0,0,1,1.553-2.008l7.878,6.092.9.637a1.268,1.268,0,0,1,.522,1.224,12.19,12.19,0,0,0,1.412,6.42,1.269,1.269,0,0,1-1.135,1.835Z" transform="translate(-4868.284 -1792.043)" fill="#37474f"/>
        </g>
        <g id="Grupo_26235" data-name="Grupo 26235" transform="translate(16.51 29.558)">
          <path id="Trazado_67006" data-name="Trazado 67006" d="M5004.4,1832.388l12.5,9.1,7.542,5.487c2.28,1.659,2.661,5.117.847,7.684s-5.164,3.311-7.444,1.652l-20.043-14.583-1.421-1.034,17.883,13.011c2.691,1.958,3.486,5.55,1.767,7.983s-5.328,2.822-8.019.864l-3.7-2.391-1.632-1.314,1.632,1.314c3.125,2.356,4.272,6.272,2.549,8.7s-5.691,2.492-8.817.136l-4.59-3.46-23.32-20.485Z" transform="translate(-4968.869 -1831.119)" fill="#fff"/>
          <path id="Trazado_67007" data-name="Trazado 67007" d="M4996.868,1865.992a9.41,9.41,0,0,1-5.586-1.985l-4.59-3.46c-.025-.019-.05-.039-.073-.06L4963.3,1840a1.269,1.269,0,0,1,1.676-1.907l23.284,20.453,4.552,3.431a6.606,6.606,0,0,0,4.806,1.417,3.259,3.259,0,0,0,2.211-1.273c1.312-1.85.27-5.035-2.277-6.954l-1.665-1.339a1.269,1.269,0,0,1,1.592-1.978l1.582,1.273,3.642,2.355a5.086,5.086,0,0,0,3.793.985,3.761,3.761,0,0,0,2.5-1.516c1.325-1.875.663-4.668-1.478-6.225l-17.882-13.011a1.269,1.269,0,1,1,1.493-2.053l21.465,15.617a3.5,3.5,0,0,0,2.653.589,4.676,4.676,0,0,0,3.007-1.947c1.42-2.01,1.17-4.668-.558-5.925l-20.043-14.583a1.269,1.269,0,0,1,1.493-2.053l20.044,14.584c2.843,2.069,3.353,6.305,1.137,9.443a7.232,7.232,0,0,1-4.668,2.987,6.116,6.116,0,0,1-3.5-.427,6.389,6.389,0,0,1-1.093,4.47,6.284,6.284,0,0,1-4.16,2.555,7.426,7.426,0,0,1-4.211-.571,6.223,6.223,0,0,1-.8,5.192,5.775,5.775,0,0,1-3.892,2.313A7.406,7.406,0,0,1,4996.868,1865.992Z" transform="translate(-4962.865 -1825.116)" fill="#37474f"/>
        </g>
        <g id="Grupo_26241" data-name="Grupo 26241" transform="translate(5.23 28.089)">
          <g id="Grupo_26240" data-name="Grupo 26240">
            <g id="Grupo_26236" data-name="Grupo 26236" transform="translate(24.231 19.656)">
              <path id="Trazado_67008" data-name="Trazado 67008" d="M5064.827,1938.446l.128.181a4.517,4.517,0,0,1-1.021,6.224l-12.517,9.079a4.368,4.368,0,0,1-6.133-1.035l-.127-.181a4.517,4.517,0,0,1,1.021-6.224l12.517-9.079A4.369,4.369,0,0,1,5064.827,1938.446Z" transform="translate(-5043.07 -1935.312)" fill="#fff"/>
              <path id="Trazado_67009" data-name="Trazado 67009" d="M5042.871,1950.02a5.718,5.718,0,0,1-.937-.078,5.615,5.615,0,0,1-3.7-2.324l-.128-.182a5.783,5.783,0,0,1,1.313-7.982l12.518-9.079a5.637,5.637,0,0,1,7.916,1.332l.128.182a5.782,5.782,0,0,1-1.313,7.982l-12.517,9.079A5.568,5.568,0,0,1,5042.871,1950.02Zm12.358-18.176a3.051,3.051,0,0,0-1.8.586l-12.517,9.079a3.235,3.235,0,0,0-.728,4.466l.128.182a3.094,3.094,0,0,0,2.037,1.282,3.058,3.058,0,0,0,2.313-.543l12.517-9.079a3.236,3.236,0,0,0,.728-4.466l-.128-.182a3.1,3.1,0,0,0-2.038-1.282A3.131,3.131,0,0,0,5055.229,1931.844Z" transform="translate(-5037.062 -1929.305)" fill="#37474f"/>
            </g>
            <g id="Grupo_26237" data-name="Grupo 26237" transform="translate(16.423 13.448)">
              <path id="Trazado_67010" data-name="Trazado 67010" d="M5021.174,1902.925a4.63,4.63,0,0,1-1.045,6.379l-13.4,9.719a4.477,4.477,0,0,1-6.287-1.061,4.63,4.63,0,0,1,1.045-6.38l13.4-9.719A4.478,4.478,0,0,1,5021.174,1902.925Z" transform="translate(-4998.335 -1899.745)" fill="#fff"/>
              <path id="Trazado_67011" data-name="Trazado 67011" d="M4998.12,1915.134a5.832,5.832,0,0,1-.956-.079,5.726,5.726,0,0,1-3.768-2.369,5.9,5.9,0,0,1,1.338-8.138l13.4-9.719a5.746,5.746,0,0,1,8.069,1.358,5.9,5.9,0,0,1-1.338,8.138l-13.4,9.719A5.674,5.674,0,0,1,4998.12,1915.134Zm13.367-18.857a3.158,3.158,0,0,0-1.862.606l-13.4,9.719a3.347,3.347,0,0,0-.753,4.621,3.2,3.2,0,0,0,2.109,1.327,3.163,3.163,0,0,0,2.395-.562l13.4-9.719a3.347,3.347,0,0,0,.753-4.621,3.2,3.2,0,0,0-2.109-1.327A3.241,3.241,0,0,0,5011.487,1896.277Z" transform="translate(-4992.328 -1893.738)" fill="#37474f"/>
            </g>
            <g id="Grupo_26238" data-name="Grupo 26238" transform="translate(7.499 6.644)">
              <path id="Trazado_67012" data-name="Trazado 67012" d="M4965.95,1862.7c1.814-1.316,4.542-.626,6.063,1.533s1.281,5-.533,6.318l-15.948,11.567c-1.814,1.316-4.542.626-6.063-1.534s-1.281-5,.533-6.318l6-4.353Z" transform="translate(-4947.201 -1860.762)" fill="#fff"/>
              <path id="Trazado_67013" data-name="Trazado 67013" d="M4947.428,1878.053a5.371,5.371,0,0,1-.883-.074,6.392,6.392,0,0,1-4.108-2.666c-1.921-2.729-1.552-6.352.826-8.077l15.948-11.567a4.933,4.933,0,0,1,3.739-.836,6.392,6.392,0,0,1,4.108,2.666c1.921,2.729,1.551,6.352-.826,8.077l-15.948,11.567A4.834,4.834,0,0,1,4947.428,1878.053Zm14.634-20.754a2.278,2.278,0,0,0-1.36.426l-15.949,11.568c-1.238.9-1.349,2.986-.24,4.56a3.841,3.841,0,0,0,2.448,1.624,2.408,2.408,0,0,0,1.833-.386l15.948-11.568c1.238-.9,1.349-2.987.241-4.56a3.843,3.843,0,0,0-2.449-1.623A2.88,2.88,0,0,0,4962.062,1857.3Z" transform="translate(-4941.207 -1854.761)" fill="#37474f"/>
            </g>
            <g id="Grupo_26239" data-name="Grupo 26239">
              <path id="Trazado_67014" data-name="Trazado 67014" d="M4922.978,1824.63c1.814-1.318,4.552-.6,6.084,1.6s1.3,5.079-.513,6.4l-15.949,11.59c-1.814,1.318-4.552.6-6.083-1.6s-1.3-5.079.513-6.4l6-4.361Z" transform="translate(-4904.236 -1822.701)" fill="#fff"/>
              <path id="Trazado_67015" data-name="Trazado 67015" d="M4904.527,1840.148a5.363,5.363,0,0,1-.888-.075,6.465,6.465,0,0,1-4.154-2.732c-1.929-2.769-1.566-6.424.808-8.149l15.949-11.59a4.88,4.88,0,0,1,3.717-.826,6.463,6.463,0,0,1,4.154,2.732c1.927,2.769,1.565,6.425-.809,8.149l-15.949,11.59A4.778,4.778,0,0,1,4904.527,1840.148Zm13.208-20.492-15.949,11.59c-1.242.9-1.342,3.03-.218,4.646a3.917,3.917,0,0,0,2.494,1.679,2.352,2.352,0,0,0,1.8-.377l15.949-11.59c1.243-.9,1.342-3.03.217-4.646a3.916,3.916,0,0,0-2.493-1.679,2.357,2.357,0,0,0-1.8.377Z" transform="translate(-4898.246 -1816.7)" fill="#37474f"/>
            </g>
          </g>
        </g>
        <g id="Grupo_26242" data-name="Grupo 26242" transform="translate(17.927 1.989)">
          <path id="Trazado_67016" data-name="Trazado 67016" d="M5009.113,1686.507l-22.791,8.045a6.063,6.063,0,0,1-7.724-3.792,6.2,6.2,0,0,1,3.737-7.839l22.791-8.045s12.037-4.395,21.349,10.008Z" transform="translate(-4976.992 -1673.011)" fill="#fff"/>
          <path id="Trazado_67017" data-name="Trazado 67017" d="M4978.328,1690.332a7.265,7.265,0,0,1-3.169-.733,7.341,7.341,0,0,1-3.771-4.259,7.461,7.461,0,0,1,4.516-9.447l22.79-8.045c.117-.043,13.088-4.563,22.837,10.516a1.269,1.269,0,1,1-2.132,1.378c-8.615-13.325-19.4-9.666-19.852-9.5l-22.8,8.048a4.915,4.915,0,0,0-2.959,6.23,4.821,4.821,0,0,0,2.476,2.8,4.687,4.687,0,0,0,3.626.21l22.791-8.045a1.269,1.269,0,1,1,.845,2.394l-22.791,8.045A7.216,7.216,0,0,1,4978.328,1690.332Z" transform="translate(-4970.982 -1667.179)" fill="#37474f"/>
        </g>
      </g>
    </g>
  </g>
</svg>
