<svg xmlns="http://www.w3.org/2000/svg" width="354.746" height="309.966" viewBox="0 0 354.746 309.966">
  <g id="Grupo_28549" data-name="Grupo 28549" transform="translate(1787 4041.311)">
    <path id="Trazado_68985" data-name="Trazado 68985" d="M33.247,5.772a4.884,4.884,0,0,1,3.74,1.51A5.254,5.254,0,0,1,38.4,11.017,5.125,5.125,0,0,1,37,14.728a4.972,4.972,0,0,1-3.751,1.454h-3.38V22H26.5V5.772Zm-.562,7.592a2.476,2.476,0,0,0,1.853-.635,2.413,2.413,0,0,0,.618-1.758,2.393,2.393,0,0,0-.623-1.735,2.454,2.454,0,0,0-1.847-.646H29.867v4.773ZM43.9,12.286A3.748,3.748,0,0,1,45.421,10.9a4.626,4.626,0,0,1,2.257-.578v2.886a4.374,4.374,0,0,0-2.763.7,3.04,3.04,0,0,0-.854,2.471V22H40.805V10.455h3.1Zm16.464,3.773-.034.775H51.777a2.989,2.989,0,0,0,.921,2.111,2.945,2.945,0,0,0,2.033.73,2.838,2.838,0,0,0,1.522-.4,2.451,2.451,0,0,0,.971-1.162l2.965.438a5.04,5.04,0,0,1-2.021,2.707,6.01,6.01,0,0,1-3.414.966,6.25,6.25,0,0,1-4.5-1.589,5.8,5.8,0,0,1-1.668-4.408,5.833,5.833,0,0,1,1.673-4.408,6.064,6.064,0,0,1,4.391-1.612A5.8,5.8,0,0,1,58.8,11.679,5.771,5.771,0,0,1,60.369,16.059ZM54.675,12.5a2.556,2.556,0,0,0-2.808,2.224h5.3a2.431,2.431,0,0,0-.8-1.651A2.527,2.527,0,0,0,54.675,12.5Zm16.1-2.044h3.077v10.68a8.636,8.636,0,0,1-.432,2.875,4.741,4.741,0,0,1-1.252,1.971,5.219,5.219,0,0,1-1.92,1.106,8.1,8.1,0,0,1-2.516.359q-4.571,0-5.952-3.583l2.684-1.146a3.917,3.917,0,0,0,1.247,1.673,3.178,3.178,0,0,0,1.9.539q3,0,3-3.56V20.023a3.637,3.637,0,0,1-1.454,1.14,4.835,4.835,0,0,1-2.05.432A5.17,5.17,0,0,1,63.4,20.04a5.333,5.333,0,0,1-1.14-1.814,6.7,6.7,0,0,1,0-4.677,5.118,5.118,0,0,1,1.146-1.791,5.271,5.271,0,0,1,1.685-1.123,5.2,5.2,0,0,1,2.038-.4,4.7,4.7,0,0,1,2.139.477A3.412,3.412,0,0,1,70.7,11.982Zm-4.958,7.637a2.963,2.963,0,0,0,4.24-.011,3.227,3.227,0,0,0,.006-4.391,2.989,2.989,0,0,0-4.256-.017,3.071,3.071,0,0,0-.848,2.218A3.04,3.04,0,0,0,65.821,18.092Zm19.041-7.637H88.1V22H85.031l-.079-1.393a4.409,4.409,0,0,1-3.672,1.617,4.5,4.5,0,0,1-3.189-1.039,3.852,3.852,0,0,1-1.112-2.959V10.455h3.246V17.53a2,2,0,0,0,.578,1.583,2.2,2.2,0,0,0,1.5.505,2.6,2.6,0,0,0,1.836-.657,2.822,2.822,0,0,0,.724-2.139Zm13.4-.225a4.5,4.5,0,0,1,3.189,1.039,3.852,3.852,0,0,1,1.112,2.959V22H99.316V14.925a2.011,2.011,0,0,0-.578-1.595,2.179,2.179,0,0,0-1.488-.505,3.04,3.04,0,0,0-.966.146,2.481,2.481,0,0,0-.809.455,2.01,2.01,0,0,0-.578.87,4.025,4.025,0,0,0-.219,1.336V22H91.443V10.455h3.234v1.28A4.448,4.448,0,0,1,98.26,10.23ZM110,22a3.487,3.487,0,0,1-2.605-.938,3.647,3.647,0,0,1-.921-2.667V12.937H104.2V10.455h.73a1.9,1.9,0,0,0,1.438-.483,2.486,2.486,0,0,0,.46-1.718V6.727h2.92v3.729h2.381v2.482h-2.381v5.11q0,1.494,1.336,1.494h1.044V22Zm14.061-3.133a10.8,10.8,0,0,0,.281,2.819V22h-3.021l-.258-1.258a3.754,3.754,0,0,1-1.617,1.112,5.96,5.96,0,0,1-2.089.371,5.493,5.493,0,0,1-1.078-.1,3.665,3.665,0,0,1-.971-.343,2.948,2.948,0,0,1-.8-.6,2.635,2.635,0,0,1-.539-.915,3.646,3.646,0,0,1-.2-1.252,3.473,3.473,0,0,1,.213-1.252,2.935,2.935,0,0,1,.562-.938,3.406,3.406,0,0,1,.91-.685,6.961,6.961,0,0,1,1.146-.494,13.687,13.687,0,0,1,1.37-.359l1.9-.427a2.093,2.093,0,0,0,.859-.365.728.728,0,0,0,.253-.578A1.191,1.191,0,0,0,120.4,12.8a2.648,2.648,0,0,0-1.376-.337,1.98,1.98,0,0,0-2.257,1.763l-2.864-.517a3.877,3.877,0,0,1,1.673-2.634,6.651,6.651,0,0,1,3.627-.848q4.852,0,4.852,4.167Zm-5.694,1.168a2.6,2.6,0,0,0,2-.837,3.526,3.526,0,0,0,.775-2.476l-2.74.775a3.238,3.238,0,0,0-1.151.472.969.969,0,0,0-.4.831,1.076,1.076,0,0,0,.427.915A1.766,1.766,0,0,0,118.363,20.035Zm12.9,2.19a6.452,6.452,0,0,1-3.369-.809,3.418,3.418,0,0,1-1.651-2.4l2.707-.764a2.175,2.175,0,0,0,2.313,1.718,2.389,2.389,0,0,0,1.179-.264.919.919,0,0,0,.46-.893.944.944,0,0,0-.191-.6,1.512,1.512,0,0,0-.59-.427,7.346,7.346,0,0,0-.786-.3q-.387-.124-1.028-.3t-1.067-.331a7.147,7.147,0,0,1-1.016-.432,4.335,4.335,0,0,1-.842-.6,2.4,2.4,0,0,1-.629-.9,3.261,3.261,0,0,1-.219-1.235,2.95,2.95,0,0,1,1.252-2.583,5.6,5.6,0,0,1,3.274-.876,5.736,5.736,0,0,1,3.021.741,3.355,3.355,0,0,1,1.55,2.313l-2.5.562a1.962,1.962,0,0,0-2.055-1.46,2.25,2.25,0,0,0-1.134.258.83.83,0,0,0-.449.764.875.875,0,0,0,.067.348.689.689,0,0,0,.236.281,3.44,3.44,0,0,0,.326.213,2.457,2.457,0,0,0,.46.185q.3.1.505.146l.59.152.6.157q.618.168,1.084.337a6.347,6.347,0,0,1,.994.472,3.567,3.567,0,0,1,.87.679,3.03,3.03,0,0,1,.567.955,3.526,3.526,0,0,1,.225,1.286,3.473,3.473,0,0,1-.387,1.673,2.908,2.908,0,0,1-1.061,1.129,5.165,5.165,0,0,1-1.5.606A7.777,7.777,0,0,1,131.267,22.225Zm16.149-9.939a3.748,3.748,0,0,1,1.516-1.387,4.626,4.626,0,0,1,2.257-.578v2.886a4.374,4.374,0,0,0-2.763.7,3.04,3.04,0,0,0-.854,2.471V22h-3.257V10.455h3.1Zm16.464,3.773-.034.775h-8.558a2.989,2.989,0,0,0,.921,2.111,2.945,2.945,0,0,0,2.033.73,2.838,2.838,0,0,0,1.522-.4,2.451,2.451,0,0,0,.971-1.162l2.965.438a5.04,5.04,0,0,1-2.021,2.707,6.01,6.01,0,0,1-3.414.966,6.25,6.25,0,0,1-4.5-1.589,5.8,5.8,0,0,1-1.668-4.408,5.833,5.833,0,0,1,1.673-4.408,6.064,6.064,0,0,1,4.391-1.612,5.8,5.8,0,0,1,4.144,1.471A5.771,5.771,0,0,1,163.88,16.059Zm-5.694-3.56a2.556,2.556,0,0,0-2.808,2.224h5.3a2.431,2.431,0,0,0-.8-1.651A2.527,2.527,0,0,0,158.186,12.5Zm8.962-3.291a6.751,6.751,0,0,1,.146-1.471,4.477,4.477,0,0,1,.393-1.117,2.616,2.616,0,0,1,.657-.8,3.877,3.877,0,0,1,.854-.539,4.877,4.877,0,0,1,1.061-.326,9.309,9.309,0,0,1,1.219-.163q.6-.039,1.376-.039V7.333h-.067q-.314,0-.477.006t-.46.039a1.864,1.864,0,0,0-.466.1,2.375,2.375,0,0,0-.387.208,1.034,1.034,0,0,0-.337.337,2.036,2.036,0,0,0-.2.5,2.609,2.609,0,0,0-.084.7v1.235h2.482v2.482h-2.482V22h-3.223V12.937h-2.257V10.455h2.257Zm7.536-4.458h3.268V22h-3.268Zm17.475,11.309-.034.775h-8.558a2.989,2.989,0,0,0,.921,2.111,2.945,2.945,0,0,0,2.033.73,2.838,2.838,0,0,0,1.522-.4,2.451,2.451,0,0,0,.971-1.162l2.965.438a5.04,5.04,0,0,1-2.021,2.707,6.01,6.01,0,0,1-3.414.966,6.25,6.25,0,0,1-4.5-1.589,5.8,5.8,0,0,1-1.668-4.408,5.833,5.833,0,0,1,1.673-4.408,6.064,6.064,0,0,1,4.391-1.612,5.8,5.8,0,0,1,4.144,1.471A5.771,5.771,0,0,1,192.158,16.059Zm-5.694-3.56a2.556,2.556,0,0,0-2.808,2.224h5.3a2.431,2.431,0,0,0-.8-1.651A2.527,2.527,0,0,0,186.464,12.5ZM192.6,22l4.739-5.784L192.6,10.455h4.043l2.65,3.639,2.673-3.639h4.009l-4.75,5.772L205.972,22h-4.009l-2.65-3.616L196.65,22ZM209.4,8.726a1.816,1.816,0,0,1-1.325-.545,1.788,1.788,0,0,1-.55-1.32,1.766,1.766,0,0,1,.556-1.308,1.821,1.821,0,0,1,1.32-.545,1.869,1.869,0,0,1,1.853,1.853A1.869,1.869,0,0,1,209.4,8.726ZM207.746,22V10.455H211V22Zm14.117-11.545h3.425L220.369,22h-2.808L212.7,10.455h3.4l2.875,7.9Zm14.128,8.412a10.8,10.8,0,0,0,.281,2.819V22H233.25l-.258-1.258a3.754,3.754,0,0,1-1.617,1.112,5.96,5.96,0,0,1-2.089.371,5.493,5.493,0,0,1-1.078-.1,3.665,3.665,0,0,1-.971-.343,2.948,2.948,0,0,1-.8-.6,2.635,2.635,0,0,1-.539-.915,3.646,3.646,0,0,1-.2-1.252,3.472,3.472,0,0,1,.213-1.252,2.935,2.935,0,0,1,.562-.938,3.406,3.406,0,0,1,.91-.685,6.96,6.96,0,0,1,1.146-.494,13.687,13.687,0,0,1,1.37-.359l1.9-.427a2.093,2.093,0,0,0,.859-.365.728.728,0,0,0,.253-.578,1.191,1.191,0,0,0-.567-1.112,2.648,2.648,0,0,0-1.376-.337,1.98,1.98,0,0,0-2.257,1.763l-2.864-.517a3.877,3.877,0,0,1,1.673-2.634,6.651,6.651,0,0,1,3.627-.848q4.852,0,4.852,4.167ZM230.3,20.035a2.6,2.6,0,0,0,2-.837,3.526,3.526,0,0,0,.775-2.476l-2.74.775a3.238,3.238,0,0,0-1.151.472.969.969,0,0,0-.4.831,1.076,1.076,0,0,0,.427.915A1.766,1.766,0,0,0,230.3,20.035Zm12.9,2.19a6.452,6.452,0,0,1-3.369-.809,3.418,3.418,0,0,1-1.651-2.4l2.707-.764a2.175,2.175,0,0,0,2.313,1.718,2.389,2.389,0,0,0,1.179-.264.919.919,0,0,0,.46-.893.944.944,0,0,0-.191-.6,1.512,1.512,0,0,0-.59-.427,7.346,7.346,0,0,0-.786-.3q-.387-.124-1.028-.3t-1.067-.331a7.147,7.147,0,0,1-1.016-.432,4.335,4.335,0,0,1-.842-.6,2.4,2.4,0,0,1-.629-.9,3.261,3.261,0,0,1-.219-1.235,2.95,2.95,0,0,1,1.252-2.583A5.6,5.6,0,0,1,243,10.23a5.736,5.736,0,0,1,3.021.741,3.355,3.355,0,0,1,1.55,2.313l-2.5.562a1.962,1.962,0,0,0-2.055-1.46,2.25,2.25,0,0,0-1.134.258.83.83,0,0,0-.449.764.875.875,0,0,0,.067.348.689.689,0,0,0,.236.281,3.44,3.44,0,0,0,.326.213,2.457,2.457,0,0,0,.46.185q.3.1.505.146l.59.152.6.157q.618.168,1.084.337a6.347,6.347,0,0,1,.994.472,3.567,3.567,0,0,1,.87.679,3.03,3.03,0,0,1,.567.955,3.526,3.526,0,0,1,.225,1.286,3.473,3.473,0,0,1-.387,1.673,2.908,2.908,0,0,1-1.061,1.129,5.165,5.165,0,0,1-1.5.606A7.777,7.777,0,0,1,243.2,22.225ZM34.533,36.286A3.748,3.748,0,0,1,36.049,34.9a4.626,4.626,0,0,1,2.257-.578v2.886a4.374,4.374,0,0,0-2.763.7,3.04,3.04,0,0,0-.854,2.471V46H31.433V34.455h3.1ZM51,40.059l-.034.775H42.406a2.989,2.989,0,0,0,.921,2.111,2.945,2.945,0,0,0,2.033.73,2.838,2.838,0,0,0,1.522-.4,2.451,2.451,0,0,0,.971-1.162l2.965.438A5.04,5.04,0,0,1,48.8,45.259a6.01,6.01,0,0,1-3.414.966,6.25,6.25,0,0,1-4.5-1.589,5.8,5.8,0,0,1-1.668-4.408,5.833,5.833,0,0,1,1.673-4.408,6.064,6.064,0,0,1,4.391-1.612A5.285,5.285,0,0,1,51,40.059ZM45.3,36.5A2.556,2.556,0,0,0,42.5,38.723h5.3a2.431,2.431,0,0,0-.8-1.651A2.527,2.527,0,0,0,45.3,36.5ZM53.456,46V28.75h3.268V46Zm16.082-3.133a10.8,10.8,0,0,0,.281,2.819V46H66.8l-.258-1.258a3.754,3.754,0,0,1-1.617,1.112,5.96,5.96,0,0,1-2.089.371,5.493,5.493,0,0,1-1.078-.1,3.665,3.665,0,0,1-.971-.343,2.948,2.948,0,0,1-.8-.6,2.635,2.635,0,0,1-.539-.915,3.646,3.646,0,0,1-.2-1.252,3.472,3.472,0,0,1,.213-1.252,2.935,2.935,0,0,1,.562-.938,3.406,3.406,0,0,1,.91-.685,6.96,6.96,0,0,1,1.146-.494,13.688,13.688,0,0,1,1.37-.359l1.9-.427a2.093,2.093,0,0,0,.859-.365.728.728,0,0,0,.253-.578,1.191,1.191,0,0,0-.567-1.112,2.648,2.648,0,0,0-1.376-.337,1.98,1.98,0,0,0-2.257,1.763l-2.864-.517a3.877,3.877,0,0,1,1.673-2.634,6.651,6.651,0,0,1,3.627-.848q4.852,0,4.852,4.167Zm-5.694,1.168a2.6,2.6,0,0,0,2-.837,3.526,3.526,0,0,0,.775-2.476l-2.74.775a3.239,3.239,0,0,0-1.151.472.969.969,0,0,0-.4.831,1.076,1.076,0,0,0,.427.915A1.766,1.766,0,0,0,63.844,44.035Zm13.8,2.179a6.168,6.168,0,0,1-4.458-1.662,5.741,5.741,0,0,1-1.729-4.335,5.728,5.728,0,0,1,1.724-4.335,6.854,6.854,0,0,1,8.2-.539,4.964,4.964,0,0,1,1.932,3.133l-2.987.326a2.559,2.559,0,0,0-.966-1.516,2.937,2.937,0,0,0-1.752-.505,2.648,2.648,0,0,0-2.111.943,4.239,4.239,0,0,0,0,4.981,2.641,2.641,0,0,0,2.111.949,2.911,2.911,0,0,0,1.746-.505,2.619,2.619,0,0,0,.971-1.516l2.987.326A4.977,4.977,0,0,1,81.37,45.09,6.127,6.127,0,0,1,77.647,46.213Zm9.625-13.488a1.816,1.816,0,0,1-1.325-.545,1.788,1.788,0,0,1-.55-1.32,1.766,1.766,0,0,1,.556-1.308,1.821,1.821,0,0,1,1.32-.545,1.859,1.859,0,0,1,0,3.717ZM85.62,46V34.455h3.257V46Zm11.983.225a7.26,7.26,0,0,1-3.268-.708,5.288,5.288,0,0,1-2.24-2.078,6.192,6.192,0,0,1-.814-3.223,5.647,5.647,0,0,1,1.752-4.38,7.324,7.324,0,0,1,9.153,0,5.647,5.647,0,0,1,1.752,4.38,5.679,5.679,0,0,1-1.752,4.4A6.5,6.5,0,0,1,97.6,46.225Zm-.034-2.572a2.963,2.963,0,0,0,2.285-.943,4.006,4.006,0,0,0,0-4.986,2.963,2.963,0,0,0-2.285-.943,2.855,2.855,0,0,0-2.218.949,4.031,4.031,0,0,0,0,4.975A2.855,2.855,0,0,0,97.57,43.653Zm15.588-9.422a4.5,4.5,0,0,1,3.189,1.039,3.852,3.852,0,0,1,1.112,2.959V46h-3.246V38.925a2.011,2.011,0,0,0-.578-1.595,2.179,2.179,0,0,0-1.488-.505,3.04,3.04,0,0,0-.966.146,2.481,2.481,0,0,0-.809.455,2.01,2.01,0,0,0-.578.87,4.025,4.025,0,0,0-.219,1.336V46h-3.234V34.455h3.234v1.28A4.448,4.448,0,0,1,113.157,34.23Zm16.9,8.636a10.8,10.8,0,0,0,.281,2.819V46h-3.021l-.258-1.258a3.754,3.754,0,0,1-1.617,1.112,5.96,5.96,0,0,1-2.089.371,5.493,5.493,0,0,1-1.078-.1,3.665,3.665,0,0,1-.971-.343,2.948,2.948,0,0,1-.8-.6,2.635,2.635,0,0,1-.539-.915,3.646,3.646,0,0,1-.2-1.252,3.473,3.473,0,0,1,.213-1.252,2.935,2.935,0,0,1,.562-.938,3.406,3.406,0,0,1,.91-.685,6.961,6.961,0,0,1,1.146-.494,13.688,13.688,0,0,1,1.37-.359l1.9-.427a2.093,2.093,0,0,0,.859-.365.728.728,0,0,0,.253-.578A1.191,1.191,0,0,0,126.4,36.8a2.648,2.648,0,0,0-1.376-.337,1.98,1.98,0,0,0-2.257,1.763l-2.864-.517a3.877,3.877,0,0,1,1.673-2.634,6.651,6.651,0,0,1,3.627-.848q4.852,0,4.852,4.167Zm-5.694,1.168a2.6,2.6,0,0,0,2-.837,3.526,3.526,0,0,0,.775-2.476l-2.74.775a3.239,3.239,0,0,0-1.151.472.969.969,0,0,0-.4.831,1.076,1.076,0,0,0,.427.915A1.766,1.766,0,0,0,124.365,44.035ZM141.133,28.75h3.234V46H141.3l-.079-1.5a3.3,3.3,0,0,1-1.466,1.308,4.933,4.933,0,0,1-2.162.466,5.615,5.615,0,0,1-2.156-.416,5.193,5.193,0,0,1-2.965-3.077,7.022,7.022,0,0,1-.438-2.527,6.564,6.564,0,0,1,.764-3.218,5.233,5.233,0,0,1,2.016-2.094,5.551,5.551,0,0,1,2.78-.708,5.056,5.056,0,0,1,2.094.421,3.27,3.27,0,0,1,1.443,1.2Zm-2.8,14.835a2.879,2.879,0,0,0,2.184-.921,3.783,3.783,0,0,0-.006-4.835,2.876,2.876,0,0,0-2.179-.927,2.91,2.91,0,0,0-2.2.91,3.831,3.831,0,0,0,0,4.863A2.91,2.91,0,0,0,138.336,43.585Zm18.845-.719a10.8,10.8,0,0,0,.281,2.819V46h-3.021l-.258-1.258a3.754,3.754,0,0,1-1.617,1.112,5.96,5.96,0,0,1-2.089.371,5.493,5.493,0,0,1-1.078-.1,3.665,3.665,0,0,1-.971-.343,2.948,2.948,0,0,1-.8-.6,2.635,2.635,0,0,1-.539-.915,3.646,3.646,0,0,1-.2-1.252,3.472,3.472,0,0,1,.213-1.252,2.935,2.935,0,0,1,.562-.938,3.406,3.406,0,0,1,.91-.685,6.96,6.96,0,0,1,1.146-.494,13.688,13.688,0,0,1,1.37-.359l1.9-.427a2.093,2.093,0,0,0,.859-.365.728.728,0,0,0,.253-.578,1.191,1.191,0,0,0-.567-1.112,2.648,2.648,0,0,0-1.376-.337,1.98,1.98,0,0,0-2.257,1.763l-2.864-.517a3.877,3.877,0,0,1,1.673-2.634,6.651,6.651,0,0,1,3.627-.848q4.852,0,4.852,4.167Zm-5.694,1.168a2.6,2.6,0,0,0,2-.837,3.526,3.526,0,0,0,.775-2.476l-2.74.775a3.239,3.239,0,0,0-1.151.472.969.969,0,0,0-.4.831,1.076,1.076,0,0,0,.427.915A1.766,1.766,0,0,0,151.487,44.035Zm12.9,2.19a6.452,6.452,0,0,1-3.369-.809,3.418,3.418,0,0,1-1.651-2.4l2.707-.764a2.175,2.175,0,0,0,2.313,1.718,2.389,2.389,0,0,0,1.179-.264.919.919,0,0,0,.46-.893.944.944,0,0,0-.191-.6,1.512,1.512,0,0,0-.59-.427,7.345,7.345,0,0,0-.786-.3q-.387-.124-1.028-.3t-1.067-.331a7.147,7.147,0,0,1-1.016-.432,4.335,4.335,0,0,1-.842-.6,2.4,2.4,0,0,1-.629-.9,3.261,3.261,0,0,1-.219-1.235,2.95,2.95,0,0,1,1.252-2.583,5.6,5.6,0,0,1,3.274-.876,5.736,5.736,0,0,1,3.021.741,3.355,3.355,0,0,1,1.55,2.313l-2.5.562a1.962,1.962,0,0,0-2.055-1.46,2.25,2.25,0,0,0-1.134.258.83.83,0,0,0-.449.764.875.875,0,0,0,.067.348.689.689,0,0,0,.236.281,3.44,3.44,0,0,0,.326.213,2.457,2.457,0,0,0,.46.185q.3.1.505.146l.59.152.6.157q.618.168,1.084.337a6.347,6.347,0,0,1,.994.472,3.567,3.567,0,0,1,.87.679,3.03,3.03,0,0,1,.567.955,3.526,3.526,0,0,1,.225,1.286,3.473,3.473,0,0,1-.387,1.673,2.908,2.908,0,0,1-1.061,1.129,5.166,5.166,0,0,1-1.5.606A7.777,7.777,0,0,1,164.391,46.225Zm18.272-.011a6.168,6.168,0,0,1-4.458-1.662,5.741,5.741,0,0,1-1.729-4.335,5.728,5.728,0,0,1,1.724-4.335,6.854,6.854,0,0,1,8.2-.539,4.964,4.964,0,0,1,1.932,3.133l-2.987.326a2.559,2.559,0,0,0-.966-1.516,2.937,2.937,0,0,0-1.752-.505,2.648,2.648,0,0,0-2.111.943,4.239,4.239,0,0,0,0,4.981,2.641,2.641,0,0,0,2.111.949,2.911,2.911,0,0,0,1.746-.505,2.619,2.619,0,0,0,.971-1.516l2.987.326a4.977,4.977,0,0,1-1.948,3.133A6.127,6.127,0,0,1,182.663,46.213Zm13.353.011a7.26,7.26,0,0,1-3.268-.708,5.288,5.288,0,0,1-2.24-2.078,6.192,6.192,0,0,1-.814-3.223,5.647,5.647,0,0,1,1.752-4.38,7.324,7.324,0,0,1,9.153,0,5.647,5.647,0,0,1,1.752,4.38,5.679,5.679,0,0,1-1.752,4.4A6.5,6.5,0,0,1,196.016,46.225Zm-.034-2.572a2.963,2.963,0,0,0,2.285-.943,4.006,4.006,0,0,0,0-4.986,2.963,2.963,0,0,0-2.285-.943,2.855,2.855,0,0,0-2.218.949,4.031,4.031,0,0,0,0,4.975A2.855,2.855,0,0,0,195.982,43.653ZM211.57,34.23a4.5,4.5,0,0,1,3.189,1.039,3.852,3.852,0,0,1,1.112,2.959V46h-3.246V38.925a2.011,2.011,0,0,0-.578-1.595,2.179,2.179,0,0,0-1.488-.505,3.04,3.04,0,0,0-.966.146,2.481,2.481,0,0,0-.809.455,2.01,2.01,0,0,0-.578.87,4.026,4.026,0,0,0-.219,1.336V46h-3.234V34.455h3.234v1.28A4.448,4.448,0,0,1,211.57,34.23Zm24.269,5.829-.034.775h-8.558a2.989,2.989,0,0,0,.921,2.111,2.945,2.945,0,0,0,2.033.73,2.838,2.838,0,0,0,1.522-.4,2.451,2.451,0,0,0,.971-1.162l2.965.438a5.04,5.04,0,0,1-2.021,2.707,6.01,6.01,0,0,1-3.414.966,6.25,6.25,0,0,1-4.5-1.589,5.8,5.8,0,0,1-1.668-4.408,5.833,5.833,0,0,1,1.673-4.408,6.064,6.064,0,0,1,4.391-1.612,5.285,5.285,0,0,1,5.716,5.851Zm-5.694-3.56a2.556,2.556,0,0,0-2.808,2.224h5.3a2.431,2.431,0,0,0-.8-1.651A2.527,2.527,0,0,0,230.145,36.5ZM238.3,46V28.75h3.268V46ZM24.364,70.213a6.168,6.168,0,0,1-4.458-1.662,6.3,6.3,0,0,1-.006-8.67,6.187,6.187,0,0,1,4.464-1.651,6.152,6.152,0,0,1,3.74,1.112,4.964,4.964,0,0,1,1.932,3.133l-2.987.326a2.559,2.559,0,0,0-.966-1.516,2.937,2.937,0,0,0-1.752-.505,2.648,2.648,0,0,0-2.111.943,4.239,4.239,0,0,0,0,4.981,2.641,2.641,0,0,0,2.111.949,2.911,2.911,0,0,0,1.746-.505,2.619,2.619,0,0,0,.971-1.516l2.987.326a4.977,4.977,0,0,1-1.948,3.133A6.127,6.127,0,0,1,24.364,70.213Zm13.353.011a7.26,7.26,0,0,1-3.268-.708,5.288,5.288,0,0,1-2.24-2.078,6.192,6.192,0,0,1-.814-3.223,5.647,5.647,0,0,1,1.752-4.38,6.5,6.5,0,0,1,4.571-1.606A6.515,6.515,0,0,1,42.3,59.836a6.372,6.372,0,0,1,0,8.777A6.5,6.5,0,0,1,37.717,70.225Zm-.034-2.572a2.963,2.963,0,0,0,2.285-.943,4.006,4.006,0,0,0,0-4.986,2.963,2.963,0,0,0-2.285-.943,2.855,2.855,0,0,0-2.218.949,4.031,4.031,0,0,0,0,4.975A2.855,2.855,0,0,0,37.683,67.653ZM53.271,58.23a4.5,4.5,0,0,1,3.189,1.039,3.852,3.852,0,0,1,1.112,2.959V70H54.327V62.925a2.011,2.011,0,0,0-.578-1.595,2.179,2.179,0,0,0-1.488-.505,3.04,3.04,0,0,0-.966.146,2.481,2.481,0,0,0-.809.455,2.01,2.01,0,0,0-.578.87,4.025,4.025,0,0,0-.219,1.336V70H46.454V58.455h3.234v1.28A4.448,4.448,0,0,1,53.271,58.23ZM65.928,70.213a6.168,6.168,0,0,1-4.458-1.662,6.3,6.3,0,0,1-.006-8.67,6.854,6.854,0,0,1,8.2-.539A4.964,4.964,0,0,1,71.6,62.476l-2.987.326a2.559,2.559,0,0,0-.966-1.516,2.937,2.937,0,0,0-1.752-.505,2.648,2.648,0,0,0-2.111.943,4.239,4.239,0,0,0,0,4.981,2.641,2.641,0,0,0,2.111.949,2.911,2.911,0,0,0,1.746-.505,2.619,2.619,0,0,0,.971-1.516l2.987.326a4.977,4.977,0,0,1-1.948,3.133A6.127,6.127,0,0,1,65.928,70.213Zm18.833-6.154-.034.775H76.17a2.989,2.989,0,0,0,.921,2.111,2.945,2.945,0,0,0,2.033.73,2.838,2.838,0,0,0,1.522-.4,2.451,2.451,0,0,0,.971-1.162l2.965.438a5.04,5.04,0,0,1-2.021,2.707,6.01,6.01,0,0,1-3.414.966,6.25,6.25,0,0,1-4.5-1.589,6.651,6.651,0,0,1,.006-8.816,6.064,6.064,0,0,1,4.391-1.612,5.285,5.285,0,0,1,5.716,5.851ZM79.067,60.5a2.556,2.556,0,0,0-2.808,2.224h5.3a2.431,2.431,0,0,0-.8-1.651A2.527,2.527,0,0,0,79.067,60.5ZM93.993,58.23a5.615,5.615,0,0,1,2.156.416,5.4,5.4,0,0,1,1.769,1.168,5.284,5.284,0,0,1,1.2,1.9,7.54,7.54,0,0,1,0,5.065,5.284,5.284,0,0,1-1.2,1.9,5.4,5.4,0,0,1-1.769,1.168,5.615,5.615,0,0,1-2.156.416,5.01,5.01,0,0,1-2.089-.427,3.273,3.273,0,0,1-1.449-1.213v6.985H87.221V58.455h3.066l.09,1.55A3.162,3.162,0,0,1,91.82,58.7,4.96,4.96,0,0,1,93.993,58.23Zm-.73,9.355a2.906,2.906,0,0,0,2.184-.9,3.831,3.831,0,0,0,0-4.863,3.091,3.091,0,0,0-4.385.017,3.766,3.766,0,0,0,0,4.829A2.91,2.91,0,0,0,93.263,67.585ZM106.29,70a3.487,3.487,0,0,1-2.605-.938,3.647,3.647,0,0,1-.921-2.667V60.937H100.5V58.455h.73a1.9,1.9,0,0,0,1.438-.483,2.486,2.486,0,0,0,.46-1.718V54.727h2.92v3.729h2.381v2.482h-2.381v5.11q0,1.494,1.336,1.494h1.044V70Zm9.973.225a7.26,7.26,0,0,1-3.268-.708,5.288,5.288,0,0,1-2.24-2.078,6.192,6.192,0,0,1-.814-3.223,5.647,5.647,0,0,1,1.752-4.38,7.324,7.324,0,0,1,9.153,0,6.372,6.372,0,0,1,0,8.777A6.5,6.5,0,0,1,116.263,70.225Zm-.034-2.572a2.963,2.963,0,0,0,2.285-.943,4.006,4.006,0,0,0,0-4.986,2.963,2.963,0,0,0-2.285-.943,2.855,2.855,0,0,0-2.218.949,4.031,4.031,0,0,0,0,4.975A2.855,2.855,0,0,0,116.229,67.653Zm22.933-14.9H142.4V70H139.33l-.079-1.5a3.3,3.3,0,0,1-1.466,1.308,4.933,4.933,0,0,1-2.162.466,5.615,5.615,0,0,1-2.156-.416,5.193,5.193,0,0,1-2.965-3.077,7.022,7.022,0,0,1-.438-2.527,6.564,6.564,0,0,1,.764-3.218,5.233,5.233,0,0,1,2.016-2.094,5.551,5.551,0,0,1,2.78-.708,5.056,5.056,0,0,1,2.094.421,3.27,3.27,0,0,1,1.443,1.2Zm-2.8,14.835a2.879,2.879,0,0,0,2.184-.921,3.783,3.783,0,0,0-.006-4.835,2.876,2.876,0,0,0-2.179-.927,2.91,2.91,0,0,0-2.2.91,3.831,3.831,0,0,0,0,4.863A2.91,2.91,0,0,0,136.365,67.585ZM156.6,64.059l-.034.775h-8.558a2.989,2.989,0,0,0,.921,2.111,2.945,2.945,0,0,0,2.033.73,2.838,2.838,0,0,0,1.522-.4,2.451,2.451,0,0,0,.971-1.162l2.965.438a5.04,5.04,0,0,1-2.021,2.707,6.01,6.01,0,0,1-3.414.966,6.25,6.25,0,0,1-4.5-1.589,6.651,6.651,0,0,1,.006-8.816,6.064,6.064,0,0,1,4.391-1.612,5.285,5.285,0,0,1,5.716,5.851Zm-5.694-3.56a2.556,2.556,0,0,0-2.808,2.224h5.3a2.431,2.431,0,0,0-.8-1.651A2.527,2.527,0,0,0,150.909,60.5Zm27.807-2.269a4.411,4.411,0,0,1,2.976.938,3.355,3.355,0,0,1,1.089,2.69V70h-3.234V62.779a1.928,1.928,0,0,0-.517-1.46,1.809,1.809,0,0,0-1.3-.494,2.087,2.087,0,0,0-1.572.629,2.856,2.856,0,0,0-.606,2.033V70H172.28V62.813a1.98,1.98,0,0,0-.517-1.488,1.842,1.842,0,0,0-1.336-.5,2.02,2.02,0,0,0-1.561.663,3.164,3.164,0,0,0-.606,2.167V70h-3.223V58.455h3.223v1.359a3.926,3.926,0,0,1,3.347-1.583,4.936,4.936,0,0,1,2.173.444,2.958,2.958,0,0,1,1.365,1.286A4.082,4.082,0,0,1,178.715,58.23Zm18.07,5.829-.034.775h-8.558a2.989,2.989,0,0,0,.921,2.111,2.945,2.945,0,0,0,2.033.73,2.838,2.838,0,0,0,1.522-.4,2.451,2.451,0,0,0,.971-1.162l2.965.438a5.04,5.04,0,0,1-2.021,2.707,6.01,6.01,0,0,1-3.414.966,6.25,6.25,0,0,1-4.5-1.589,6.651,6.651,0,0,1,.006-8.816,6.064,6.064,0,0,1,4.391-1.612,5.285,5.285,0,0,1,5.716,5.851Zm-5.694-3.56a2.556,2.556,0,0,0-2.808,2.224h5.3a2.431,2.431,0,0,0-.8-1.651A2.527,2.527,0,0,0,191.091,60.5Zm14.97-2.269a4.5,4.5,0,0,1,3.189,1.039,3.852,3.852,0,0,1,1.112,2.959V70h-3.246V62.925a2.011,2.011,0,0,0-.578-1.595,2.179,2.179,0,0,0-1.488-.505,3.04,3.04,0,0,0-.966.146,2.481,2.481,0,0,0-.809.455,2.01,2.01,0,0,0-.578.87,4.026,4.026,0,0,0-.219,1.336V70h-3.234V58.455h3.234v1.28A4.448,4.448,0,0,1,206.062,58.23Zm11.5,11.994a6.452,6.452,0,0,1-3.369-.809,3.418,3.418,0,0,1-1.651-2.4l2.707-.764a2.175,2.175,0,0,0,2.313,1.718,2.389,2.389,0,0,0,1.179-.264.919.919,0,0,0,.46-.893.944.944,0,0,0-.191-.6,1.512,1.512,0,0,0-.59-.427,7.347,7.347,0,0,0-.786-.3q-.387-.124-1.028-.3t-1.067-.331a7.147,7.147,0,0,1-1.016-.432,4.335,4.335,0,0,1-.842-.6,2.4,2.4,0,0,1-.629-.9,3.261,3.261,0,0,1-.219-1.235,2.95,2.95,0,0,1,1.252-2.583,5.6,5.6,0,0,1,3.274-.876,5.736,5.736,0,0,1,3.021.741,3.355,3.355,0,0,1,1.55,2.313l-2.5.562a1.962,1.962,0,0,0-2.055-1.46,2.25,2.25,0,0,0-1.134.258.83.83,0,0,0-.449.764.875.875,0,0,0,.067.348.689.689,0,0,0,.236.281,3.44,3.44,0,0,0,.326.213,2.457,2.457,0,0,0,.46.185q.3.1.505.146l.59.152.6.157q.618.168,1.084.337a6.347,6.347,0,0,1,.994.472,3.567,3.567,0,0,1,.87.679,3.03,3.03,0,0,1,.567.955,3.526,3.526,0,0,1,.225,1.286,3.473,3.473,0,0,1-.387,1.673,2.908,2.908,0,0,1-1.061,1.129,5.165,5.165,0,0,1-1.5.606A7.778,7.778,0,0,1,217.562,70.225ZM234.1,66.867a10.8,10.8,0,0,0,.281,2.819V70h-3.021l-.258-1.258a3.754,3.754,0,0,1-1.617,1.112,5.96,5.96,0,0,1-2.089.371,5.493,5.493,0,0,1-1.078-.1,3.665,3.665,0,0,1-.971-.343,2.948,2.948,0,0,1-.8-.6,2.635,2.635,0,0,1-.539-.915,3.646,3.646,0,0,1-.2-1.252,3.472,3.472,0,0,1,.213-1.252,2.935,2.935,0,0,1,.562-.938,3.406,3.406,0,0,1,.91-.685,6.96,6.96,0,0,1,1.146-.494,13.688,13.688,0,0,1,1.37-.359l1.9-.427a2.093,2.093,0,0,0,.859-.365.728.728,0,0,0,.253-.578,1.191,1.191,0,0,0-.567-1.112,2.648,2.648,0,0,0-1.376-.337,1.98,1.98,0,0,0-2.257,1.763l-2.864-.517a3.877,3.877,0,0,1,1.673-2.634,6.651,6.651,0,0,1,3.627-.848q4.852,0,4.852,4.167Zm-5.694,1.168a2.6,2.6,0,0,0,2-.837,3.526,3.526,0,0,0,.775-2.476l-2.74.775a3.238,3.238,0,0,0-1.151.472.969.969,0,0,0-.4.831,1.076,1.076,0,0,0,.427.915A1.766,1.766,0,0,0,228.41,68.035Zm10.5-11.309a1.816,1.816,0,0,1-1.325-.545,1.788,1.788,0,0,1-.55-1.32,1.766,1.766,0,0,1,.556-1.308,1.821,1.821,0,0,1,1.32-.545,1.859,1.859,0,0,1,0,3.717ZM234.89,75.413V72.886a3.72,3.72,0,0,0,1.213-.163,1.356,1.356,0,0,0,.719-.578,2.561,2.561,0,0,0,.343-.994,11.206,11.206,0,0,0,.084-1.544V58.455h3.279V69.607a6.271,6.271,0,0,1-1.314,4.414Q237.9,75.413,234.89,75.413Zm19.855-11.354-.034.775h-8.558a2.989,2.989,0,0,0,.921,2.111,2.945,2.945,0,0,0,2.033.73,2.838,2.838,0,0,0,1.522-.4,2.451,2.451,0,0,0,.971-1.162l2.965.438a5.04,5.04,0,0,1-2.021,2.707,6.01,6.01,0,0,1-3.414.966,6.25,6.25,0,0,1-4.5-1.589,6.651,6.651,0,0,1,.006-8.816,6.064,6.064,0,0,1,4.391-1.612,5.285,5.285,0,0,1,5.716,5.851Zm-5.694-3.56a2.556,2.556,0,0,0-2.808,2.224h5.3a2.431,2.431,0,0,0-.8-1.651A2.527,2.527,0,0,0,249.052,60.5Z" transform="translate(-1687 -3814.663)" fill="#00223d"/>
    <g id="Grupo_28548" data-name="Grupo 28548" transform="translate(-1821.88 -4048.86)">
      <g id="Grupo_25977" data-name="Grupo 25977" transform="translate(46.345 149.983)">
        <g id="Grupo_25968" data-name="Grupo 25968" transform="translate(6.571 2.708)" style="mix-blend-mode: multiply;isolation: isolate">
          <path id="Trazado_66611" data-name="Trazado 66611" d="M82.318,246H81.312L81.176,245c-.45-3.3-.883-6.184-1.265-8.725-1.75-11.646-2.474-16.467,1.091-22.07,3.669-5.764,8.758-9.392,13.682-12.9,5.2-3.7,10.571-7.532,14.25-13.926,3.531-6.137,3.351-12.918-.471-17.7-4.566-5.711-13.118-7.316-22.884-4.293a72.851,72.851,0,0,0-12.39,5.145c-8.157,4.147-8.753,3.229-18.672-12.146-1.027-1.589-2.157-3.342-3.413-5.273l-.556-.855.782-.655c20.442-17.128,45.481-22.417,66.984-14.151,15.732,6.047,26.328,18.245,28.346,32.631,2.292,16.353-6.822,33.178-25.665,47.374-12.246,9.234-11.711,15.52-11.357,19.68.173,2.039.337,3.965-1.059,5.485C106.236,245.177,99.855,246,82.318,246Zm12.512-84.4c6.473,0,11.933,2.282,15.432,6.657,4.425,5.534,4.68,13.3.668,20.281-3.929,6.83-9.511,10.807-14.909,14.654-4.963,3.535-9.648,6.874-13.075,12.26-3.1,4.876-2.465,9.128-.759,20.491.345,2.29.731,4.857,1.134,7.758,15.23-.03,21.866-.774,23.562-2.62.68-.743.626-1.79.46-3.733-.4-4.665-1-11.715,12.265-21.714,18.146-13.672,26.942-29.73,24.77-45.217-1.9-13.543-11.952-25.058-26.892-30.8-20.435-7.857-44.25-2.948-63.894,13.118,1.037,1.6,1.986,3.067,2.858,4.419,4.731,7.332,7.338,11.37,9.294,12.708,1.516,1.034,2.742.494,6.4-1.365A74.715,74.715,0,0,1,84.9,163.194,33.7,33.7,0,0,1,94.83,161.591Z" transform="translate(-50.547 -133.627)" fill="#48b1e2"/>
        </g>
        <g id="Grupo_25969" data-name="Grupo 25969" transform="translate(30.622 126.275)" style="mix-blend-mode: multiply;isolation: isolate">
          <path id="Trazado_66612" data-name="Trazado 66612" d="M90.1,277.25c-8.989,0-18.663-5.686-18.663-18.168,0-12.447,9.675-18.116,18.664-18.116,9.329,0,18.774,6.223,18.774,18.116a17.34,17.34,0,0,1-5.911,13.627A19.668,19.668,0,0,1,90.1,277.25Zm0-33.982c-7.88,0-16.362,4.949-16.362,15.814,0,10.9,8.482,15.866,16.361,15.866,7.934,0,16.473-4.965,16.473-15.866C106.575,248.216,98.036,243.267,90.1,243.267Z" transform="translate(-71.439 -240.965)" fill="#48b1e2"/>
        </g>
        <g id="Grupo_25974" data-name="Grupo 25974" style="mix-blend-mode: multiply;isolation: isolate">
          <g id="Grupo_25970" data-name="Grupo 25970" transform="translate(29.514 79.063)">
            <path id="Trazado_66613" data-name="Trazado 66613" d="M79.3,240.939H73.962l-.725-5.293c-.428-3.138-.84-5.893-1.206-8.334l-.051-.332c-1.83-12.184-2.749-18.3,1.814-25.473q.511-.8,1.049-1.554l1.875,1.337q-.5.7-.981,1.453c-4.1,6.448-3.226,12.279-1.479,23.9l.049.332c.367,2.451.781,5.214,1.211,8.363l.451,3.3H79.3c18.881,0,25.211-.949,28.226-4.231a7.084,7.084,0,0,0,1.856-4.662l2.3.125a9.4,9.4,0,0,1-2.459,6.093C105.594,239.917,99.444,240.939,79.3,240.939Z" transform="translate(-70.477 -199.954)" fill="#48b1e2"/>
          </g>
          <g id="Grupo_25971" data-name="Grupo 25971" transform="translate(49.237 35.637)">
            <path id="Trazado_66614" data-name="Trazado 66614" d="M103.127,175.517l-2.289-.252a10.5,10.5,0,0,0,.063-1.15,9.03,9.03,0,0,0-1.2-4.588c-2.017-3.487-6.469-5.32-11.936-4.946l-.158-2.3c6.4-.439,11.616,1.821,14.086,6.089a11.306,11.306,0,0,1,1.509,5.741A12.811,12.811,0,0,1,103.127,175.517Z" transform="translate(-87.609 -162.231)" fill="#48b1e2"/>
          </g>
          <g id="Grupo_25972" data-name="Grupo 25972">
            <path id="Trazado_66615" data-name="Trazado 66615" d="M68.14,178.008c-6.25,0-9.159-4.508-16.935-16.557l-.063-.1c-1.006-1.56-2.115-3.277-3.343-5.165l-2.96-4.548L49,148.154a81.449,81.449,0,0,1,31.926-16.879l.576,2.23a79.158,79.158,0,0,0-31.023,16.414l-2.6,2.175,1.848,2.838c1.229,1.89,2.34,3.611,3.348,5.172l-.9.724.967-.625c7.484,11.6,10.005,15.5,15,15.5a12.054,12.054,0,0,0,5.268-1.506l1,2.074A14.066,14.066,0,0,1,68.14,178.008Z" transform="translate(-44.839 -131.275)" fill="#48b1e2"/>
          </g>
          <g id="Grupo_25973" data-name="Grupo 25973" transform="translate(93.164 35.565)">
            <path id="Trazado_66616" data-name="Trazado 66616" d="M127.532,203.158l-1.765-1.478c8.221-9.82,12.568-20.5,12.568-30.881a38.109,38.109,0,0,0-.883-8.137l2.248-.493a40.4,40.4,0,0,1,.937,8.629C140.637,181.729,136.1,192.918,127.532,203.158Z" transform="translate(-125.767 -162.169)" fill="#48b1e2"/>
          </g>
        </g>
        <g id="Grupo_25976" data-name="Grupo 25976" transform="translate(25.65 130.753)" style="mix-blend-mode: multiply;isolation: isolate">
          <g id="Grupo_25975" data-name="Grupo 25975">
            <path id="Trazado_66617" data-name="Trazado 66617" d="M90.866,281.634h-.109c-11.746,0-23.636-7.948-23.636-23.139a24.9,24.9,0,0,1,1.225-7.885l2.185.726a22.592,22.592,0,0,0-1.107,7.158c0,13.68,10.733,20.837,21.334,20.837Zm21.175-12.29-2.054-1.042a21.451,21.451,0,0,0,2.213-9.807,20.473,20.473,0,0,0-3.743-12.289l1.865-1.35a22.719,22.719,0,0,1,4.18,13.639A23.735,23.735,0,0,1,112.041,269.343Z" transform="translate(-67.12 -244.855)" fill="#48b1e2"/>
          </g>
        </g>
      </g>
      <g id="Grupo_25989" data-name="Grupo 25989" transform="translate(155.625 112.868)">
        <g id="Grupo_25979" data-name="Grupo 25979" transform="translate(6.57 4.952)" style="mix-blend-mode: multiply;isolation: isolate">
          <g id="Grupo_25978" data-name="Grupo 25978">
            <path id="Trazado_66618" data-name="Trazado 66618" d="M164.963,171.023h-1.005l-.136-.995c-.267-1.962-.524-3.672-.751-5.18-1.057-7.038-1.5-9.952.717-13.428,2.228-3.5,5.29-5.682,8.251-7.792,3.187-2.271,6.2-4.415,8.33-8.125,2-3.475,1.908-7.3-.238-9.987-2.589-3.237-7.483-4.131-13.091-2.4a42.747,42.747,0,0,0-7.287,3.027c-5.221,2.655-5.834,1.706-11.7-7.382-.609-.943-1.28-1.984-2.025-3.128l-.556-.855.781-.655c12.275-10.285,27.33-13.456,40.261-8.484,9.507,3.654,15.911,11.04,17.134,19.756,1.386,9.89-4.093,20.04-15.428,28.581-7.067,5.33-6.775,8.768-6.562,11.278.107,1.258.218,2.559-.751,3.614C179.394,170.521,175.668,171.023,164.963,171.023Zm7.436-51.075c3.988,0,7.361,1.416,9.531,4.131,2.75,3.44,2.918,8.259.437,12.572-2.385,4.145-5.744,6.539-8.992,8.853-2.908,2.072-5.657,4.03-7.644,7.152-1.75,2.749-1.378,5.228-.383,11.85.189,1.256.4,2.651.618,4.213,6.089-.018,12.168-.23,13.247-1.406.272-.3.238-.842.152-1.861-.229-2.7-.614-7.216,7.47-13.311,10.638-8.015,15.8-17.4,14.533-26.424-1.1-7.874-6.965-14.577-15.679-17.925-11.869-4.565-25.695-1.773-37.168,7.454q.791,1.219,1.469,2.271c2.778,4.305,4.309,6.677,5.392,7.418.656.449,1.142.269,3.328-.842a44.866,44.866,0,0,1,7.649-3.174A20.526,20.526,0,0,1,172.4,119.948Z" transform="translate(-145.473 -103.336)" fill="#37474f"/>
          </g>
        </g>
        <g id="Grupo_25981" data-name="Grupo 25981" transform="translate(21.007 78.357)" style="mix-blend-mode: multiply;isolation: isolate">
          <g id="Grupo_25980" data-name="Grupo 25980">
            <path id="Trazado_66619" data-name="Trazado 66619" d="M169.57,189.59c-5.742,0-11.556-3.868-11.556-11.26,0-7.372,5.814-11.23,11.556-11.23,5.773,0,11.62,3.858,11.62,11.23C181.19,185.722,175.343,189.59,169.57,189.59Zm0-20.187c-4.456,0-9.253,2.793-9.253,8.928,0,6.154,4.8,8.958,9.253,8.958,4.487,0,9.318-2.8,9.318-8.958C178.888,172.2,174.057,169.4,169.57,169.4Z" transform="translate(-158.014 -167.1)" fill="#37474f"/>
          </g>
        </g>
        <g id="Grupo_25986" data-name="Grupo 25986" style="mix-blend-mode: multiply;isolation: isolate">
          <g id="Grupo_25982" data-name="Grupo 25982" transform="translate(18.341 40.408)">
            <path id="Trazado_66620" data-name="Trazado 66620" d="M163.417,171.338h-5.342l-.725-5.293c-.26-1.9-.51-3.565-.729-5.035-1.118-7.43-1.784-11.869,1.426-16.915,2.748-4.319,6.366-6.9,9.558-9.172l1.1-.787L170.052,136l-1.107.793c-3.024,2.155-6.449,4.594-8.954,8.534-2.749,4.319-2.2,7.977-1.1,15.261.233,1.555.484,3.228.745,5.141l.451,3.3h3.334c10.679,0,15.526-.419,17.912-3.015a6.826,6.826,0,0,0,1.445-5.647c-.2-2.4.045-4.708,5.167-8.659l1.406,1.823c-4.545,3.505-4.409,5.1-4.279,6.639a9.03,9.03,0,0,1-2.042,7.4C180.092,170.771,175.337,171.338,163.417,171.338Z" transform="translate(-155.698 -134.136)" fill="#37474f"/>
          </g>
          <g id="Grupo_25983" data-name="Grupo 25983" transform="translate(36.758 27.811)">
            <path id="Trazado_66621" data-name="Trazado 66621" d="M174.935,129.177l-2.22-.61a4.352,4.352,0,0,0,.162-1.142,2.913,2.913,0,0,0-.376-1.484,2.786,2.786,0,0,0-.806-.876l1.34-1.872a5.106,5.106,0,0,1,1.46,1.593,5.212,5.212,0,0,1,.685,2.639A6.624,6.624,0,0,1,174.935,129.177Z" transform="translate(-171.696 -123.193)" fill="#37474f"/>
          </g>
          <g id="Grupo_25984" data-name="Grupo 25984">
            <path id="Trazado_66622" data-name="Trazado 66622" d="M156.892,133.092c-5.068,0-7.287-3.44-12.151-10.978l-4.975-7.664,4.158-3.485c10.165-8.515,22-12.663,33.866-11.825l-.162,2.3c-11.277-.792-22.522,3.164-32.224,11.293l-2.6,2.175,3.868,5.96c4.66,7.223,6.4,9.925,10.217,9.925a10.827,10.827,0,0,0,4.934-1.613,39.885,39.885,0,0,1,6.866-2.856,17.026,17.026,0,0,1,3.282-.69l.231,2.291a14.668,14.668,0,0,0-2.833.6,37.9,37.9,0,0,0-6.5,2.709A12.9,12.9,0,0,1,156.892,133.092Z" transform="translate(-139.766 -99.035)" fill="#37474f"/>
          </g>
          <g id="Grupo_25985" data-name="Grupo 25985" transform="translate(63.965 24.115)">
            <path id="Trazado_66623" data-name="Trazado 66623" d="M197.34,140.435l-2.01-1.122a27.254,27.254,0,0,0,3.687-13.35,24.131,24.131,0,0,0-.626-5.46l2.245-.519a26.578,26.578,0,0,1,.684,5.979A29.518,29.518,0,0,1,197.34,140.435Z" transform="translate(-195.33 -119.983)" fill="#37474f"/>
          </g>
        </g>
        <g id="Grupo_25988" data-name="Grupo 25988" transform="translate(16.035 73.385)" style="mix-blend-mode: multiply;isolation: isolate">
          <g id="Grupo_25987" data-name="Grupo 25987">
            <path id="Trazado_66624" data-name="Trazado 66624" d="M170.223,195.215c-8.213,0-16.528-5.576-16.528-16.232,0-10.637,8.315-16.2,16.528-16.2,8.043,0,16.592,5.678,16.592,16.2a16.1,16.1,0,0,1-2.289,8.514l-1.965-1.2a13.824,13.824,0,0,0,1.951-7.315c0-9.029-7.363-13.9-14.29-13.9-7.07,0-14.225,4.774-14.225,13.9,0,9.144,7.156,13.93,14.225,13.93Z" transform="translate(-153.695 -162.781)" fill="#37474f"/>
          </g>
        </g>
      </g>
      <g id="Grupo_25999" data-name="Grupo 25999" transform="translate(79.151 7.549)">
        <g id="Grupo_25990" data-name="Grupo 25990" transform="translate(7.037 2.698)" style="mix-blend-mode: multiply;isolation: isolate">
          <path id="Trazado_66625" data-name="Trazado 66625" d="M111.851,124.56h-1.005l-.137-1c-.46-3.373-.9-6.314-1.292-8.909-1.784-11.882-2.523-16.8,1.111-22.512,3.743-5.88,8.938-9.583,13.962-13.162,5.308-3.782,10.8-7.692,14.553-14.224,3.61-6.273,3.425-13.205-.481-18.091-4.669-5.838-13.414-7.479-23.389-4.39A74.4,74.4,0,0,0,102.52,47.53c-8.307,4.224-8.914,3.286-19.033-12.395-1.046-1.621-2.2-3.41-3.481-5.38l-.557-.855.782-.655c20.861-17.479,46.413-22.88,68.358-14.443C164.64,19.974,175.452,32.42,177.51,47.1c2.34,16.686-6.961,33.852-26.19,48.34-12.511,9.435-11.966,15.86-11.6,20.113.176,2.076.344,4.037-1.075,5.581C136.256,123.726,129.747,124.56,111.851,124.56Zm12.774-86.118c6.6,0,12.168,2.325,15.735,6.786,4.512,5.641,4.773,13.565.68,20.677-4.007,6.968-9.7,11.027-15.214,14.952-5.066,3.61-9.852,7.02-13.354,12.523-3.173,4.986-2.521,9.328-.777,20.933.352,2.344.746,4.972,1.159,7.943,15.572-.031,22.354-.792,24.092-2.685.7-.763.646-1.838.477-3.829-.405-4.756-1.017-11.945,12.511-22.146,18.531-13.962,27.515-30.363,25.3-46.182-1.94-13.835-12.207-25.6-27.467-31.463-20.88-8.026-45.207-3.009-65.267,13.409C83.558,31,84.528,32.5,85.423,33.887c4.833,7.489,7.494,11.614,9.5,12.982,1.553,1.064,2.815.511,6.558-1.392a76.364,76.364,0,0,1,13.015-5.4A34.423,34.423,0,0,1,124.624,38.442Z" transform="translate(-79.449 -9.893)" fill="#b2a864"/>
        </g>
        <g id="Grupo_25991" data-name="Grupo 25991" transform="translate(31.583 128.845)" style="mix-blend-mode: multiply;isolation: isolate">
          <path id="Trazado_66626" data-name="Trazado 66626" d="M119.8,156.465c-9.165,0-19.029-5.8-19.029-18.523,0-12.691,9.865-18.471,19.031-18.471,9.512,0,19.141,6.345,19.141,18.471C138.943,150.1,129.314,156.465,119.8,156.465Zm0-34.691c-8.057,0-16.728,5.06-16.728,16.169,0,11.145,8.671,16.22,16.727,16.22,8.111,0,16.84-5.076,16.84-16.22C136.64,126.833,127.912,121.773,119.8,121.773Z" transform="translate(-100.771 -119.471)" fill="#b2a864"/>
        </g>
        <g id="Grupo_25996" data-name="Grupo 25996" style="mix-blend-mode: multiply;isolation: isolate">
          <g id="Grupo_25992" data-name="Grupo 25992" transform="translate(30.201 81.558)">
            <path id="Trazado_66627" data-name="Trazado 66627" d="M108.808,119.527h-5.652l-.764-5.6c-.457-3.347-.9-6.264-1.284-8.838-1.876-12.5-2.819-18.769,1.886-26.162.114-.178.228-.356.344-.532l1.923,1.267-.323.5c-4.243,6.669-3.343,12.656-1.551,24.585.388,2.582.828,5.512,1.287,8.87l.494,3.609h3.641c19.368,0,25.876-.989,29.017-4.408a7.228,7.228,0,0,0,1.819-3.65l2.262.425a9.452,9.452,0,0,1-2.386,4.783C135.805,118.42,129.2,119.527,108.808,119.527Z" transform="translate(-99.57 -78.395)" fill="#b2a864"/>
          </g>
          <g id="Grupo_25993" data-name="Grupo 25993" transform="translate(49.722 36.567)">
            <path id="Trazado_66628" data-name="Trazado 66628" d="M132.924,52.7l-2.287-.271a10.861,10.861,0,0,0,.076-1.254,9,9,0,0,0-1.195-4.573c-2.109-3.642-6.859-5.472-12.756-4.87l-.234-2.29c6.834-.7,12.41,1.558,14.983,6.006a11.279,11.279,0,0,1,1.5,5.726A13.213,13.213,0,0,1,132.924,52.7Z" transform="translate(-116.527 -39.313)" fill="#b2a864"/>
          </g>
          <g id="Grupo_25994" data-name="Grupo 25994">
            <path id="Trazado_66629" data-name="Trazado 66629" d="M97.42,55.394c-6.5,0-9.492-4.632-17.481-17.012-1.044-1.619-2.2-3.4-3.472-5.367L73.336,28.2l4.4-3.686a83.846,83.846,0,0,1,31.53-16.969l.611,2.22A81.555,81.555,0,0,0,79.213,26.283l-2.835,2.376,2.018,3.1c1.28,1.967,2.434,3.753,3.478,5.374,7.7,11.936,10.3,15.958,15.547,15.958a10.635,10.635,0,0,0,4.249-1l.9,2.119A12.778,12.778,0,0,1,97.42,55.394Z" transform="translate(-73.336 -7.549)" fill="#b2a864"/>
          </g>
          <g id="Grupo_25995" data-name="Grupo 25995" transform="translate(95.294 36.135)">
            <path id="Trazado_66630" data-name="Trazado 66630" d="M157.871,81.4l-1.757-1.49c8.647-10.185,13.217-21.278,13.217-32.079a39.19,39.19,0,0,0-.915-8.4l2.248-.5a41.5,41.5,0,0,1,.969,8.9C171.633,59.188,166.874,70.8,157.871,81.4Z" transform="translate(-156.114 -38.938)" fill="#b2a864"/>
          </g>
        </g>
        <g id="Grupo_25998" data-name="Grupo 25998" transform="translate(26.257 133.258)" style="mix-blend-mode: multiply;isolation: isolate">
          <g id="Grupo_25997" data-name="Grupo 25997">
            <path id="Trazado_66631" data-name="Trazado 66631" d="M120.613,161.211H120.5c-12.1,0-24.356-8.192-24.356-23.848a25.657,25.657,0,0,1,1.262-8.125l2.184.728a23.334,23.334,0,0,0-1.143,7.4c0,14.145,11.094,21.546,22.054,21.546Zm21.819-12.669-2.053-1.042a22.189,22.189,0,0,0,2.286-10.137,21.164,21.164,0,0,0-3.869-12.707l1.865-1.35a23.415,23.415,0,0,1,4.307,14.057A24.461,24.461,0,0,1,142.432,148.542Z" transform="translate(-96.144 -123.305)" fill="#b2a864"/>
          </g>
        </g>
      </g>
      <g id="Grupo_26009" data-name="Grupo 26009" transform="translate(34.88 42.778)">
        <g id="Grupo_26000" data-name="Grupo 26000" transform="translate(6.324 4.764)" style="mix-blend-mode: multiply;isolation: isolate">
          <path id="Trazado_66632" data-name="Trazado 66632" d="M58.517,105.078h-1l-.136-1c-.248-1.811-.485-3.391-.694-4.786-.953-6.345-1.389-9.242.675-12.485s4.91-5.276,7.654-7.232c2.94-2.1,5.718-4.074,7.682-7.49,1.832-3.184,1.75-6.686-.213-9.142-2.371-2.965-6.863-3.784-12.017-2.187a39.573,39.573,0,0,0-6.728,2.794c-4.9,2.492-5.473,1.606-10.932-6.855-.563-.874-1.185-1.836-1.874-2.9l-.556-.855.782-.655C52.533,42.759,66.49,39.817,78.482,44.43c8.825,3.393,14.77,10.249,15.905,18.344,1.287,9.181-3.792,18.6-14.3,26.519-6.5,4.9-6.233,8.055-6.036,10.356.1,1.183.2,2.406-.717,3.41C71.909,104.607,68.449,105.078,58.517,105.078Zm6.877-47.42a10.981,10.981,0,0,1,8.884,3.853c2.568,3.212,2.725,7.7.412,11.727-2.216,3.852-5.33,6.07-8.344,8.216-2.683,1.912-5.218,3.72-7.047,6.593-1.6,2.517-1.258,4.8-.341,10.908.17,1.141.36,2.406.559,3.82,5.587-.018,11.144-.213,12.115-1.272.227-.246.195-.763.119-1.657-.214-2.514-.572-6.723,6.944-12.39,9.815-7.394,14.577-16.045,13.411-24.362-1.018-7.253-6.42-13.426-14.451-16.514-10.93-4.2-23.659-1.643-34.236,6.834.472.728.908,1.407,1.317,2.038,2.564,3.973,3.975,6.161,4.964,6.837.538.37.906.274,2.989-.785a41.712,41.712,0,0,1,7.09-2.941A19.071,19.071,0,0,1,65.394,57.657Z" transform="translate(-40.373 -42.289)" fill="#375982"/>
        </g>
        <g id="Grupo_26005" data-name="Grupo 26005" style="mix-blend-mode: multiply;isolation: isolate">
          <g id="Grupo_26001" data-name="Grupo 26001" transform="translate(17.051 35.863)">
            <path id="Trazado_66633" data-name="Trazado 66633" d="M57.108,105.779h-5.18l-.7-5.133c-.241-1.765-.473-3.309-.677-4.672-1.041-6.919-1.663-11.063,1.362-15.816,2.571-4.041,5.941-6.442,8.916-8.56,1.1-.782,2.132-1.52,3.067-2.293l1.469,1.774c-1,.827-2.069,1.588-3.2,2.393-2.8,2-5.979,4.261-8.308,7.923-2.564,4.027-2.054,7.422-1.036,14.183.214,1.427.447,2.98.691,4.757l.429,3.143h3.17c9.908,0,14.41-.391,16.642-2.822a6.485,6.485,0,0,0,1.362-5.3c-.2-2.317.049-4.39,5.055-8.163q.934-.7,1.813-1.422l1.457,1.783q-.913.748-1.885,1.477c-4.386,3.309-4.271,4.678-4.148,6.129a8.712,8.712,0,0,1-1.959,7.052C72.665,105.24,68.223,105.779,57.108,105.779Z" transform="translate(-49.692 -69.304)" fill="#375982"/>
          </g>
          <g id="Grupo_26002" data-name="Grupo 26002" transform="translate(34.873 27.332)">
            <path id="Trazado_66634" data-name="Trazado 66634" d="M67.527,66.2l-2.208-.655a3.735,3.735,0,0,0,.165-1.067,2.455,2.455,0,0,0-.311-1.239l1.876-1.342c.044.066.084.134.123.2a4.692,4.692,0,0,1,.614,2.378A6.106,6.106,0,0,1,67.527,66.2Z" transform="translate(-65.173 -61.893)" fill="#375982"/>
          </g>
          <g id="Grupo_26003" data-name="Grupo 26003">
            <path id="Trazado_66635" data-name="Trazado 66635" d="M51.082,70.2c-4.836,0-6.914-3.221-11.468-10.279l-.132-.2c-.525-.814-1.1-1.7-1.733-2.674L34.88,52.63l4.032-3.379c8.666-7.262,18.6-11.1,28.74-11.1a39.111,39.111,0,0,1,5.56.4l-.328,2.278a36.9,36.9,0,0,0-5.232-.372c-9.587,0-19.014,3.653-27.26,10.562l-2.468,2.069,1.756,2.7c.635.974,1.212,1.867,1.738,2.683l.131.2c4.62,7.159,6.106,9.225,9.534,9.225a10.08,10.08,0,0,0,4.609-1.5,36.927,36.927,0,0,1,6.336-2.635,12.472,12.472,0,0,1,6-.525l-.455,2.258a10.263,10.263,0,0,0-4.865.466,34.916,34.916,0,0,0-5.975,2.489A12.143,12.143,0,0,1,51.082,70.2Z" transform="translate(-34.88 -38.151)" fill="#375982"/>
          </g>
          <g id="Grupo_26004" data-name="Grupo 26004" transform="translate(60.255 22.498)">
            <path id="Trazado_66636" data-name="Trazado 66636" d="M89.278,75.541l-2.057-1.034a24.85,24.85,0,0,0,2.789-11.2,22.6,22.6,0,0,0-.587-5.1l2.241-.521a24.869,24.869,0,0,1,.648,5.617A27.119,27.119,0,0,1,89.278,75.541Z" transform="translate(-87.221 -57.694)" fill="#375982"/>
          </g>
        </g>
        <g id="Grupo_26007" data-name="Grupo 26007" transform="translate(14.922 75.321)" style="mix-blend-mode: multiply;isolation: isolate">
          <g id="Grupo_26006" data-name="Grupo 26006">
            <path id="Trazado_66637" data-name="Trazado 66637" d="M63.4,134.126c-7.731,0-15.56-5.252-15.56-15.287,0-10.019,7.828-15.26,15.56-15.26,7.573,0,15.622,5.348,15.622,15.26a14.688,14.688,0,0,1-5.831,12.052l-1.385-1.84a12.243,12.243,0,0,0,4.913-10.212c0-8.416-6.862-12.958-13.319-12.958-6.587,0-13.257,4.451-13.257,12.958,0,8.523,6.67,12.984,13.257,12.984Z" transform="translate(-47.842 -103.579)" fill="#375982"/>
          </g>
        </g>
        <g id="Grupo_26008" data-name="Grupo 26008" transform="translate(19.706 80.106)" style="mix-blend-mode: multiply;isolation: isolate">
          <path id="Trazado_66638" data-name="Trazado 66638" d="M62.773,128.713c-5.354,0-10.775-3.608-10.775-10.5,0-6.877,5.421-10.475,10.775-10.475,5.385,0,10.836,3.6,10.836,10.475C73.61,125.105,68.157,128.713,62.773,128.713Zm0-18.675c-4.08,0-8.473,2.557-8.473,8.172,0,5.634,4.393,8.2,8.473,8.2,4.11,0,8.534-2.566,8.534-8.2A7.759,7.759,0,0,0,68.68,112.1,9.039,9.039,0,0,0,62.773,110.038Z" transform="translate(-51.998 -107.736)" fill="#375982"/>
        </g>
      </g>
    </g>
  </g>
</svg>
