<svg xmlns="http://www.w3.org/2000/svg" width="103.501" height="109.255" viewBox="0 0 103.501 109.255">
  <g id="Grupo_28563" data-name="Grupo 28563" transform="translate(-2619.249 2563)">
    <g id="Grupo_28559" data-name="Grupo 28559" transform="translate(2619.249 -2563)">
      <g id="Grupo_28472" data-name="Grupo 28472" transform="translate(76.064 57.141)">
        <path id="Trazado_68901" data-name="Trazado 68901" d="M261.9,5571.709a1.735,1.735,0,0,1-1.17-3.019,45.522,45.522,0,0,0,14.628-33.663,1.736,1.736,0,0,1,3.471,0,49,49,0,0,1-15.761,36.229A1.731,1.731,0,0,1,261.9,5571.709Z" transform="translate(-260.165 -5533.293)" fill="#325a6a"/>
      </g>
      <g id="Grupo_28473" data-name="Grupo 28473" transform="translate(70.09 17.613)">
        <path id="Trazado_68902" data-name="Trazado 68902" d="M260.968,5476.619a1.733,1.733,0,0,1-1.3-.584,43.018,43.018,0,0,0-9.006-7.716,1.736,1.736,0,0,1,1.87-2.924,46.491,46.491,0,0,1,9.734,8.338,1.736,1.736,0,0,1-1.3,2.887Z" transform="translate(-249.862 -5465.121)" fill="#325a6a"/>
      </g>
      <g id="Grupo_28474" data-name="Grupo 28474" transform="translate(17.397 15.803)">
        <path id="Trazado_68903" data-name="Trazado 68903" d="M160.724,5472.741a1.736,1.736,0,0,1-1.205-2.985,45.918,45.918,0,0,1,10.408-7.555,1.736,1.736,0,0,1,1.622,3.069,42.422,42.422,0,0,0-9.62,6.984A1.73,1.73,0,0,1,160.724,5472.741Z" transform="translate(-158.988 -5462)" fill="#325a6a"/>
      </g>
      <g id="Grupo_28475" data-name="Grupo 28475" transform="translate(3.139 57.141)">
        <path id="Trazado_68904" data-name="Trazado 68904" d="M151.817,5572.15a1.731,1.731,0,0,1-1.15-.436,48.889,48.889,0,0,1-16.269-36.686,1.736,1.736,0,0,1,3.471,0,45.415,45.415,0,0,0,15.1,34.086,1.736,1.736,0,0,1-1.151,3.036Z" transform="translate(-134.398 -5533.293)" fill="#325a6a"/>
      </g>
      <g id="Grupo_28480" data-name="Grupo 28480" transform="translate(31.279)">
        <g id="Grupo_28477" data-name="Grupo 28477" transform="translate(0 2.953)">
          <g id="Grupo_28476" data-name="Grupo 28476">
            <rect id="Rectángulo_26333" data-name="Rectángulo 26333" width="35.395" height="25.06" transform="translate(1.736 1.736)" fill="#ffd354"/>
            <path id="Trazado_68905" data-name="Trazado 68905" d="M220.059,5468.37H184.664a1.736,1.736,0,0,1-1.736-1.736v-25.06a1.736,1.736,0,0,1,3.472,0V5464.9h31.923v-23.324a1.736,1.736,0,0,1,3.471,0v25.06A1.736,1.736,0,0,1,220.059,5468.37Z" transform="translate(-182.928 -5439.839)" fill="#325a6a"/>
          </g>
        </g>
        <g id="Grupo_28478" data-name="Grupo 28478" transform="translate(5.176)">
          <path id="Trazado_68906" data-name="Trazado 68906" d="M207.259,5461.967a19.618,19.618,0,0,0-12.412-3.94v-20.264a19.62,19.62,0,0,1,12.412,3.941,20.158,20.158,0,0,1,12.632-3.941v20.264a20.1,20.1,0,0,0-12.6,3.958Z" transform="translate(-193.112 -5436.004)" fill="#fff"/>
          <path id="Trazado_68907" data-name="Trazado 68907" d="M206.036,5462.462a1.74,1.74,0,0,1-.825-.208,1.715,1.715,0,0,1-.256-.161,17.868,17.868,0,0,0-11.215-3.6,1.735,1.735,0,0,1-1.886-1.729V5436.5a1.737,1.737,0,0,1,1.585-1.729,21.256,21.256,0,0,1,12.588,3.56,21.674,21.674,0,0,1,12.753-3.56,1.736,1.736,0,0,1,1.589,1.729v20.264a1.736,1.736,0,0,1-1.878,1.729,18.569,18.569,0,0,0-11.41,3.612A1.725,1.725,0,0,1,206.036,5462.462Zm-10.711-7.423a21.7,21.7,0,0,1,10.707,3.563,22.1,22.1,0,0,1,10.865-3.562v-16.784a18.493,18.493,0,0,0-9.8,3.574,1.627,1.627,0,0,1-1.051.351,1.881,1.881,0,0,1-1.09-.351,18.172,18.172,0,0,0-9.63-3.578Z" transform="translate(-191.854 -5434.746)" fill="#325a6a"/>
        </g>
        <g id="Grupo_28479" data-name="Grupo 28479" transform="translate(17.614 4.032)">
          <path id="Trazado_68908" data-name="Trazado 68908" d="M215.04,5465.384a1.735,1.735,0,0,1-1.735-1.736v-20.211a1.735,1.735,0,1,1,3.471,0v20.211A1.735,1.735,0,0,1,215.04,5465.384Z" transform="translate(-213.305 -5441.7)" fill="#325a6a"/>
        </g>
      </g>
      <g id="Grupo_28485" data-name="Grupo 28485" transform="translate(71.124 27.823)">
        <g id="Grupo_28481" data-name="Grupo 28481" transform="translate(0 1.205)">
          <path id="Trazado_68909" data-name="Trazado 68909" d="M259.321,5502.225l7.391,5.833V5487.8l-7.391,5.834h-3.1a1.627,1.627,0,0,0-1.586,1.665v5.235a1.625,1.625,0,0,0,1.572,1.664Z" transform="translate(-252.904 -5486.065)" fill="#fff"/>
          <path id="Trazado_68910" data-name="Trazado 68910" d="M265.454,5508.537a1.731,1.731,0,0,1-1.075-.374l-6.924-5.465-2.515-.021a3.37,3.37,0,0,1-3.293-3.4v-5.235a3.365,3.365,0,0,1,3.321-3.4h2.494l6.918-5.46a1.735,1.735,0,0,1,2.811,1.362V5506.8a1.736,1.736,0,0,1-1.736,1.736Zm-6.037-8.712,4.3,3.4v-13.1l-4.58,3.615a1.735,1.735,0,0,1-1.075.374h-2.947v5.095l1.917.015A3.319,3.319,0,0,1,259.418,5499.825Z" transform="translate(-251.646 -5484.808)" fill="#325a6a"/>
        </g>
        <g id="Grupo_28484" data-name="Grupo 28484" transform="translate(18.973)">
          <g id="Grupo_28482" data-name="Grupo 28482" transform="translate(5.339)">
            <path id="Trazado_68911" data-name="Trazado 68911" d="M295.31,5509.563a1.735,1.735,0,0,1-1.257-2.933,15.372,15.372,0,0,0,0-20.966,1.736,1.736,0,1,1,2.513-2.395,18.88,18.88,0,0,1,0,25.755A1.729,1.729,0,0,1,295.31,5509.563Z" transform="translate(-293.574 -5482.73)" fill="#325a6a"/>
          </g>
          <g id="Grupo_28483" data-name="Grupo 28483" transform="translate(0 5.841)">
            <path id="Trazado_68912" data-name="Trazado 68912" d="M286.1,5507.955a1.735,1.735,0,0,1-1.257-2.933,6.809,6.809,0,0,0,0-9.287,1.735,1.735,0,1,1,2.513-2.394,10.319,10.319,0,0,1,0,14.074A1.729,1.729,0,0,1,286.1,5507.955Z" transform="translate(-284.366 -5492.804)" fill="#325a6a"/>
          </g>
        </g>
      </g>
      <g id="Grupo_28488" data-name="Grupo 28488" transform="translate(0 26.285)">
        <g id="Grupo_28486" data-name="Grupo 28486">
          <path id="Trazado_68913" data-name="Trazado 68913" d="M141.856,5483.07h13.222a1.635,1.635,0,0,1,1.594,1.673v21.713a1.635,1.635,0,0,1-1.594,1.673H133.571a1.635,1.635,0,0,1-1.593-1.673v-21.713a1.635,1.635,0,0,1,1.593-1.673h8.284Z" transform="translate(-130.242 -5481.334)" fill="#48b1e2"/>
          <path id="Trazado_68914" data-name="Trazado 68914" d="M153.82,5508.608H132.313a3.374,3.374,0,0,1-3.329-3.409v-21.713a3.373,3.373,0,0,1,3.329-3.409H153.82a3.373,3.373,0,0,1,3.329,3.409V5505.2A3.374,3.374,0,0,1,153.82,5508.608Zm-21.364-3.472h21.222v-21.588H132.456Z" transform="translate(-128.984 -5480.077)" fill="#325a6a"/>
        </g>
        <g id="Grupo_28487" data-name="Grupo 28487" transform="translate(9.055 7.619)">
          <path id="Trazado_68915" data-name="Trazado 68915" d="M147.593,5497.687v7.173a1.4,1.4,0,0,0,2.236,1.193l4.957-3.8a1.52,1.52,0,0,0-.064-2.433l-4.957-3.375A1.406,1.406,0,0,0,147.593,5497.687Z" transform="translate(-145.858 -5494.474)" fill="#fff"/>
          <path id="Trazado_68916" data-name="Trazado 68916" d="M147.744,5506.818a3.082,3.082,0,0,1-1.368-.321,3.2,3.2,0,0,1-1.776-2.893v-7.174a3.21,3.21,0,0,1,1.7-2.854,3.085,3.085,0,0,1,3.186.18l4.957,3.376a3.254,3.254,0,0,1,.143,5.244l-4.958,3.8A3.093,3.093,0,0,1,147.744,5506.818Zm.328-9.824v6l4.146-3.177Z" transform="translate(-144.6 -5493.218)" fill="#325a6a"/>
        </g>
      </g>
      <g id="Grupo_28496" data-name="Grupo 28496" transform="translate(18.932 35.443)">
        <g id="Grupo_28495" data-name="Grupo 28495">
          <g id="Grupo_28494" data-name="Grupo 28494">
            <g id="Grupo_28489" data-name="Grupo 28489" transform="translate(9.137)">
              <path id="Trazado_68917" data-name="Trazado 68917" d="M220.572,5552.282v-31.556c0-12.952-9-21.863-20.093-21.863s-20.093,8.911-20.093,21.863v31.151Z" transform="translate(-178.651 -5497.128)" fill="#ffd354"/>
              <path id="Trazado_68918" data-name="Trazado 68918" d="M219.314,5552.76a1.735,1.735,0,0,1-1.735-1.735v-31.556c0-11.474-7.892-20.126-18.357-20.126s-18.358,8.652-18.358,20.126v31.151a1.735,1.735,0,1,1-3.471,0v-31.151c0-13.453,9.384-23.6,21.829-23.6s21.828,10.145,21.828,23.6v31.556A1.735,1.735,0,0,1,219.314,5552.76Z" transform="translate(-177.393 -5495.871)" fill="#325a6a"/>
            </g>
            <g id="Grupo_28490" data-name="Grupo 28490" transform="translate(0 51.331)">
              <path id="Trazado_68919" data-name="Trazado 68919" d="M164.628,5606.4V5602c0-8.071,6.232-14.613,13.92-14.613H207.5c7.688,0,13.92,6.542,13.92,14.613v4.4Z" transform="translate(-162.893 -5585.655)" fill="#ffd354"/>
              <path id="Trazado_68920" data-name="Trazado 68920" d="M220.166,5606.879a1.736,1.736,0,0,1-1.735-1.736v-4.4c0-7.1-5.466-12.877-12.184-12.877H177.29c-6.717,0-12.184,5.777-12.184,12.877v4.4a1.735,1.735,0,1,1-3.471,0v-4.4c0-9.015,7.023-16.348,15.655-16.348h28.957c8.633,0,15.656,7.333,15.656,16.348v4.4A1.736,1.736,0,0,1,220.166,5606.879Z" transform="translate(-161.635 -5584.397)" fill="#325a6a"/>
            </g>
            <g id="Grupo_28491" data-name="Grupo 28491" transform="translate(22.214 39.628)">
              <path id="Trazado_68921" data-name="Trazado 68921" d="M216.943,5567.263v9.247l-.018,2.258c0,2.935-3.131,5.447-6.993,5.447s-6.993-3.144-6.993-5.447l.01-1.824v-9.736Z" transform="translate(-201.203 -5565.473)" fill="#fff"/>
              <path id="Trazado_68922" data-name="Trazado 68922" d="M208.674,5584.694c-4.835,0-8.729-3.93-8.729-7.183l.01-11.561a1.736,1.736,0,0,1,3.471,0l-.01,11.57c0,1.228,2.273,3.7,5.257,3.7,2.8,0,5.257-1.734,5.257-3.712l.017-2.271v-9.233a1.736,1.736,0,1,1,3.471,0l-.017,11.518C217.4,5581.472,213.487,5584.694,208.674,5584.694Z" transform="translate(-199.945 -5564.215)" fill="#325a6a"/>
            </g>
            <g id="Grupo_28493" data-name="Grupo 28493" transform="translate(13.212 10.02)">
              <g id="Grupo_28492" data-name="Grupo 28492">
                <path id="Trazado_68923" data-name="Trazado 68923" d="M203.694,5518.524s3.307,7.809,15.692,8.393c-.009.319,0,.646,0,.975,0,10.937-7.156,19.8-15.985,19.8s-15.985-8.865-15.985-19.8l.028.073c13.094-2.48,17.876-11.82,17.876-11.82Z" transform="translate(-185.679 -5514.409)" fill="#fff"/>
                <path id="Trazado_68924" data-name="Trazado 68924" d="M202.142,5548.171c-9.771,0-17.721-9.661-17.721-21.537a1.735,1.735,0,0,1,1.425-1.708,1.762,1.762,0,0,1,.493-.019A25.047,25.047,0,0,0,201,5516.3a1.731,1.731,0,0,1,.178-.224,14.361,14.361,0,0,0,1.342-1.979,1.735,1.735,0,1,1,3.089,1.582,15.024,15.024,0,0,1-1.1,1.743c1.2,1.84,4.878,6.054,13.591,6.5a1.567,1.567,0,0,1,.3.024,1.747,1.747,0,0,1,1.449,1.845q.013.419.013.845C219.863,5538.51,211.913,5548.171,202.142,5548.171Zm-14.2-20.062c.594,9.273,6.737,16.59,14.2,16.59,7.689,0,13.975-7.761,14.24-17.429-8.062-.82-12.249-4.609-14.168-7.1A28.638,28.638,0,0,1,187.939,5528.109Z" transform="translate(-184.421 -5513.151)" fill="#325a6a"/>
              </g>
            </g>
          </g>
        </g>
      </g>
    </g>
  </g>
</svg>
