<svg xmlns="http://www.w3.org/2000/svg" width="118.816" height="113.718" viewBox="0 0 118.816 113.718">
  <g id="Grupo_28564" data-name="Grupo 28564" transform="translate(-2312 2566)">
    <g id="Grupo_28561" data-name="Grupo 28561" transform="translate(2312 -2566)">
      <g id="Grupo_28459" data-name="Grupo 28459" transform="translate(0)">
        <path id="Trazado_68878" data-name="Trazado 68878" d="M201.633,5272.163h34.32a31.649,31.649,0,0,0,0-63.3H183.486a31.66,31.66,0,0,0-2.961,63.158Z" transform="translate(-150.312 -5207.131)" fill="#fff"/>
        <path id="Trazado_68879" data-name="Trazado 68879" d="M234.7,5272.641h-34.32a1.736,1.736,0,1,1,0-3.471H234.7a29.913,29.913,0,0,0,0-59.825H182.228a29.924,29.924,0,0,0-2.8,59.694,1.736,1.736,0,1,1-.325,3.457,33.4,33.4,0,0,1,3.124-66.622H234.7a33.385,33.385,0,0,1,0,66.768Z" transform="translate(-149.054 -5205.873)" fill="#325a6a"/>
      </g>
      <g id="Grupo_28460" data-name="Grupo 28460" transform="translate(15.783 9.066)">
        <path id="Trazado_68880" data-name="Trazado 68880" d="M256.564,5261.66h-77.3V5224.5h77.4v30.316Z" transform="translate(-177.531 -5222.766)" fill="#fff"/>
        <path id="Trazado_68881" data-name="Trazado 68881" d="M255.306,5262.138h-77.3a1.736,1.736,0,0,1-1.736-1.736v-37.158a1.736,1.736,0,0,1,1.736-1.736h77.4a1.736,1.736,0,0,1,1.736,1.736v30.315a1.736,1.736,0,0,1-3.471,0v-28.58H179.745v33.687h75.562a1.736,1.736,0,0,1,0,3.472Z" transform="translate(-176.273 -5221.508)" fill="#325a6a"/>
      </g>
      <g id="Grupo_28461" data-name="Grupo 28461" transform="translate(35.415 21.982)">
        <path id="Trazado_68882" data-name="Trazado 68882" d="M228.186,5253.645a1.73,1.73,0,0,1-.632-.12l-16.32-6.389a1.736,1.736,0,1,1,1.266-3.232l16.32,6.39a1.736,1.736,0,0,1-.634,3.352Z" transform="translate(-210.131 -5243.783)" fill="#325a6a"/>
      </g>
      <g id="Grupo_28462" data-name="Grupo 28462" transform="translate(72.369 17.928)">
        <path id="Trazado_68883" data-name="Trazado 68883" d="M292.8,5247.813a7.974,7.974,0,1,1-7.974-8.027A8,8,0,0,1,292.8,5247.813Z" transform="translate(-275.12 -5238.05)" fill="#fff"/>
        <path id="Trazado_68884" data-name="Trazado 68884" d="M283.571,5256.317a9.763,9.763,0,1,1,9.709-9.763A9.746,9.746,0,0,1,283.571,5256.317Zm0-16.054a6.291,6.291,0,1,0,6.238,6.291A6.272,6.272,0,0,0,283.571,5240.264Z" transform="translate(-273.862 -5236.792)" fill="#325a6a"/>
      </g>
      <g id="Grupo_28463" data-name="Grupo 28463" transform="translate(50.189 27.872)">
        <path id="Trazado_68885" data-name="Trazado 68885" d="M257.291,5274.16c-2.3-.679-7.355-2.322-10.873-4.9a46.869,46.869,0,0,1-6.939-6.5,3.515,3.515,0,0,1,.271-4.935,3.457,3.457,0,0,1,4.593-.049,65.972,65.972,0,0,0,8.113,6.272,20.071,20.071,0,0,0,7.91,2.175Z" transform="translate(-236.865 -5255.197)" fill="#fff"/>
        <path id="Trazado_68886" data-name="Trazado 68886" d="M256.037,5274.641a1.711,1.711,0,0,1-.491-.071,39.01,39.01,0,0,1-11.408-5.163,48.826,48.826,0,0,1-7.211-6.747,5.265,5.265,0,0,1,.405-7.375,5.2,5.2,0,0,1,6.9-.072,60.933,60.933,0,0,0,7.835,6.074,18.312,18.312,0,0,0,7.2,1.954,1.735,1.735,0,0,1,1.469,2.356l-3.075,7.936A1.736,1.736,0,0,1,256.037,5274.641Zm-15.215-17.229a1.729,1.729,0,0,0-1.162.448,1.781,1.781,0,0,0-.138,2.5,45.324,45.324,0,0,0,6.666,6.251,33.506,33.506,0,0,0,8.815,4.161l1.687-4.354a19.49,19.49,0,0,1-6.348-2.111,66.277,66.277,0,0,1-8.392-6.47A1.719,1.719,0,0,0,240.822,5257.411Z" transform="translate(-235.611 -5253.941)" fill="#325a6a"/>
      </g>
      <g id="Grupo_28464" data-name="Grupo 28464" transform="translate(68.879 37.165)">
        <path id="Trazado_68887" data-name="Trazado 68887" d="M272.7,5292.239v-10.8c-.226-.066-.451-.131-.676-.2-.128-.04-.553-.153-1.186-.34l3.075-7.935c1.122.1,1.881.1,1.978.112h12.817a11.185,11.185,0,0,1,7.647,3.147v15.92Z" transform="translate(-269.102 -5271.226)" fill="#48b1e2"/>
        <path id="Trazado_68888" data-name="Trazado 68888" d="M271.442,5292.717a1.736,1.736,0,0,1-1.736-1.736v-9.5c-.175-.05-.382-.109-.616-.179a1.735,1.735,0,0,1-1.128-2.292l3.075-7.936a1.727,1.727,0,0,1,1.767-1.1c.72.062,1.283.082,1.6.093.1,0,.194.008.268.013h12.78a12.957,12.957,0,0,1,8.8,3.581,1.735,1.735,0,0,1,.589,1.3v15.92a1.736,1.736,0,0,1-3.471,0v-15.11a9.191,9.191,0,0,0-5.912-2.221H274.634c-.057,0-.114,0-.17-.008l-.181-.007c-.124,0-.281-.01-.469-.019l-1.93,4.982a1.751,1.751,0,0,1,1.294,1.68v10.8A1.735,1.735,0,0,1,271.442,5292.717Z" transform="translate(-267.844 -5269.968)" fill="#325a6a"/>
      </g>
      <g id="Grupo_28465" data-name="Grupo 28465" transform="translate(79.368 40.506)">
        <path id="Trazado_68889" data-name="Trazado 68889" d="M307.663,5285.747l2.372-7.023H294.442l-5.514,16.332H304.52l.8-2.386Z" transform="translate(-287.192 -5276.988)" fill="#ffd354"/>
        <path id="Trazado_68890" data-name="Trazado 68890" d="M303.262,5295.533H287.67a1.736,1.736,0,0,1-1.645-2.291l5.514-16.332a1.736,1.736,0,0,1,1.644-1.181h15.593a1.736,1.736,0,0,1,1.644,2.291l-2.369,7.015-3.291-1.1,1.6-4.73H294.43l-4.342,12.86h11.928l.406-1.205a1.736,1.736,0,0,1,3.289,1.111l-.805,2.385A1.736,1.736,0,0,1,303.262,5295.533Z" transform="translate(-285.934 -5275.73)" fill="#325a6a"/>
      </g>
      <g id="Grupo_28466" data-name="Grupo 28466" transform="translate(93.111 43.976)">
        <path id="Trazado_68891" data-name="Trazado 68891" d="M318.9,5284.708a12.221,12.221,0,0,1,2.243,1.734,4.594,4.594,0,0,1,1.428,4.671c-.9,2.968-3.336,4.295-7.39,3.9a3.118,3.118,0,0,1-2.481-3.829,3.21,3.21,0,0,1,3.793-2.5.914.914,0,0,0,1.131-.428Z" transform="translate(-310.891 -5282.973)" fill="#fff"/>
        <path id="Trazado_68892" data-name="Trazado 68892" d="M315.25,5295.562c-.472,0-.97-.023-1.5-.075a4.381,4.381,0,0,1-3.13-1.814,5.217,5.217,0,0,1-.883-4.1,4.963,4.963,0,0,1,5.27-3.928l1-2.784a1.736,1.736,0,0,1,2.489-.923,13.907,13.907,0,0,1,2.576,1.979,6.347,6.347,0,0,1,1.9,6.438C322.235,5292.8,320.287,5295.562,315.25,5295.562Zm-.691-6.471a1.493,1.493,0,0,0-1.422,1.2,1.717,1.717,0,0,0,.282,1.329.933.933,0,0,0,.667.416c4.1.4,5.122-1.223,5.561-2.677a2.87,2.87,0,0,0-.955-2.906c-.074-.07-.145-.135-.215-.2l-.482,1.341a2.679,2.679,0,0,1-3.179,1.526A1.249,1.249,0,0,0,314.56,5289.091Z" transform="translate(-309.634 -5281.715)" fill="#325a6a"/>
      </g>
      <g id="Grupo_28467" data-name="Grupo 28467" transform="translate(26.618 44.092)">
        <path id="Trazado_68893" data-name="Trazado 68893" d="M222.792,5297.411a12.42,12.42,0,1,1-12.42-12.5A12.462,12.462,0,0,1,222.792,5297.411Z" transform="translate(-196.217 -5283.172)" fill="#fff"/>
        <path id="Trazado_68894" data-name="Trazado 68894" d="M209.115,5310.392a14.239,14.239,0,1,1,14.155-14.239A14.214,14.214,0,0,1,209.115,5310.392Zm0-25.006a10.768,10.768,0,1,0,10.684,10.767A10.738,10.738,0,0,0,209.115,5285.386Z" transform="translate(-194.959 -5281.914)" fill="#325a6a"/>
      </g>
      <g id="Grupo_28468" data-name="Grupo 28468" transform="translate(21.446 72.581)">
        <path id="Trazado_68895" data-name="Trazado 68895" d="M189.035,5341.521a10.589,10.589,0,0,1,10.1-7.48h15.983a10.59,10.59,0,0,1,10.074,7.394Z" transform="translate(-187.299 -5332.305)" fill="#ffd354"/>
        <path id="Trazado_68896" data-name="Trazado 68896" d="M187.778,5342a1.738,1.738,0,0,1-1.659-2.248,12.264,12.264,0,0,1,11.759-8.7h15.983a12.281,12.281,0,0,1,11.727,8.6,1.736,1.736,0,0,1-3.308,1.054,8.821,8.821,0,0,0-8.419-6.185H197.878a8.808,8.808,0,0,0-8.442,6.257A1.735,1.735,0,0,1,187.778,5342Z" transform="translate(-186.041 -5331.047)" fill="#325a6a"/>
      </g>
      <g id="Grupo_28469" data-name="Grupo 28469" transform="translate(11.371 78.096)">
        <path id="Trazado_68897" data-name="Trazado 68897" d="M220.718,5343.551H176.611a4.954,4.954,0,0,0-4.954,4.954v23.017a4.18,4.18,0,0,0,4.182,4.18H221.49a4.18,4.18,0,0,0,4.182-4.18V5348.5A4.954,4.954,0,0,0,220.718,5343.551Z" transform="translate(-169.922 -5341.815)" fill="#48b1e2"/>
        <path id="Trazado_68898" data-name="Trazado 68898" d="M220.233,5376.181H174.581a5.923,5.923,0,0,1-5.917-5.916v-23.018a6.7,6.7,0,0,1,6.688-6.689h44.108a6.7,6.7,0,0,1,6.689,6.689v23.018A5.924,5.924,0,0,1,220.233,5376.181Zm-44.88-32.151a3.221,3.221,0,0,0-3.217,3.218v23.018a2.448,2.448,0,0,0,2.445,2.445h45.652a2.448,2.448,0,0,0,2.446-2.445v-23.018a3.221,3.221,0,0,0-3.218-3.218Z" transform="translate(-168.664 -5340.558)" fill="#325a6a"/>
      </g>
      <g id="Grupo_28470" data-name="Grupo 28470" transform="translate(70.15 70.017)">
        <path id="Trazado_68899" data-name="Trazado 68899" d="M284.687,5335.488a5.83,5.83,0,1,1-5.83-5.869A5.85,5.85,0,0,1,284.687,5335.488Z" transform="translate(-271.293 -5327.884)" fill="#fff"/>
        <path id="Trazado_68900" data-name="Trazado 68900" d="M277.6,5341.835a7.6,7.6,0,1,1,7.566-7.6A7.593,7.593,0,0,1,277.6,5341.835Zm0-11.737a4.133,4.133,0,1,0,4.094,4.133A4.118,4.118,0,0,0,277.6,5330.1Z" transform="translate(-270.035 -5326.626)" fill="#325a6a"/>
      </g>
    </g>
  </g>
</svg>
