<svg xmlns="http://www.w3.org/2000/svg" width="141.366" height="86.208" viewBox="0 0 141.366 86.208">
  <g id="Grupo_28562" data-name="Grupo 28562" transform="translate(-2915.384 2552)">
    <text id="Paralingüístico" transform="translate(2934.75 -2519.756)" fill="#fff" font-size="19" font-family="SegoeUI, Segoe UI"><tspan x="0" y="0">Paralingüístico</tspan></text>
    <g id="Grupo_28558" data-name="Grupo 28558" transform="translate(2915.384 -2552)">
      <g id="Grupo_28498" data-name="Grupo 28498" transform="translate(0 0)">
        <path id="Trazado_68925" data-name="Trazado 68925" d="M477.4,5286.775H459.39a3.767,3.767,0,0,1-3.767-3.769v-38.913a3.767,3.767,0,0,1,3.767-3.768H498.3a3.767,3.767,0,0,1,3.767,3.768v3.491Z" transform="translate(-453.887 -5238.59)" fill="#fff"/>
        <path id="Trazado_68926" data-name="Trazado 68926" d="M476.137,5287.253H458.132a5.511,5.511,0,0,1-5.5-5.5v-38.913a5.51,5.51,0,0,1,5.5-5.5h38.914a5.509,5.509,0,0,1,5.5,5.5v3.491a1.735,1.735,0,0,1-3.471,0v-3.491a2.034,2.034,0,0,0-2.032-2.032H458.132a2.034,2.034,0,0,0-2.032,2.032v38.913a2.035,2.035,0,0,0,2.032,2.033h18.005a1.736,1.736,0,0,1,0,3.472Z" transform="translate(-452.629 -5237.332)" fill="#325a6a"/>
      </g>
      <g id="Grupo_28499" data-name="Grupo 28499" transform="translate(10.161 8.71)">
        <path id="Trazado_68927" data-name="Trazado 68927" d="M483.307,5260.426a5.08,5.08,0,1,1-5.081-5.08A5.081,5.081,0,0,1,483.307,5260.426Z" transform="translate(-471.41 -5253.611)" fill="#ffd354"/>
        <path id="Trazado_68928" data-name="Trazado 68928" d="M476.968,5265.984a6.816,6.816,0,1,1,6.816-6.816A6.824,6.824,0,0,1,476.968,5265.984Zm0-10.16a3.344,3.344,0,1,0,3.345,3.344A3.348,3.348,0,0,0,476.968,5255.824Z" transform="translate(-470.152 -5252.353)" fill="#325a6a"/>
      </g>
      <g id="Grupo_28500" data-name="Grupo 28500" transform="translate(0 29.121)">
        <path id="Trazado_68929" data-name="Trazado 68929" d="M477.129,5292.454a6.5,6.5,0,0,1-9.193,0,6.5,6.5,0,0,0-9.195,0l-3.118,3.117v8.537a3.767,3.767,0,0,0,3.767,3.769H477.4l9.854-15.65Z" transform="translate(-453.887 -5288.813)" fill="#48b1e2"/>
        <path id="Trazado_68930" data-name="Trazado 68930" d="M476.137,5308.354H458.132a5.51,5.51,0,0,1-5.5-5.5v-8.537a1.74,1.74,0,0,1,.509-1.229l3.118-3.117a8.237,8.237,0,0,1,11.65,0,4.77,4.77,0,0,0,6.738,0,1.737,1.737,0,0,1,1.189-.508l10.12-.227a1.735,1.735,0,0,1,1.508,2.66l-9.854,15.65A1.734,1.734,0,0,1,476.137,5308.354ZM456.1,5295.032v7.818a2.034,2.034,0,0,0,2.032,2.033h17.047l7.623-12.106-6.243.14a8.247,8.247,0,0,1-11.109-.493,4.765,4.765,0,0,0-6.74,0Z" transform="translate(-452.629 -5287.555)" fill="#325a6a"/>
      </g>
      <g id="Grupo_28501" data-name="Grupo 28501" transform="translate(34.837 7.258)">
        <path id="Trazado_68931" data-name="Trazado 68931" d="M515.7,5313.807v10.747a3.767,3.767,0,0,0,3.767,3.768h54.88a3.768,3.768,0,0,0,3.768-3.768v-60.315l-10.748-11.4H520.921a3.769,3.769,0,0,0-3.769,3.769v10.748Z" transform="translate(-513.967 -5251.106)" fill="#fff"/>
        <path id="Trazado_68932" data-name="Trazado 68932" d="M573.092,5328.8h-54.88a5.509,5.509,0,0,1-5.5-5.5v-10.748a1.735,1.735,0,0,1,3.471,0V5323.3a2.034,2.034,0,0,0,2.032,2.031h54.88a2.034,2.034,0,0,0,2.033-2.031V5263.67l-9.762-10.35h-45.7a2.036,2.036,0,0,0-2.034,2.033V5266.1a1.736,1.736,0,1,1-3.471,0v-10.747a5.511,5.511,0,0,1,5.505-5.5h46.448a1.736,1.736,0,0,1,1.263.545l10.749,11.4a1.738,1.738,0,0,1,.473,1.191V5323.3A5.51,5.51,0,0,1,573.092,5328.8Z" transform="translate(-512.709 -5249.849)" fill="#325a6a"/>
      </g>
      <g id="Grupo_28502" data-name="Grupo 28502" transform="translate(91.445 24.677)">
        <path id="Trazado_68933" data-name="Trazado 68933" d="M657.8,5301.752h-5.9a15.806,15.806,0,0,0-1.414-3.424l4.168-4.167a1.977,1.977,0,0,0,0-2.8L651.294,5288a1.974,1.974,0,0,0-2.794,0l-4.166,4.166a15.9,15.9,0,0,0-3.424-1.413v-5.9a1.977,1.977,0,0,0-1.979-1.977h-4.754a1.976,1.976,0,0,0-1.977,1.977v5.9a15.873,15.873,0,0,0-3.424,1.413L624.61,5288a1.977,1.977,0,0,0-2.795,0l-3.364,3.362a1.975,1.975,0,0,0,0,2.8l4.166,4.167a15.887,15.887,0,0,0-1.413,3.424h-5.9a1.977,1.977,0,0,0-1.978,1.977v4.756a1.978,1.978,0,0,0,1.978,1.978h5.9a15.866,15.866,0,0,0,1.413,3.424l-4.167,4.165a1.978,1.978,0,0,0,0,2.8l3.364,3.363a1.977,1.977,0,0,0,2.795,0l4.166-4.167a15.823,15.823,0,0,0,3.424,1.412v5.9a1.975,1.975,0,0,0,1.977,1.975h4.754a1.976,1.976,0,0,0,1.979-1.975v-5.9a15.885,15.885,0,0,0,3.425-1.412l4.165,4.167a1.976,1.976,0,0,0,2.794,0l3.364-3.363a1.979,1.979,0,0,0,0-2.8l-4.168-4.165a15.786,15.786,0,0,0,1.414-3.424h5.9a1.978,1.978,0,0,0,1.977-1.978v-4.756A1.977,1.977,0,0,0,657.8,5301.752Zm-21.247,13.064a8.709,8.709,0,1,1,8.709-8.708A8.709,8.709,0,0,1,636.556,5314.816Z" transform="translate(-611.595 -5281.148)" fill="#48b1e2"/>
        <path id="Trazado_68934" data-name="Trazado 68934" d="M637.674,5329.81H632.92a3.717,3.717,0,0,1-3.713-3.712v-4.636q-.691-.251-1.353-.557l-3.276,3.276a3.8,3.8,0,0,1-5.25,0l-3.363-3.362a3.722,3.722,0,0,1,0-5.25l3.278-3.275q-.305-.662-.557-1.352H614.05a3.717,3.717,0,0,1-3.713-3.712v-4.757a3.718,3.718,0,0,1,3.713-3.713h4.635c.168-.459.354-.911.557-1.352l-3.276-3.275a3.712,3.712,0,0,1,0-5.25l3.364-3.363a3.719,3.719,0,0,1,5.249,0l3.277,3.277q.661-.3,1.352-.557V5283.6a3.717,3.717,0,0,1,3.713-3.712h4.754a3.717,3.717,0,0,1,3.714,3.712v4.635q.689.252,1.351.557l3.276-3.276a3.8,3.8,0,0,1,5.25,0l3.363,3.362a3.719,3.719,0,0,1,0,5.25l-3.277,3.275q.305.661.557,1.352h4.636a3.718,3.718,0,0,1,3.713,3.713v4.757a3.717,3.717,0,0,1-3.713,3.712h-4.636c-.168.459-.354.912-.557,1.352l3.277,3.274a3.723,3.723,0,0,1,0,5.251l-3.365,3.364a3.8,3.8,0,0,1-5.249,0l-3.276-3.277q-.661.3-1.352.557v4.636A3.717,3.717,0,0,1,637.674,5329.81Zm-10.156-12.758a1.733,1.733,0,0,1,.847.221,14.082,14.082,0,0,0,3.05,1.257,1.736,1.736,0,0,1,1.263,1.67v5.9a.241.241,0,0,0,.241.24h4.754a.241.241,0,0,0,.242-.24v-5.9a1.736,1.736,0,0,1,1.263-1.67,14.128,14.128,0,0,0,3.051-1.257,1.736,1.736,0,0,1,2.075.288l4.165,4.167a.269.269,0,0,0,.339,0l3.365-3.363a.243.243,0,0,0,0-.344l-4.166-4.163a1.736,1.736,0,0,1-.287-2.076,14.052,14.052,0,0,0,1.257-3.049,1.736,1.736,0,0,1,1.671-1.263h5.9a.242.242,0,0,0,.241-.241v-4.757a.241.241,0,0,0-.241-.241h-5.9a1.738,1.738,0,0,1-1.671-1.263,14.076,14.076,0,0,0-1.257-3.048,1.736,1.736,0,0,1,.287-2.076l4.168-4.167a.242.242,0,0,0,0-.341l-3.364-3.362a.269.269,0,0,0-.341,0l-4.166,4.166a1.735,1.735,0,0,1-2.073.288,14.209,14.209,0,0,0-3.051-1.258,1.736,1.736,0,0,1-1.263-1.67v-5.9a.239.239,0,0,0-.242-.241H632.92a.238.238,0,0,0-.241.241v5.9a1.736,1.736,0,0,1-1.263,1.67,14.219,14.219,0,0,0-3.052,1.258,1.735,1.735,0,0,1-2.074-.288l-4.166-4.166a.242.242,0,0,0-.341,0l-3.364,3.362a.271.271,0,0,0,0,.34l4.167,4.167a1.735,1.735,0,0,1,.288,2.074,14.225,14.225,0,0,0-1.259,3.05,1.736,1.736,0,0,1-1.67,1.262h-5.9a.242.242,0,0,0-.242.241v4.757a.242.242,0,0,0,.242.241h5.9a1.736,1.736,0,0,1,1.671,1.263,14.15,14.15,0,0,0,1.258,3.05,1.736,1.736,0,0,1-.288,2.075l-4.167,4.165a.242.242,0,0,0,0,.344l3.362,3.361a.272.272,0,0,0,.342,0l4.165-4.166A1.736,1.736,0,0,1,627.518,5317.052Zm7.78-1.757a10.445,10.445,0,1,1,10.445-10.444A10.456,10.456,0,0,1,635.3,5315.294Zm0-17.417a6.973,6.973,0,1,0,6.974,6.974A6.982,6.982,0,0,0,635.3,5297.877Z" transform="translate(-610.337 -5279.891)" fill="#325a6a"/>
      </g>
      <g id="Grupo_28503" data-name="Grupo 28503" transform="translate(86.504 7.258)">
        <path id="Trazado_68935" data-name="Trazado 68935" d="M604.809,5252.843v8.37a3.243,3.243,0,0,0,3.242,3.243h7.5Z" transform="translate(-603.073 -5251.107)" fill="#fff"/>
        <path id="Trazado_68936" data-name="Trazado 68936" d="M614.3,5264.933h-7.5a4.984,4.984,0,0,1-4.979-4.979v-8.37a1.736,1.736,0,0,1,3.01-1.179l10.747,11.612a1.736,1.736,0,0,1-1.274,2.915Zm-9.012-8.917v3.939a1.509,1.509,0,0,0,1.507,1.507h3.534Z" transform="translate(-601.815 -5249.85)" fill="#325a6a"/>
      </g>
      <g id="Grupo_28504" data-name="Grupo 28504" transform="translate(75.479 31.934)">
        <path id="Trazado_68937" data-name="Trazado 68937" d="M585.794,5295.4h0Z" transform="translate(-584.059 -5293.664)" fill="#fff"/>
        <path id="Trazado_68938" data-name="Trazado 68938" d="M594.7,5295.877H584.536a1.736,1.736,0,0,1,0-3.472H594.7a1.736,1.736,0,0,1,0,3.472Z" transform="translate(-582.801 -5292.406)" fill="#325a6a"/>
      </g>
      <g id="Grupo_28505" data-name="Grupo 28505" transform="translate(75.479 31.934)">
        <path id="Trazado_68939" data-name="Trazado 68939" d="M594.7,5295.877H584.536a1.736,1.736,0,0,1,0-3.472H594.7a1.736,1.736,0,0,1,0,3.472Z" transform="translate(-582.801 -5292.406)" fill="#325a6a"/>
      </g>
      <g id="Grupo_28506" data-name="Grupo 28506" transform="translate(75.479 40.643)">
        <path id="Trazado_68940" data-name="Trazado 68940" d="M585.794,5310.418h0Z" transform="translate(-584.059 -5308.683)" fill="#fff"/>
        <path id="Trazado_68941" data-name="Trazado 68941" d="M594.7,5310.9H584.536a1.736,1.736,0,0,1,0-3.472H594.7a1.736,1.736,0,0,1,0,3.472Z" transform="translate(-582.801 -5307.425)" fill="#325a6a"/>
      </g>
      <g id="Grupo_28507" data-name="Grupo 28507" transform="translate(75.479 40.643)">
        <path id="Trazado_68942" data-name="Trazado 68942" d="M594.7,5310.9H584.536a1.736,1.736,0,0,1,0-3.472H594.7a1.736,1.736,0,0,1,0,3.472Z" transform="translate(-582.801 -5307.425)" fill="#325a6a"/>
      </g>
      <g id="Grupo_28508" data-name="Grupo 28508" transform="translate(75.479 49.352)">
        <path id="Trazado_68943" data-name="Trazado 68943" d="M585.794,5325.439h0Z" transform="translate(-584.059 -5323.703)" fill="#fff"/>
        <path id="Trazado_68944" data-name="Trazado 68944" d="M594.7,5325.917H584.536a1.736,1.736,0,0,1,0-3.472H594.7a1.736,1.736,0,0,1,0,3.472Z" transform="translate(-582.801 -5322.445)" fill="#325a6a"/>
      </g>
      <g id="Grupo_28509" data-name="Grupo 28509" transform="translate(75.479 49.352)">
        <path id="Trazado_68945" data-name="Trazado 68945" d="M594.7,5325.917H584.536a1.736,1.736,0,0,1,0-3.472H594.7a1.736,1.736,0,0,1,0,3.472Z" transform="translate(-582.801 -5322.445)" fill="#325a6a"/>
      </g>
      <g id="Grupo_28510" data-name="Grupo 28510" transform="translate(75.479 58.061)">
        <path id="Trazado_68946" data-name="Trazado 68946" d="M585.794,5340.459h0Z" transform="translate(-584.059 -5338.723)" fill="#fff"/>
        <path id="Trazado_68947" data-name="Trazado 68947" d="M594.7,5340.937H584.536a1.736,1.736,0,0,1,0-3.472H594.7a1.736,1.736,0,0,1,0,3.472Z" transform="translate(-582.801 -5337.465)" fill="#325a6a"/>
      </g>
      <g id="Grupo_28511" data-name="Grupo 28511" transform="translate(75.479 58.061)">
        <path id="Trazado_68948" data-name="Trazado 68948" d="M594.7,5340.937H584.536a1.736,1.736,0,0,1,0-3.472H594.7a1.736,1.736,0,0,1,0,3.472Z" transform="translate(-582.801 -5337.465)" fill="#325a6a"/>
      </g>
      <g id="Grupo_28512" data-name="Grupo 28512" transform="translate(21.772 21.773)">
        <path id="Trazado_68949" data-name="Trazado 68949" d="M525.106,5277.876h10.747a3.767,3.767,0,0,1,3.767,3.768v38.913a3.767,3.767,0,0,1-3.767,3.768H496.939a3.767,3.767,0,0,1-3.767-3.768v-38.913a3.767,3.767,0,0,1,3.767-3.768h28.166Z" transform="translate(-491.436 -5276.141)" fill="#fff"/>
        <path id="Trazado_68950" data-name="Trazado 68950" d="M534.6,5324.8H495.681a5.51,5.51,0,0,1-5.5-5.5v-38.913a5.51,5.51,0,0,1,5.5-5.5H534.6a5.509,5.509,0,0,1,5.5,5.5V5319.3A5.509,5.509,0,0,1,534.6,5324.8Zm-38.914-46.449a2.034,2.034,0,0,0-2.032,2.032V5319.3a2.034,2.034,0,0,0,2.032,2.032H534.6a2.034,2.034,0,0,0,2.031-2.032v-38.913a2.034,2.034,0,0,0-2.031-2.032Z" transform="translate(-490.178 -5274.883)" fill="#325a6a"/>
      </g>
      <g id="Grupo_28513" data-name="Grupo 28513" transform="translate(39.191 37.325)">
        <path id="Trazado_68951" data-name="Trazado 68951" d="M523.212,5306.854v10.84a2.161,2.161,0,0,0,3.312,1.828l8.607-5.418a2.161,2.161,0,0,0,0-3.658l-8.607-5.419A2.16,2.16,0,0,0,523.212,5306.854Z" transform="translate(-521.476 -5302.958)" fill="#ffd354"/>
        <path id="Trazado_68952" data-name="Trazado 68952" d="M524.115,5320.335a3.9,3.9,0,0,1-3.9-3.9V5305.6a3.9,3.9,0,0,1,5.974-3.3l8.607,5.418a3.9,3.9,0,0,1,0,6.6l-8.607,5.419A3.891,3.891,0,0,1,524.115,5320.335Zm0-15.164a.438.438,0,0,0-.207.056.406.406,0,0,0-.22.372v10.84a.425.425,0,0,0,.651.359l8.608-5.419a.425.425,0,0,0,0-.72l-8.607-5.419A.417.417,0,0,0,524.116,5305.171Z" transform="translate(-520.218 -5301.703)" fill="#325a6a"/>
      </g>
    </g>
  </g>
</svg>
